<?xml version="1.0" encoding="UTF-8" standalone="no"?>
<svg
   id="Camada_1"
   version="1.1"
   viewBox="0 0 1190.55 499.99999"
   sodipodi:docname="Brasão + nome ao lado em azul.svg"
   width="1190.55"
   height="500"
   inkscape:version="1.4 (86a8ad7, 2024-10-11)"
   xmlns:inkscape="http://www.inkscape.org/namespaces/inkscape"
   xmlns:sodipodi="http://sodipodi.sourceforge.net/DTD/sodipodi-0.dtd"
   xmlns="http://www.w3.org/2000/svg"
   xmlns:svg="http://www.w3.org/2000/svg">
  <sodipodi:namedview
     id="namedview193"
     pagecolor="#ffffff"
     bordercolor="#000000"
     borderopacity="0.25"
     inkscape:showpageshadow="2"
     inkscape:pageopacity="0.0"
     inkscape:pagecheckerboard="0"
     inkscape:deskcolor="#d1d1d1"
     inkscape:zoom="0.47927876"
     inkscape:cx="642.63228"
     inkscape:cy="591.5138"
     inkscape:window-width="1920"
     inkscape:window-height="1009"
     inkscape:window-x="1912"
     inkscape:window-y="-8"
     inkscape:window-maximized="1"
     inkscape:current-layer="Camada_1" />
  <!-- Generator: Adobe Illustrator 29.3.1, SVG Export Plug-In . SVG Version: 2.1.0 Build 151)  -->
  <defs
     id="defs1">
    <style
       id="style1">
      .st0 {
        fill: none;
      }

      .st1 {
        fill: #123d67;
      }

      .st2 {
        fill: #f0ac10;
      }

      .st3 {
        fill: #a45b4c;
      }

      .st4 {
        fill: #d99202;
      }

      .st5 {
        fill: #dd9704;
      }

      .st6 {
        fill: #e7a30b;
      }

      .st7 {
        fill: #e5a109;
      }

      .st8 {
        fill: #eaa60d;
      }

      .st9 {
        fill: #f5b313;
      }

      .st10 {
        fill: #f4b112;
      }

      .st11 {
        fill: #f5b213;
      }

      .st12 {
        fill: #47767a;
      }

      .st13 {
        fill: #008d3c;
      }

      .st14 {
        fill: #99c350;
      }

      .st15 {
        fill: #1c4c8d;
      }

      .st16 {
        fill: #f7b414;
      }

      .st17 {
        fill: #fab816;
      }

      .st18 {
        fill: #efab0f;
      }

      .st19 {
        fill: #fab716;
      }

      .st20 {
        fill: #d68f00;
      }

      .st21 {
        fill: #fabd00;
      }

      .st22 {
        fill: #f3b012;
      }

      .st23 {
        fill: #975240;
      }

      .st24 {
        fill: #d78f05;
      }

      .st25 {
        fill: #fff;
      }

      .st26 {
        fill: #e29c07;
      }

      .st27 {
        fill: #ce1619;
      }

      .st28 {
        fill: #eca80d;
      }

      .st29 {
        fill: #f1ae10;
      }

      .st30 {
        fill: #f6af04;
      }

      .st31 {
        fill: #f9b716;
      }

      .st32 {
        fill: #02a5db;
      }

      .st33 {
        fill: #f6b314;
      }

      .st34 {
        fill: #d88f05;
      }

      .st35 {
        fill: #008b3c;
      }

      .st36 {
        fill: #f8b514;
      }

      .st37 {
        fill: #2962ab;
      }

      .st38 {
        fill: #f9b615;
      }

      .st39 {
        fill: #f2af11;
      }

      .st40 {
        fill: #e49f08;
      }

      .st41 {
        fill: #009845;
      }

      .st42 {
        fill: #c47d13;
      }

      .st43 {
        fill: #f8b615;
      }

      .st44 {
        fill: #db9503;
      }

      .st45 {
        fill: #f9b715;
      }

      .st46 {
        fill: #e9a50c;
      }

      .st47 {
        clip-path: url(#clippath);
      }

      .st48 {
        fill: #edaa0e;
      }

      .st49 {
        fill: #81443b;
      }

      .st50 {
        fill: #e09a06;
      }

      .st51 {
        fill: #9fced3;
      }

      .st52 {
        fill: #f7b514;
      }
    </style>
    <clipPath
       id="clippath">
      <path
         class="st0"
         d="m 341.97,277.81 -3.89,-1.62 c -0.95,-0.39 -2,-0.1 -2.64,0.64 l -2.59,6.27 -1.93,-0.85 -1.27,-0.53 2.31,-5.56 c 0.49,-1.18 -0.07,-2.54 -1.25,-3.03 l -3.89,-1.62 c -1.18,-0.49 -2.54,0.07 -3.03,1.25 l -2.51,6.03 v 0 c 0,0 1.3,8.36 1.3,8.36 v 0 c 0,0 -8.53,20.51 -8.53,20.51 -4.58,-1.84 -9.48,-3.53 -14.67,-5.03 l 4.19,-21.13 5.67,-6.4 v 0 c 0,0 1.27,-6.41 1.27,-6.41 0.25,-1.25 -0.57,-2.47 -1.82,-2.72 l -4.13,-0.82 c -1.25,-0.25 -2.47,0.57 -2.72,1.82 l -1.17,5.91 -3.2,-0.63 1.17,-5.91 c 0.25,-1.25 -0.57,-2.47 -1.82,-2.72 l -4.13,-0.82 c -1.25,-0.25 -2.47,0.57 -2.72,1.82 l -1.17,5.91 -3.62,-0.72 1.17,-5.91 c 0.25,-1.25 -0.57,-2.47 -1.82,-2.72 l -4.13,-0.82 c -1.25,-0.25 -2.47,0.57 -2.72,1.82 l -1.27,6.41 v 0 c 0,0 2.93,7.94 2.93,7.94 v 0 c 0,0 -4.13,20.83 -4.13,20.83 -6.57,-1 -13.41,-1.72 -20.44,-2.12 v -21.21 0 c 0,0 4.42,-7.22 4.42,-7.22 v 0 -6.53 c 0,-1.28 -1.04,-2.32 -2.32,-2.32 h -4.21 c -1.28,0 -2.32,1.04 -2.32,2.32 v 6.03 h -3.69 v -6.03 c 0,-1.28 -1.04,-2.32 -2.32,-2.32 h -4.21 c -1.28,0 -2.32,1.04 -2.32,2.32 v 6.03 h -3.26 v -6.03 c 0,-1.28 -1.04,-2.32 -2.32,-2.32 h -4.21 c -1.28,0 -2.32,1.04 -2.32,2.32 v 6.53 0 l 4.32,7.38 v 21.02 c -6.99,0.37 -14.09,1.07 -21.24,2.13 l -4.12,-20.79 v 0 c 0,0 2.93,-7.94 2.93,-7.94 v 0 c 0,0 -1.27,-6.41 -1.27,-6.41 -0.25,-1.25 -1.47,-2.07 -2.72,-1.82 l -4.13,0.82 c -1.25,0.25 -2.07,1.47 -1.82,2.72 l 1.17,5.91 -3.62,0.72 -1.17,-5.91 c -0.25,-1.25 -1.47,-2.07 -2.72,-1.82 l -4.13,0.82 c -1.25,0.25 -2.07,1.47 -1.82,2.72 l 1.17,5.91 -3.2,0.63 -1.17,-5.91 c -0.25,-1.25 -1.47,-2.07 -2.72,-1.82 l -4.13,0.82 c -1.25,0.25 -2.07,1.47 -1.82,2.72 l 1.27,6.41 v 0 c 0,0 5.67,6.4 5.67,6.4 l 4.12,20.81 c -5.37,1.42 -10.73,3.06 -16.08,4.94 l -8.36,-20.09 v 0 c 0,0 1.3,-8.37 1.3,-8.37 v 0 c 0,0 -2.51,-6.03 -2.51,-6.03 -0.49,-1.18 -1.85,-1.74 -3.03,-1.25 l -3.89,1.62 c -1.18,0.49 -1.74,1.85 -1.25,3.03 l 2.31,5.56 -1.27,0.53 -1.93,0.85 -2.59,-6.27 c -0.64,-0.74 -1.69,-1.03 -2.64,-0.64 l -3.89,1.62 c -1.18,0.49 -1.74,1.85 -1.25,3.03 l 2.51,6.03 v 0 c 0,0 6.82,5.15 6.82,5.15 l 8.17,19.64 c 0,0 -0.05,0.02 -0.08,0.03 l 0.5,1.25 c 0,0 0,0 0,0 0.26,0.62 1.82,4.54 2.11,5.26 h 0.02 c 0,0 8.19,20.14 8.19,20.14 34.51,-15.75 113.89,-15.56 147.78,0.63 -0.13,-0.18 9.61,-25.37 9.62,-25.55 0,0 -0.02,-0.01 -0.03,-0.02 0,0 0.08,-0.2 0.23,-0.57 -0.02,-0.01 -0.04,-0.02 -0.06,-0.03 l 8.65,-20.79 6.82,-5.15 v 0 c 0,0 2.51,-6.03 2.51,-6.03 0.49,-1.18 -0.07,-2.54 -1.25,-3.03 z"
         id="path1" />
    </clipPath>
  </defs>
  <g
     id="g34"
     transform="translate(0,-198)">
    <path
       class="st1"
       d="m 476.07,468.5 h -17.2 c -0.63,0 -1.02,0.38 -1.02,1.02 v 42.39 c 0,0.63 0.38,1.02 1.02,1.02 h 8.19 c 0.63,0 1.08,-0.38 1.08,-1.02 v -12.12 h 7.93 c 11.04,0 17.32,-5.77 17.32,-15.67 0,-9.9 -6.28,-15.61 -17.32,-15.61 z m -0.26,21.77 h -7.68 v -12.31 h 7.68 c 4.76,0 6.98,2.03 6.98,6.16 0,4.13 -2.22,6.16 -6.98,6.16 z"
       id="path2" />
    <path
       class="st1"
       d="m 509.07,468.5 h -8.19 c -0.63,0 -1.02,0.38 -1.02,1.02 v 42.39 c 0,0.63 0.38,1.02 1.02,1.02 h 8.19 c 0.63,0 1.08,-0.38 1.08,-1.02 v -42.39 c 0,-0.63 -0.44,-1.02 -1.08,-1.02 z"
       id="path3" />
    <path
       class="st1"
       d="m 557.8,468.5 h -8.19 c -0.63,0 -1.02,0.38 -1.02,1.02 v 26.27 h -0.13 l -18.91,-26.65 c -0.32,-0.44 -0.76,-0.63 -1.33,-0.63 h -7.93 c -0.63,0 -1.02,0.38 -1.02,1.02 v 42.39 c 0,0.63 0.38,1.02 1.02,1.02 h 8.19 c 0.63,0 1.08,-0.38 1.08,-1.02 v -26.21 h 0.06 l 18.91,26.59 c 0.32,0.44 0.76,0.63 1.27,0.63 h 8 c 0.63,0 1.08,-0.38 1.08,-1.02 v -42.39 c 0,-0.63 -0.44,-1.02 -1.08,-1.02 z"
       id="path4" />
    <path
       class="st1"
       d="m 584.01,468.5 h -14.98 c -0.63,0 -1.02,0.38 -1.02,1.02 v 42.39 c 0,0.63 0.38,1.02 1.02,1.02 h 14.98 c 13.33,0 22.59,-9.14 22.59,-22.21 0,-13.07 -9.26,-22.21 -22.59,-22.21 z m -0.19,34.9 h -5.52 v -25.38 h 5.52 c 7.49,0 12.18,4.76 12.18,12.69 0,7.93 -4.7,12.69 -12.18,12.69 z"
       id="path5" />
    <path
       class="st1"
       d="m 636.87,469.33 c -0.19,-0.57 -0.7,-0.82 -1.27,-0.82 h -9.52 c -0.51,0 -1.02,0.25 -1.21,0.82 l -16.56,42.39 c -0.32,0.76 0.06,1.21 0.82,1.21 h 8.5 c 0.57,0 1.02,-0.19 1.21,-0.82 l 2.54,-6.92 h 18.97 l 2.54,6.92 c 0.19,0.63 0.63,0.82 1.14,0.82 h 8.63 c 0.76,0 1.08,-0.44 0.82,-1.21 l -16.63,-42.39 z m -12.12,26.78 6.03,-16.37 h 0.19 l 6.03,16.37 z"
       id="path6" />
    <path
       class="st1"
       d="m 706.87,468.5 h -9.46 c -0.57,0 -1.02,0.19 -1.27,0.76 l -12.56,22.59 h -0.19 l -12.63,-22.59 c -0.25,-0.57 -0.7,-0.76 -1.27,-0.76 h -9.46 c -0.63,0 -1.02,0.38 -1.02,1.02 v 42.39 c 0,0.63 0.38,1.02 1.02,1.02 h 8.19 c 0.63,0 1.02,-0.38 1.02,-1.02 v -26.46 h 0.13 l 9.9,17.2 c 0.25,0.57 0.7,0.76 1.21,0.76 h 6.03 c 0.51,0 0.95,-0.19 1.21,-0.76 l 9.84,-17.2 h 0.19 v 26.46 c 0,0.63 0.38,1.02 1.02,1.02 h 8.12 c 0.63,0 1.08,-0.38 1.08,-1.02 v -42.39 c 0,-0.63 -0.44,-1.02 -1.08,-1.02 z"
       id="path7" />
    <path
       class="st1"
       d="m 738.47,467.68 c -13.14,0 -23.16,9.96 -23.16,23.03 0,13.07 10.03,23.03 23.16,23.03 13.13,0 23.16,-9.96 23.16,-23.03 0,-13.07 -10.03,-23.03 -23.16,-23.03 z m 0,36.42 c -7.61,0 -12.63,-5.65 -12.63,-13.39 0,-7.74 5.01,-13.39 12.63,-13.39 7.62,0 12.63,5.65 12.63,13.39 0,7.74 -5.01,13.39 -12.63,13.39 z"
       id="path8" />
    <path
       class="st1"
       d="m 807.51,468.5 h -8.19 c -0.63,0 -1.02,0.38 -1.02,1.02 v 26.27 h -0.13 l -18.91,-26.65 c -0.32,-0.44 -0.76,-0.63 -1.33,-0.63 H 770 c -0.63,0 -1.02,0.38 -1.02,1.02 v 42.39 c 0,0.63 0.38,1.02 1.02,1.02 h 8.19 c 0.63,0 1.08,-0.38 1.08,-1.02 v -26.21 h 0.06 l 18.91,26.59 c 0.32,0.44 0.76,0.63 1.27,0.63 h 8 c 0.63,0 1.08,-0.38 1.08,-1.02 v -42.39 c 0,-0.63 -0.44,-1.02 -1.08,-1.02 z"
       id="path9" />
    <path
       class="st1"
       d="m 854.85,468.5 h -8.19 c -0.63,0 -1.02,0.38 -1.02,1.02 v 17.13 H 828 v -17.13 c 0,-0.63 -0.44,-1.02 -1.08,-1.02 h -8.19 c -0.63,0 -1.02,0.38 -1.02,1.02 v 42.39 c 0,0.63 0.38,1.02 1.02,1.02 h 8.19 c 0.63,0 1.08,-0.38 1.08,-1.02 v -15.67 h 17.64 v 15.67 c 0,0.63 0.38,1.02 1.02,1.02 h 8.19 c 0.63,0 1.02,-0.38 1.02,-1.02 v -42.39 c 0,-0.63 -0.38,-1.02 -1.02,-1.02 z"
       id="path10" />
    <path
       class="st1"
       d="m 889.95,469.33 c -0.19,-0.57 -0.7,-0.82 -1.27,-0.82 h -9.52 c -0.51,0 -1.02,0.25 -1.21,0.82 l -16.56,42.39 c -0.32,0.76 0.06,1.21 0.82,1.21 h 8.5 c 0.57,0 1.02,-0.19 1.21,-0.82 l 2.54,-6.92 h 18.97 l 2.54,6.92 c 0.19,0.63 0.63,0.82 1.14,0.82 h 8.63 c 0.76,0 1.08,-0.44 0.82,-1.21 l -16.63,-42.39 z m -12.12,26.78 6.03,-16.37 h 0.19 l 6.03,16.37 z"
       id="path11" />
    <path
       class="st1"
       d="m 950.61,468.5 h -8.19 c -0.63,0 -1.02,0.38 -1.02,1.02 v 26.27 h -0.13 l -18.91,-26.65 c -0.32,-0.44 -0.76,-0.63 -1.33,-0.63 h -7.93 c -0.63,0 -1.02,0.38 -1.02,1.02 v 42.39 c 0,0.63 0.38,1.02 1.02,1.02 h 8.19 c 0.63,0 1.08,-0.38 1.08,-1.02 v -26.21 h 0.06 l 18.91,26.59 c 0.32,0.44 0.76,0.63 1.27,0.63 h 8 c 0.63,0 1.08,-0.38 1.08,-1.02 v -42.39 c 0,-0.63 -0.44,-1.02 -1.08,-1.02 z"
       id="path12" />
    <path
       class="st1"
       d="m 1003.48,487.6 h -19.93 c -0.63,0 -1.08,0.38 -1.08,1.08 v 5.84 c 0,0.63 0.44,1.02 1.08,1.02 h 10.79 c -1.08,5.52 -5.33,8.63 -11.55,8.63 -8.06,0 -13.2,-5.14 -13.2,-13.45 0,-8.31 5.01,-13.45 12.82,-13.45 4.76,0 8.5,2.03 9.9,5.33 0.25,0.57 0.63,0.82 1.21,0.82 h 9.01 c 0.7,0 1.14,-0.38 0.89,-1.14 -2.28,-8.69 -10.66,-14.59 -21,-14.59 -13.58,0 -23.35,10.09 -23.35,23.03 0,12.94 9.77,23.03 23.42,23.03 12.76,0 22.08,-8.76 22.08,-21.89 v -3.17 c 0,-0.7 -0.44,-1.08 -1.08,-1.08 z"
       id="path13" />
    <path
       class="st1"
       d="m 1034.83,469.33 c -0.19,-0.57 -0.7,-0.82 -1.27,-0.82 h -9.52 c -0.51,0 -1.02,0.25 -1.21,0.82 l -16.56,42.39 c -0.32,0.76 0.06,1.21 0.82,1.21 h 8.5 c 0.57,0 1.02,-0.19 1.21,-0.82 l 2.54,-6.92 h 18.97 l 2.54,6.92 c 0.19,0.63 0.63,0.82 1.14,0.82 h 8.63 c 0.76,0 1.08,-0.44 0.82,-1.21 l -16.63,-42.39 z m -12.12,26.78 6.03,-16.37 h 0.19 l 6.03,16.37 z"
       id="path14" />
    <path
       class="st1"
       d="m 1084.58,489.95 v -0.13 c 3.62,-1.52 5.65,-4.76 5.65,-9.33 0,-7.42 -5.33,-11.99 -16.12,-11.99 h -16.12 c -0.63,0 -1.02,0.38 -1.02,1.02 v 42.39 c 0,0.63 0.38,1.02 1.02,1.02 h 19.04 c 10.72,0 16.18,-4.7 16.18,-12.44 0,-5.96 -3.24,-9.65 -8.63,-10.53 z m -17.45,-13.01 h 6.47 c 4.51,0 6.22,1.46 6.22,4.57 0,3.11 -1.71,4.57 -6.22,4.57 h -6.47 z m 8.88,27.54 h -8.88 v -10.09 h 8.88 c 4.82,0 6.66,1.52 6.66,5.01 0,3.49 -1.84,5.08 -6.66,5.08 z"
       id="path15" />
    <path
       class="st1"
       d="m 1141.25,511.72 -16.63,-42.39 c -0.19,-0.57 -0.7,-0.82 -1.27,-0.82 h -9.52 c -0.51,0 -1.02,0.25 -1.21,0.82 l -16.56,42.39 c -0.32,0.76 0.06,1.21 0.82,1.21 h 8.5 c 0.57,0 1.02,-0.19 1.21,-0.82 l 2.54,-6.92 h 18.97 l 2.54,6.92 c 0.19,0.63 0.63,0.82 1.14,0.82 h 8.63 c 0.76,0 1.08,-0.44 0.82,-1.21 z m -28.75,-15.61 6.03,-16.37 h 0.19 l 6.03,16.37 z"
       id="path16" />
    <path
       class="st1"
       d="m 458.93,454.06 h 1.52 c 0.56,0 0.91,-0.35 0.91,-0.91 v -11.79 h 10.07 c 8.05,0 12.55,-4.25 12.55,-11.39 0,-7.14 -4.5,-11.34 -12.55,-11.34 h -12.5 c -0.56,0 -0.91,0.35 -0.91,0.91 v 33.61 c 0,0.56 0.35,0.91 0.91,0.91 z m 2.43,-32.4 h 9.72 c 6.43,0 9.47,2.83 9.47,8.3 0,5.47 -3.04,8.3 -9.47,8.3 h -9.72 z"
       id="path17" />
    <path
       class="st1"
       d="m 509.55,440.14 c 5.06,-1.37 7.85,-5.26 7.85,-10.48 0,-6.73 -4.56,-11.03 -12.5,-11.03 h -12.45 c -0.56,0 -0.91,0.35 -0.91,0.91 v 33.61 c 0,0.56 0.35,0.91 0.91,0.91 h 1.52 c 0.56,0 0.91,-0.35 0.91,-0.91 V 440.8 h 5.97 c 7.34,0 11.64,3.64 13.21,12.45 0.05,0.51 0.4,0.81 0.96,0.81 h 1.67 c 0.61,0 0.91,-0.35 0.81,-0.96 -1.11,-6.83 -3.9,-11.08 -7.95,-12.96 z m -14.68,-2.48 v -15.99 h 9.62 c 6.38,0 9.47,2.94 9.47,8.05 0,5.11 -3.09,7.95 -9.47,7.95 h -9.62 z"
       id="path18" />
    <path
       class="st1"
       d="m 527.36,454.06 h 21.87 c 0.61,0 0.91,-0.35 0.91,-0.91 v -1.27 c 0,-0.56 -0.3,-0.86 -0.91,-0.86 h -19.44 v -13.16 h 15.54 c 0.56,0 0.91,-0.3 0.91,-0.86 v -1.32 c 0,-0.56 -0.35,-0.86 -0.91,-0.86 h -15.54 v -13.16 h 19.28 c 0.56,0 0.91,-0.3 0.91,-0.86 v -1.27 c 0,-0.56 -0.35,-0.91 -0.91,-0.91 h -21.71 c -0.56,0 -0.91,0.35 -0.91,0.91 v 33.61 c 0,0.56 0.35,0.91 0.91,0.91 z"
       id="path19" />
    <path
       class="st1"
       d="m 579.24,437.51 v -1.32 c 0,-0.56 -0.3,-0.86 -0.86,-0.86 h -16.65 v -13.67 h 19.08 c 0.56,0 0.91,-0.3 0.91,-0.86 v -1.27 c 0,-0.56 -0.35,-0.91 -0.91,-0.91 H 559.3 c -0.56,0 -0.91,0.35 -0.91,0.91 v 33.61 c 0,0.56 0.35,0.91 0.91,0.91 h 1.52 c 0.56,0 0.91,-0.35 0.91,-0.91 v -14.78 h 16.65 c 0.56,0 0.86,-0.3 0.86,-0.86 z"
       id="path20" />
    <path
       class="st1"
       d="m 590.28,454.06 h 21.87 c 0.61,0 0.91,-0.35 0.91,-0.91 v -1.27 c 0,-0.56 -0.3,-0.86 -0.91,-0.86 h -19.44 v -13.16 h 15.54 c 0.56,0 0.91,-0.3 0.91,-0.86 v -1.32 c 0,-0.56 -0.35,-0.86 -0.91,-0.86 h -15.54 v -13.16 h 19.28 c 0.56,0 0.91,-0.3 0.91,-0.86 v -1.27 c 0,-0.56 -0.35,-0.91 -0.91,-0.91 h -21.71 c -0.56,0 -0.91,0.35 -0.91,0.91 v 33.61 c 0,0.56 0.35,0.91 0.91,0.91 z"
       id="path21" />
    <rect
       class="st1"
       x="621.29999"
       y="418.63"
       width="3.3399999"
       height="35.43"
       rx="0.91000003"
       ry="0.91000003"
       id="rect21" />
    <path
       class="st1"
       d="m 657.54,418.63 h -25.31 c -0.56,0 -0.86,0.35 -0.86,0.91 v 1.32 c 0,0.56 0.3,0.86 0.86,0.86 h 10.98 v 31.43 c 0,0.56 0.35,0.91 0.91,0.91 h 1.52 c 0.56,0 0.91,-0.35 0.91,-0.91 v -31.43 h 10.98 c 0.56,0 0.86,-0.3 0.86,-0.86 v -1.32 c 0,-0.56 -0.3,-0.91 -0.86,-0.91 z"
       id="path22" />
    <path
       class="st1"
       d="m 678.45,454.51 c 8.35,0 13.82,-5.26 13.82,-14.63 v -20.35 c 0,-0.56 -0.35,-0.91 -0.91,-0.91 h -1.52 c -0.56,0 -0.86,0.35 -0.86,0.91 v 19.94 c 0,7.9 -4.05,11.84 -10.53,11.84 -6.48,0 -10.53,-3.95 -10.53,-11.84 v -19.94 c 0,-0.56 -0.35,-0.91 -0.91,-0.91 h -1.52 c -0.56,0 -0.86,0.35 -0.86,0.91 v 20.35 c 0,9.36 5.42,14.63 13.82,14.63 z"
       id="path23" />
    <path
       class="st1"
       d="m 724.36,453.25 c 0.05,0.51 0.4,0.81 0.96,0.81 h 1.67 c 0.61,0 0.91,-0.35 0.81,-0.96 -1.11,-6.83 -3.9,-11.08 -7.95,-12.96 5.06,-1.37 7.85,-5.26 7.85,-10.48 0,-6.73 -4.56,-11.03 -12.5,-11.03 h -12.45 c -0.56,0 -0.91,0.35 -0.91,0.91 v 33.61 c 0,0.56 0.35,0.91 0.91,0.91 h 1.52 c 0.56,0 0.91,-0.35 0.91,-0.91 V 440.8 h 5.97 c 7.34,0 11.64,3.64 13.21,12.45 z m -19.19,-15.59 v -15.99 h 9.62 c 6.38,0 9.47,2.94 9.47,8.05 0,5.11 -3.09,7.95 -9.47,7.95 h -9.62 z"
       id="path24" />
    <path
       class="st1"
       d="m 750.98,419.29 c -0.2,-0.46 -0.56,-0.66 -1.06,-0.66 h -1.47 c -0.51,0 -0.86,0.2 -1.01,0.66 L 733.12,453 c -0.25,0.61 0,1.06 0.66,1.06 h 1.57 c 0.51,0 0.86,-0.2 1.06,-0.71 l 3.34,-8.05 h 18.88 l 3.34,8.05 c 0.2,0.51 0.61,0.71 1.06,0.71 h 1.57 c 0.66,0 0.91,-0.46 0.66,-1.06 l -14.27,-33.71 z m -9.97,23.03 8.15,-19.49 h 0.1 l 8.1,19.49 z"
       id="path25" />
    <path
       class="st1"
       d="m 820.12,453.15 v -33.61 c 0,-0.56 -0.35,-0.91 -0.91,-0.91 h -1.72 c -0.46,0 -0.81,0.15 -1.06,0.61 l -14.27,22.32 h -0.1 l -14.27,-22.32 c -0.25,-0.46 -0.61,-0.61 -1.06,-0.61 h -1.72 c -0.56,0 -0.91,0.35 -0.91,0.91 v 33.61 c 0,0.56 0.35,0.91 0.91,0.91 h 1.52 c 0.56,0 0.91,-0.35 0.91,-0.91 v -28.7 h 0.05 l 12.91,20.15 c 0.25,0.46 0.61,0.61 1.11,0.61 h 1.27 c 0.46,0 0.81,-0.15 1.06,-0.61 l 12.96,-20.15 h 0.05 v 28.7 c 0,0.56 0.3,0.91 0.86,0.91 h 1.52 c 0.56,0 0.91,-0.35 0.91,-0.91 z"
       id="path26" />
    <path
       class="st1"
       d="m 856.46,418.63 h -1.52 c -0.56,0 -0.86,0.35 -0.86,0.91 v 19.94 c 0,7.9 -4.05,11.84 -10.53,11.84 -6.48,0 -10.53,-3.95 -10.53,-11.84 v -19.94 c 0,-0.56 -0.35,-0.91 -0.91,-0.91 h -1.52 c -0.56,0 -0.86,0.35 -0.86,0.91 v 20.35 c 0,9.36 5.42,14.63 13.82,14.63 8.4,0 13.82,-5.26 13.82,-14.63 v -20.35 c 0,-0.56 -0.35,-0.91 -0.91,-0.91 z"
       id="path27" />
    <path
       class="st1"
       d="m 867.85,454.06 h 1.52 c 0.56,0 0.91,-0.35 0.91,-0.91 V 424.1 h 0.05 l 21.97,29.41 c 0.3,0.4 0.61,0.56 1.06,0.56 h 1.62 c 0.61,0 0.91,-0.35 0.91,-0.91 v -33.61 c 0,-0.56 -0.3,-0.91 -0.91,-0.91 h -1.47 c -0.56,0 -0.91,0.35 -0.91,0.91 v 29.1 h -0.05 l -22.02,-29.46 c -0.3,-0.4 -0.66,-0.56 -1.11,-0.56 h -1.57 c -0.56,0 -0.91,0.35 -0.91,0.91 v 33.61 c 0,0.56 0.35,0.91 0.91,0.91 z"
       id="path28" />
    <rect
       class="st1"
       x="906.01001"
       y="418.63"
       width="3.3399999"
       height="35.43"
       rx="0.91000003"
       ry="0.91000003"
       id="rect28" />
    <path
       class="st1"
       d="m 935.67,421.31 c 6.28,0 11.14,3.34 12.76,8.91 0.15,0.51 0.51,0.81 1.01,0.81 h 1.67 c 0.61,0 0.96,-0.4 0.76,-1.01 -2.02,-7.49 -8.45,-11.84 -16.2,-11.84 -10.58,0 -18.07,8 -18.07,18.17 0,10.17 7.49,18.17 18.07,18.17 7.74,0 14.17,-4.3 16.2,-11.79 0.2,-0.61 -0.15,-1.06 -0.76,-1.06 h -1.67 c -0.51,0 -0.86,0.3 -1.01,0.81 -1.62,5.57 -6.48,8.91 -12.76,8.91 -8.6,0 -14.63,-6.28 -14.63,-15.03 0,-8.75 6.02,-15.03 14.63,-15.03 z"
       id="path29" />
    <rect
       class="st1"
       x="960.37"
       y="418.63"
       width="3.3399999"
       height="35.43"
       rx="0.91000003"
       ry="0.91000003"
       id="rect29" />
    <path
       class="st1"
       d="m 974.75,454.06 h 1.52 c 0.56,0 0.91,-0.35 0.91,-0.91 v -11.79 h 10.07 c 8.05,0 12.55,-4.25 12.55,-11.39 0,-7.14 -4.51,-11.34 -12.55,-11.34 h -12.5 c -0.56,0 -0.91,0.35 -0.91,0.91 v 33.61 c 0,0.56 0.35,0.91 0.91,0.91 z m 2.43,-32.4 h 9.72 c 6.43,0 9.47,2.83 9.47,8.3 0,5.47 -3.04,8.3 -9.47,8.3 h -9.72 z"
       id="path30" />
    <path
       class="st1"
       d="m 1000.56,454.06 h 1.57 c 0.51,0 0.86,-0.2 1.06,-0.71 l 3.34,-8.05 h 18.88 l 3.34,8.05 c 0.2,0.51 0.61,0.71 1.06,0.71 h 1.57 c 0.66,0 0.91,-0.46 0.66,-1.06 l -14.27,-33.71 c -0.2,-0.46 -0.56,-0.66 -1.06,-0.66 h -1.47 c -0.51,0 -0.86,0.2 -1.01,0.66 L 999.91,453 c -0.25,0.61 0,1.06 0.66,1.06 z m 15.39,-31.23 h 0.1 l 8.1,19.49 h -16.35 z"
       id="path31" />
    <path
       class="st1"
       d="m 1039.48,454.06 h 20.45 c 0.61,0 0.91,-0.35 0.91,-0.91 v -1.32 c 0,-0.56 -0.3,-0.86 -0.91,-0.86 h -18.02 v -31.43 c 0,-0.56 -0.35,-0.91 -0.91,-0.91 h -1.52 c -0.56,0 -0.91,0.35 -0.91,0.91 v 33.61 c 0,0.56 0.35,0.91 0.91,0.91 z"
       id="path32" />
    <path
       class="st1"
       d="m 1081.44,454.06 h 9.16 c 11.14,0 18.63,-7.39 18.63,-17.72 0,-10.33 -7.49,-17.72 -18.63,-17.72 h -9.16 c -0.56,0 -0.91,0.35 -0.91,0.91 v 33.61 c 0,0.56 0.35,0.91 0.91,0.91 z m 2.43,-32.34 h 6.63 c 9.57,0 15.29,5.92 15.29,14.63 0,8.71 -5.72,14.63 -15.29,14.63 h -6.63 z"
       id="path33" />
    <path
       class="st1"
       d="m 1118.39,454.06 h 21.87 c 0.61,0 0.91,-0.35 0.91,-0.91 v -1.27 c 0,-0.56 -0.3,-0.86 -0.91,-0.86 h -19.44 v -13.16 h 15.54 c 0.56,0 0.91,-0.3 0.91,-0.86 v -1.32 c 0,-0.56 -0.35,-0.86 -0.91,-0.86 h -15.54 v -13.16 h 19.28 c 0.56,0 0.91,-0.3 0.91,-0.86 v -1.27 c 0,-0.56 -0.35,-0.91 -0.91,-0.91 h -21.71 c -0.56,0 -0.91,0.35 -0.91,0.91 v 33.61 c 0,0.56 0.35,0.91 0.91,0.91 z"
       id="path34" />
  </g>
  <path
     class="st1"
     d="m 330.25,373.75 c -0.26,-0.07 -0.41,0.04 -0.62,0.13 -1.24,0.51 -3.62,2.56 -4.92,3.41 -52.8,34.41 -118.84,32.61 -170.22,-3.68 -0.54,-0.38 -3.37,-2.81 -3.75,-2.58 l -3.17,18.82 -17.03,7.24 c -0.14,0.07 -0.48,0.02 -0.36,0.32 0.12,0.3 4.61,3.57 5.28,4.06 62.09,45.14 146.07,46.14 209.31,2.91 0.9,-0.96 3.01,-1.79 3.74,-2.81 0.09,-0.12 0.22,-0.29 0,-0.35 l -17.39,-9.84 -0.88,-17.61 z"
     id="path35" />
  <path
     class="st1"
     d="m 242.12,436.36 c -37.6,0 -75.13,-11.57 -106.85,-34.63 -5.23,-3.8 -5.34,-4.08 -5.4,-4.21 -0.09,-0.22 -0.05,-0.38 0,-0.47 0.11,-0.21 0.34,-0.25 0.47,-0.28 l 16.92,-7.18 3.16,-18.79 0.14,-0.08 c 0.37,-0.22 0.92,0.05 3.44,2.06 0.31,0.25 0.56,0.45 0.68,0.54 25.22,17.81 54.4,27.6 84.39,28.29 30.13,0.7 59.67,-7.81 85.45,-24.62 0.46,-0.3 1.07,-0.76 1.72,-1.25 1.19,-0.91 2.43,-1.84 3.26,-2.19 l 0.09,-0.04 c 0.18,-0.08 0.42,-0.19 0.75,-0.1 l 0.24,0.07 0.89,17.67 17.23,9.75 c 0.16,0.04 0.24,0.19 0.27,0.27 0.08,0.24 -0.07,0.45 -0.15,0.57 -0.45,0.63 -1.29,1.15 -2.1,1.65 -0.64,0.39 -1.29,0.8 -1.67,1.21 -31.01,21.2 -66.99,31.77 -102.91,31.77 z M 130.66,397.4 c 0.56,0.48 2.47,1.93 5.01,3.78 61.79,44.92 145.75,46.08 208.92,2.9 0.38,-0.42 1.08,-0.86 1.76,-1.27 0.73,-0.45 1.49,-0.92 1.86,-1.41 l -17.41,-9.84 -0.88,-17.45 c 0,0 -0.03,0.01 -0.05,0.02 l -0.12,0.05 c -0.75,0.31 -2,1.26 -3.11,2.1 -0.66,0.5 -1.27,0.97 -1.76,1.28 -25.9,16.88 -55.56,25.44 -85.84,24.73 -30.13,-0.7 -59.44,-10.53 -84.77,-28.42 -0.13,-0.09 -0.39,-0.3 -0.72,-0.56 -0.57,-0.45 -1.95,-1.56 -2.56,-1.88 l -3.14,18.65 -17.2,7.31 h -0.02 z m 217.73,4.1 c 0,0 0.03,0.02 0.03,0.02 z"
     id="path36" />
  <path
     class="st1"
     d="m 242.14,439.39 c -38.23,0 -76.4,-11.76 -108.65,-35.21 -5.92,-4.3 -6.01,-4.53 -6.41,-5.5 -0.42,-1.01 -0.37,-2.13 0.14,-3.07 0.28,-0.51 0.93,-1.38 2.25,-1.74 l 15.09,-6.42 2.86,-17.01 c 0.16,-0.97 0.75,-1.82 1.59,-2.33 2.3,-1.37 4.22,0.17 6.88,2.3 0.24,0.19 0.44,0.35 0.55,0.44 24.71,17.45 53.32,27.05 82.7,27.73 29.51,0.69 58.46,-7.66 83.73,-24.13 0.37,-0.24 0.97,-0.69 1.54,-1.13 1.65,-1.25 2.82,-2.11 3.93,-2.57 0.35,-0.16 1.41,-0.64 2.8,-0.26 1.4,0.38 2.4,1.62 2.47,3.08 l 0.79,15.76 15.65,8.85 c 0.83,0.41 1.47,1.12 1.77,1.99 0.22,0.64 0.44,1.92 -0.55,3.31 -0.8,1.12 -1.96,1.83 -2.97,2.47 -0.36,0.22 -0.91,0.56 -1.07,0.72 -0.17,0.18 -0.34,0.33 -0.55,0.47 -31.48,21.52 -68.04,32.25 -104.54,32.25 z m -105.5,-41.25 c 0.26,0.19 0.53,0.39 0.81,0.59 60.68,44.11 143.1,45.31 205.19,3.02 0,0 0,0 0.01,-0.01 l -13.18,-7.45 c -1,-0.57 -1.65,-1.61 -1.7,-2.76 l -0.6,-11.86 c -0.22,0.16 -0.43,0.3 -0.63,0.43 -25.4,16.56 -54.39,25.26 -84.04,25.26 -1.17,0 -2.35,-0.01 -3.52,-0.04 -30.48,-0.71 -60.13,-10.57 -85.81,-28.52 l -2.29,13.6 c -0.19,1.13 -0.94,2.09 -2,2.54 l -12.25,5.21 z m -7.54,-4.1 z m 0.01,-0.01 z"
     id="path37" />
  <path
     class="st1"
     d="m 242.14,439.73 c -39.46,0 -77.1,-12.2 -108.85,-35.28 -6,-4.36 -6.1,-4.61 -6.53,-5.64 -0.46,-1.11 -0.4,-2.33 0.16,-3.36 0.29,-0.54 1.01,-1.51 2.46,-1.9 l 14.87,-6.33 2.83,-16.82 c 0.18,-1.07 0.82,-2.01 1.75,-2.57 2.5,-1.49 4.6,0.19 7.27,2.33 l 0.17,0.13 c 0.16,0.13 0.29,0.23 0.37,0.29 24.66,17.42 53.19,26.98 82.51,27.66 29.43,0.69 58.32,-7.64 83.53,-24.07 0.37,-0.24 1.01,-0.73 1.52,-1.11 1.67,-1.27 2.86,-2.14 4.01,-2.61 0.37,-0.17 1.51,-0.69 3.02,-0.27 1.55,0.42 2.64,1.79 2.72,3.39 l 0.78,15.57 15.48,8.76 c 0.89,0.44 1.6,1.24 1.92,2.18 0.24,0.7 0.49,2.11 -0.59,3.62 -0.84,1.18 -2.03,1.91 -3.07,2.56 -0.33,0.2 -0.89,0.55 -1.02,0.67 -0.17,0.18 -0.36,0.34 -0.59,0.5 -30.92,21.13 -67.13,32.31 -104.73,32.31 v 0 z M 129.22,394.32 c -0.99,0.38 -1.48,1.06 -1.7,1.46 -0.46,0.84 -0.5,1.85 -0.13,2.77 0.36,0.87 0.46,1.1 6.3,5.35 31.63,22.99 69.13,35.15 108.44,35.15 v 0 c 37.46,0 73.54,-11.13 104.34,-32.19 0.19,-0.13 0.34,-0.26 0.49,-0.42 0.18,-0.17 0.61,-0.45 1.12,-0.76 1.02,-0.63 2.14,-1.33 2.9,-2.39 0.9,-1.26 0.7,-2.42 0.5,-3 -0.27,-0.77 -0.85,-1.43 -1.6,-1.8 l -15.83,-8.95 -0.8,-15.95 c -0.07,-1.31 -0.96,-2.42 -2.22,-2.76 -1.27,-0.35 -2.24,0.1 -2.56,0.24 -1.08,0.45 -2.23,1.29 -3.86,2.53 -0.55,0.42 -1.17,0.89 -1.56,1.14 -25.33,16.51 -54.34,24.88 -83.92,24.18 -29.46,-0.68 -58.12,-10.29 -82.89,-27.79 -0.09,-0.07 -0.23,-0.18 -0.4,-0.31 l -0.17,-0.13 c -2.65,-2.12 -4.39,-3.52 -6.49,-2.27 -0.76,0.46 -1.28,1.22 -1.43,2.09 l -2.89,17.19 -15.26,6.49 c -0.11,0.03 -0.22,0.07 -0.33,0.1 l 0.02,0.02 -0.06,0.03 -0.02,-0.03 z m 112.9,38.67 c -36.91,0 -73.76,-11.35 -104.87,-33.98 l -1.3,-0.95 12.8,-5.44 c 0.95,-0.41 1.63,-1.26 1.8,-2.28 l 2.38,-14.14 0.44,0.31 c 25.62,17.92 55.23,27.76 85.62,28.46 30.77,0.72 61.07,-8.02 87.36,-25.16 0.2,-0.13 0.4,-0.27 0.62,-0.42 l 0.51,-0.37 0.63,12.49 c 0.05,1.04 0.62,1.97 1.53,2.48 l 13.57,7.67 -0.32,0.32 c -30.38,20.7 -65.61,31.01 -100.77,31.01 z m -104.79,-34.77 0.32,0.24 c 60.39,43.9 142.44,45.2 204.36,3.31 l -12.7,-7.18 c -1.11,-0.63 -1.81,-1.77 -1.88,-3.04 l -0.56,-11.24 c 0,0 -0.09,0.06 -0.13,0.09 -26.41,17.22 -56.87,25.99 -87.75,25.27 -30.35,-0.7 -59.92,-10.48 -85.55,-28.28 l -2.2,13.07 c -0.21,1.25 -1.04,2.3 -2.21,2.8 l -11.7,4.97 z"
     id="path38" />
  <path
     class="st41"
     d="m 92.24,368.53 c 7.52,11.19 23.71,18.75 35.36,9.46 -9.06,-8.94 -23.17,-14.68 -35.36,-9.46 z"
     id="path39" />
  <path
     class="st41"
     d="m 131.47,340.95 c -10.31,7.52 -9.86,25.19 -0.53,33.24 7.04,-9.45 5.56,-23.13 0.53,-33.24 z"
     id="path40" />
  <path
     class="st41"
     d="M 70.9,332.03 C 76.84,344 90.36,355.96 103.82,348.59 96.15,338.21 84.21,329.21 70.9,332.03 Z"
     id="path41" />
  <path
     class="st41"
     d="m 106.77,346.22 c 1.21,1 4.09,-3.26 4.69,-4.15 5.51,-8.04 6.68,-18.62 3.83,-27.94 -12.49,4.96 -13.45,20.89 -8.53,32.09 z"
     id="path42" />
  <path
     class="st41"
     d="m 60.21,293.2 c 1.84,12.53 13.45,24.74 26.33,22.36 C 82.38,304.2 72.49,293.96 60.21,293.2 Z"
     id="path43" />
  <path
     class="st41"
     d="m 90.16,313.59 c 7.85,-3.11 12.71,-13.05 13.64,-21.34 0.14,-1.28 0.75,-6.72 -0.71,-6.88 -11.96,4.54 -14.98,16.09 -12.93,28.22 z"
     id="path44" />
  <path
     class="st41"
     d="m 56.85,254.67 c 0.87,13.09 7.78,26.4 21.89,27.19 -1.82,-11.87 -9.82,-24.74 -21.89,-27.19 z"
     id="path45" />
  <path
     class="st41"
     d="m 83.02,280.64 c 8.22,-1.62 14.39,-9.7 16.93,-17.59 0.43,-1.34 2.47,-7.23 0.77,-7.48 -12.02,2.36 -18.36,12.79 -17.7,25.07 z"
     id="path46" />
  <path
     class="st41"
     d="m 63.74,220.28 c -2.11,9.69 1.76,19.91 11.02,23.67 0.7,-8.68 -2.52,-20.38 -11.02,-23.67 z"
     id="path47" />
  <path
     class="st41"
     d="m 81.75,244.7 c 8.49,-1.63 15.01,-7 17.77,-15.54 -9,-0.78 -17.21,6.16 -17.77,15.54 z"
     id="path48" />
  <path
     class="st41"
     d="m 74.21,196.34 c -1.9,6.4 0.11,15.92 6.84,18.44 0.52,-6.3 -0.68,-15.41 -6.84,-18.44 z"
     id="path49" />
  <path
     class="st41"
     d="m 85.9,216.48 c 6.09,-0.78 12.92,-4.26 14.55,-10.79 -6.78,-0.33 -12.73,4.08 -14.55,10.79 z"
     id="path50" />
  <path
     class="st35"
     d="m 117.67,308.47 c -12.84,3.13 -19.36,16.65 -17.55,29.44 -9.42,-7.55 -22.38,-14.7 -34.02,-7.91 17.18,44.99 67.09,23.08 51.57,-21.53 z m -2.37,5.66 c 2.84,9.32 1.68,19.89 -3.83,27.94 -0.61,0.88 -3.48,5.15 -4.69,4.15 -4.93,-11.2 -3.96,-27.12 8.53,-32.09 z m -44.4,17.9 c 13.3,-2.82 25.25,6.18 32.92,16.56 C 90.36,355.95 76.84,344 70.9,332.03 Z"
     id="path51" />
  <path
     class="st13"
     d="m 94.86,355.26 c -10.74,0 -22.42,-7.21 -29.24,-25.07 -0.09,-0.24 0,-0.5 0.22,-0.63 9.25,-5.4 20.56,-2.98 33.62,7.18 -1.15,-11.76 4.64,-25.49 18.09,-28.77 0.26,-0.06 0.52,0.08 0.61,0.33 8.11,23.31 -1.43,40.53 -15.05,45.5 -2.61,0.95 -5.4,1.46 -8.25,1.46 z M 66.74,330.23 c 8.42,21.61 24.13,26.94 36.02,22.6 13.06,-4.76 22.2,-21.3 14.58,-43.75 -9.79,2.65 -18.87,13.49 -16.71,28.75 0.03,0.21 -0.07,0.41 -0.25,0.52 -0.18,0.11 -0.41,0.09 -0.58,-0.05 -12.93,-10.37 -24.05,-13.09 -33.06,-8.08 z m 28.55,21.15 c -1.87,0 -3.76,-0.3 -5.67,-0.9 -8.85,-2.78 -15.71,-11.24 -19.17,-18.21 -0.07,-0.14 -0.07,-0.31 0,-0.45 0.07,-0.14 0.2,-0.25 0.36,-0.28 5.47,-1.16 19.68,-1.85 33.44,16.76 0.09,0.12 0.12,0.27 0.09,0.42 -0.03,0.14 -0.12,0.27 -0.25,0.34 -2.84,1.55 -5.78,2.33 -8.78,2.33 z M 71.67,332.41 c 3.46,6.67 9.96,14.48 18.26,17.09 4.52,1.42 8.93,1.06 13.12,-1.08 C 90.29,331.48 77.31,331.41 71.67,332.41 Z m 35.53,14.47 c -0.28,0 -0.54,-0.09 -0.75,-0.27 -0.06,-0.05 -0.11,-0.12 -0.14,-0.19 -3.33,-7.58 -3.73,-16.36 -1.05,-22.91 1.9,-4.65 5.31,-8.06 9.85,-9.86 0.13,-0.05 0.28,-0.05 0.41,0.01 0.13,0.06 0.23,0.18 0.27,0.31 3,9.83 1.54,20.44 -3.9,28.38 -2.01,2.94 -3.43,4.36 -4.5,4.51 -0.07,0 -0.13,0.01 -0.19,0.01 z m -0.03,-1.03 c 0,0 0.04,0 0.08,0 0.34,-0.05 1.37,-0.53 3.75,-4.01 5.21,-7.6 6.66,-17.63 3.97,-27.02 -4.07,1.76 -7.01,4.81 -8.76,9.08 -2.57,6.26 -2.19,14.66 0.97,21.95 z"
     id="path52" />
  <path
     class="st35"
     d="m 132.11,335.21 c -11.14,6.99 -14.57,20.24 -10.33,32.7 -10.94,-5.21 -24.99,-9.07 -35.04,-0.05 26.52,40.59 71.41,6.61 45.38,-32.65 z m -39.87,33.32 c 12.19,-5.22 26.3,0.52 35.36,9.46 -11.66,9.29 -27.85,1.73 -35.36,-9.46 z m 38.7,5.66 c -9.33,-8.05 -9.78,-25.72 0.53,-33.24 5.03,10.11 6.51,23.79 -0.53,33.24 z"
     id="path53" />
  <path
     class="st13"
     d="m 114.89,386.71 c -6.73,0 -18.25,-2.74 -28.59,-18.56 -0.14,-0.21 -0.1,-0.49 0.09,-0.66 8.02,-7.2 19.63,-7.37 34.54,-0.53 -3.94,-12.96 0.27,-25.49 10.91,-32.17 0.23,-0.15 0.55,-0.08 0.7,0.15 8.54,12.87 10.29,26.53 4.81,37.48 -4.21,8.41 -12.09,13.75 -21.06,14.26 -0.44,0.03 -0.9,0.04 -1.39,0.04 z M 87.4,367.95 c 10.74,16.2 22.65,18.03 28.82,17.69 8.61,-0.49 16.16,-5.61 20.2,-13.7 5.25,-10.49 3.61,-23.59 -4.47,-36.03 -10.21,6.68 -14.02,19.11 -9.7,31.83 0.07,0.2 0,0.41 -0.15,0.55 -0.15,0.14 -0.38,0.17 -0.56,0.08 -14.8,-7.05 -26.28,-7.19 -34.15,-0.42 z m 28.27,14.73 c -1.11,0 -2.24,-0.09 -3.39,-0.27 -7.8,-1.2 -15.63,-6.41 -20.46,-13.6 -0.09,-0.13 -0.11,-0.29 -0.07,-0.43 0.04,-0.14 0.15,-0.27 0.29,-0.33 12.64,-5.41 27.15,0.91 35.93,9.57 0.1,0.1 0.16,0.25 0.15,0.39 -0.01,0.14 -0.08,0.28 -0.19,0.37 -3.55,2.83 -7.74,4.29 -12.26,4.29 z M 93.03,368.76 c 4.69,6.68 12.07,11.5 19.41,12.63 5.32,0.82 10.28,-0.37 14.39,-3.45 -8.43,-8.08 -21.93,-13.89 -33.8,-9.18 z m 37.91,5.95 c -0.12,0 -0.24,-0.04 -0.33,-0.12 -4.77,-4.11 -7.54,-11.08 -7.25,-18.2 0.27,-6.65 3.12,-12.42 7.82,-15.85 0.12,-0.09 0.28,-0.12 0.42,-0.08 0.15,0.04 0.27,0.13 0.34,0.27 4.54,9.12 7.12,23.44 -0.58,33.77 -0.09,0.11 -0.21,0.19 -0.36,0.2 -0.02,0 -0.04,0 -0.06,0 z m 0.34,-32.97 c -4.15,3.28 -6.66,8.59 -6.91,14.69 -0.27,6.59 2.2,13.05 6.48,17 6.86,-9.71 4.6,-22.95 0.42,-31.69 z"
     id="path54" />
  <path
     class="st35"
     d="m 77.07,319.22 c 21.62,4.44 34.21,-19.37 30.1,-38.71 -12.13,1.03 -21.49,11.71 -21.52,24.17 -7.5,-9.59 -17.41,-17.68 -30.15,-14.55 0.48,11.27 10.48,26.81 21.57,29.09 z m 26.02,-33.85 c 1.46,0.16 0.85,5.61 0.71,6.88 -0.93,8.29 -5.78,18.23 -13.64,21.34 -2.05,-12.13 0.97,-23.68 12.93,-28.22 z m -16.54,30.19 c -12.88,2.38 -24.5,-9.83 -26.33,-22.36 12.28,0.76 22.17,11 26.33,22.36 z"
     id="path55" />
  <path
     class="st13"
     d="m 82.31,320.28 c -1.67,0 -3.45,-0.17 -5.33,-0.56 -11.26,-2.31 -21.5,-18.19 -21.98,-29.57 -0.01,-0.24 0.15,-0.46 0.39,-0.52 10.49,-2.59 20.25,1.88 29.8,13.63 0.71,-12.17 10.1,-22.26 21.95,-23.27 0.28,-0.02 0.49,0.15 0.54,0.41 2.5,11.76 -1.07,24.94 -8.88,32.81 -3.4,3.42 -8.83,7.08 -16.49,7.08 z M 56.04,290.53 c 0.7,10.98 10.45,25.99 21.14,28.19 v 0 c 10.09,2.07 16.93,-2.24 20.89,-6.23 7.48,-7.53 10.94,-20.1 8.69,-31.42 -11.56,1.22 -20.57,11.51 -20.6,23.62 0,0.22 -0.14,0.41 -0.35,0.48 -0.21,0.07 -0.44,0 -0.57,-0.17 -9.43,-12.06 -18.99,-16.79 -29.21,-14.46 z m 27.22,25.85 c -4.12,0 -8.2,-1.38 -11.98,-4.08 -6.06,-4.34 -10.5,-11.62 -11.58,-19.01 -0.02,-0.15 0.03,-0.31 0.13,-0.42 0.11,-0.11 0.28,-0.16 0.41,-0.17 13.05,0.81 22.86,11.98 26.79,22.69 0.05,0.14 0.04,0.3 -0.04,0.43 -0.08,0.13 -0.2,0.22 -0.35,0.25 -1.12,0.21 -2.25,0.31 -3.38,0.31 z M 60.82,293.76 c 1.2,6.91 5.39,13.64 11.06,17.69 4.39,3.14 9.2,4.41 13.96,3.7 -3.88,-10.04 -12.99,-20.31 -25.02,-21.39 z m 29.34,20.34 c -0.09,0 -0.17,-0.02 -0.25,-0.07 -0.13,-0.08 -0.23,-0.21 -0.25,-0.36 -2.39,-14.19 2.44,-24.68 13.25,-28.79 0.08,-0.03 0.16,-0.04 0.24,-0.03 0.3,0.03 0.57,0.19 0.77,0.45 0.69,0.87 0.82,3.16 0.39,7 -0.92,8.18 -5.68,18.49 -13.96,21.76 -0.06,0.02 -0.12,0.04 -0.19,0.04 z m 12.93,-28.19 c -6,2.33 -15.33,8.91 -12.53,26.95 7.52,-3.37 11.86,-12.98 12.73,-20.67 0.53,-4.78 0.06,-5.96 -0.17,-6.25 0,-0.01 -0.02,-0.02 -0.02,-0.03 z"
     id="path56" />
  <path
     class="st35"
     d="m 68.64,283.34 c 19.57,9.7 38.42,-12.36 36.83,-31.87 -12.37,-0.32 -22.08,6.56 -25.49,18.9 -4.99,-8.06 -9.85,-15.98 -19.33,-18.89 -1.71,-0.53 -6.39,-2.13 -7.53,-0.63 -0.69,12.29 4.11,26.84 15.52,32.5 z m 32.08,-27.77 c 1.71,0.25 -0.33,6.14 -0.77,7.48 -2.55,7.89 -8.72,15.98 -16.93,17.59 -0.66,-12.28 5.68,-22.71 17.7,-25.07 z m -21.98,26.29 c -14.11,-0.79 -21.02,-14.1 -21.89,-27.19 12.07,2.45 20.06,15.31 21.89,27.19 z"
     id="path57" />
  <path
     class="st13"
     d="m 78.37,286.21 c -3.35,0 -6.7,-0.8 -9.95,-2.41 v 0 C 56.56,277.92 51.94,263 52.62,250.81 c 0,-0.1 0.04,-0.2 0.11,-0.28 1.12,-1.47 4.36,-0.71 7.69,0.33 l 0.4,0.12 c 9.27,2.84 14.29,10.52 19.01,18.13 3.69,-11.72 13.2,-18.5 25.67,-18.16 0.26,0 0.48,0.21 0.5,0.47 0.94,11.52 -5.09,24.1 -14.65,30.59 -4.12,2.79 -8.53,4.2 -12.96,4.2 z m -9.5,-3.33 c 7.21,3.57 14.98,2.96 21.88,-1.72 9.15,-6.21 14.96,-18.15 14.24,-29.19 -0.12,0 -0.23,0 -0.35,0 -11.95,0 -20.95,6.88 -24.17,18.53 -0.05,0.2 -0.22,0.34 -0.42,0.37 -0.2,0.03 -0.4,-0.06 -0.51,-0.24 l -0.07,-0.11 c -5,-8.08 -9.72,-15.72 -18.97,-18.55 l -0.41,-0.13 c -1.37,-0.43 -5.44,-1.7 -6.47,-0.79 -0.6,11.81 3.87,26.18 15.25,31.83 z m 9.87,-0.51 c 0,0 -0.02,0 -0.03,0 -6.65,-0.37 -12.28,-3.55 -16.3,-9.2 -3.45,-4.85 -5.6,-11.41 -6.07,-18.47 0,-0.16 0.05,-0.32 0.17,-0.42 0.12,-0.1 0.28,-0.15 0.44,-0.12 8.97,1.82 19.78,11.24 22.29,27.61 0.02,0.15 -0.02,0.31 -0.13,0.42 -0.1,0.11 -0.24,0.17 -0.38,0.17 z M 57.42,255.33 c 0.96,11.49 6.91,24.82 20.71,25.98 C 75.58,266.22 65.8,257.38 57.42,255.33 Z m 25.6,25.83 c -0.11,0 -0.22,-0.04 -0.32,-0.11 -0.12,-0.09 -0.19,-0.23 -0.2,-0.38 -0.71,-13.25 6.4,-23.3 18.11,-25.6 0.06,-0.01 0.11,-0.01 0.17,0 0.35,0.05 0.63,0.24 0.82,0.54 0.76,1.22 -0.12,4.39 -1.08,7.32 l -0.09,0.28 c -2.31,7.16 -8.23,16.15 -17.32,17.94 -0.03,0 -0.07,0 -0.1,0 z M 100.7,256.1 c -10.94,2.21 -17.63,11.55 -17.19,23.91 8.32,-1.97 13.79,-10.39 15.96,-17.12 l 0.09,-0.28 c 1.48,-4.53 1.46,-6.01 1.18,-6.46 -0.02,-0.03 -0.03,-0.04 -0.04,-0.05 z"
     id="path58" />
  <path
     class="st35"
     d="m 104.03,226.03 c -10.21,-3.71 -21.11,2.35 -24.85,12.58 -2.3,-10.27 -6.67,-22.34 -18.35,-23.64 -11.16,36.83 36.28,47.24 43.2,11.05 z m -4.51,3.13 c -2.75,8.54 -9.28,13.92 -17.77,15.54 0.56,-9.38 8.76,-16.32 17.77,-15.54 z m -35.78,-8.88 c 8.5,3.3 11.71,15 11.02,23.67 -9.26,-3.76 -13.13,-13.99 -11.02,-23.67 z"
     id="path59" />
  <path
     class="st13"
     d="m 80.59,249 c -5.7,0 -11.22,-2.2 -15.35,-6.3 -6.52,-6.48 -8.31,-16.64 -4.9,-27.86 0.07,-0.24 0.29,-0.39 0.55,-0.36 11.68,1.29 16.15,13.01 18.43,22.46 4.42,-9.81 15.25,-14.88 24.89,-11.38 0.24,0.09 0.38,0.33 0.33,0.58 -2.13,11.15 -8.45,19.12 -17.34,21.87 -2.18,0.67 -4.4,1 -6.6,1 z M 61.2,215.54 c -4.28,14.59 1.14,22.81 4.77,26.42 5.45,5.42 13.47,7.35 20.92,5.05 8.4,-2.59 14.41,-10.11 16.55,-20.65 -9.48,-3.18 -20.08,2.31 -23.77,12.42 -0.08,0.21 -0.3,0.33 -0.52,0.34 -0.23,-0.02 -0.42,-0.18 -0.47,-0.4 -2.07,-9.24 -6.12,-21.64 -17.48,-23.19 z m 20.55,29.67 c -0.12,0 -0.24,-0.04 -0.34,-0.13 -0.12,-0.1 -0.18,-0.26 -0.17,-0.42 0.28,-4.66 2.38,-8.9 5.91,-11.95 3.49,-3.02 7.9,-4.46 12.42,-4.07 0.16,0.01 0.3,0.1 0.38,0.23 0.09,0.13 0.11,0.29 0.06,0.44 -2.75,8.53 -9.2,14.17 -18.16,15.89 -0.03,0 -0.06,0 -0.1,0 z m 16.36,-15.6 c -3.75,0 -7.37,1.35 -10.3,3.88 -3.15,2.72 -5.09,6.45 -5.5,10.57 8.01,-1.74 13.83,-6.84 16.5,-14.43 -0.24,-0.01 -0.47,-0.02 -0.7,-0.02 z m -23.35,14.86 c -0.07,0 -0.13,-0.01 -0.19,-0.04 -8.99,-3.65 -13.64,-13.62 -11.32,-24.26 0.03,-0.15 0.13,-0.27 0.26,-0.34 0.13,-0.07 0.29,-0.08 0.43,-0.03 6.4,2.49 12.36,11.59 11.34,24.19 -0.01,0.16 -0.1,0.31 -0.24,0.4 -0.08,0.05 -0.18,0.08 -0.27,0.08 z M 64.12,221 c -1.86,9.65 2.26,18.61 10.18,22.2 0.47,-8.59 -2.87,-18.92 -10.18,-22.2 z"
     id="path60" />
  <path
     class="st35"
     d="m 106.2,203.1 c -5.65,-1.58 -11.4,-2.1 -16.46,1.41 l -4.9,4.68 c -0.34,-8.31 -4.9,-16.76 -13.16,-18.78 -11.25,30.32 25.03,42.24 34.52,12.69 z m -5.75,2.59 c -1.63,6.53 -8.46,10.01 -14.55,10.79 1.82,-6.71 7.77,-11.12 14.55,-10.79 z m -26.24,-9.35 c 6.16,3.03 7.36,12.14 6.84,18.44 -6.74,-2.52 -8.74,-12.03 -6.84,-18.44 z"
     id="path61" />
  <path
     class="st13"
     d="m 86.69,220.64 c -5,0 -9.82,-2.16 -13.12,-6.03 -5.06,-5.92 -5.92,-14.81 -2.37,-24.38 0.09,-0.24 0.35,-0.38 0.6,-0.32 8.49,2.07 12.81,10.42 13.48,18.14 l 4.1,-3.92 c 5.72,-3.96 12.06,-2.9 16.95,-1.53 0.13,0.04 0.25,0.13 0.31,0.25 0.07,0.12 0.08,0.27 0.04,0.4 -2.99,9.32 -9.03,15.53 -16.58,17.04 -1.14,0.23 -2.28,0.34 -3.41,0.34 z M 72.01,191.03 c -3.23,9.04 -2.39,17.38 2.35,22.92 3.81,4.46 9.77,6.51 15.55,5.35 7.04,-1.41 12.72,-7.18 15.64,-15.84 -4.6,-1.23 -10.4,-2.06 -15.51,1.48 l -4.83,4.63 c -0.14,0.14 -0.36,0.18 -0.55,0.1 -0.19,-0.08 -0.31,-0.25 -0.32,-0.46 -0.31,-7.5 -4.24,-15.94 -12.32,-18.18 z M 85.9,217 c -0.15,0 -0.29,-0.06 -0.39,-0.18 -0.11,-0.13 -0.15,-0.31 -0.11,-0.47 1.88,-6.92 8.08,-11.51 15.07,-11.17 0.15,0 0.3,0.08 0.39,0.21 0.09,0.13 0.12,0.28 0.09,0.43 -1.76,7.06 -9.17,10.43 -14.98,11.18 -0.02,0 -0.04,0 -0.07,0 z m 13.86,-10.82 c -5.98,0 -11.22,3.87 -13.13,9.67 5.17,-0.86 11.34,-3.84 13.16,-9.67 h -0.02 z m -18.7,9.11 c -0.06,0 -0.12,-0.01 -0.18,-0.03 -6.8,-2.54 -9.23,-12.08 -7.16,-19.06 0.04,-0.15 0.15,-0.26 0.29,-0.32 0.14,-0.06 0.3,-0.06 0.43,0 6.15,3.02 7.72,11.76 7.13,18.94 -0.01,0.16 -0.1,0.31 -0.24,0.39 -0.08,0.05 -0.18,0.08 -0.28,0.08 z M 74.53,197.1 c -1.96,7.58 1.47,14.71 6.06,16.93 0.36,-6.21 -1.02,-13.97 -6.06,-16.93 z"
     id="path62" />
  <path
     class="st35"
     d="m 99.74,170.24 c -11.32,4.67 -15.97,16.7 -12.63,28.36 10.6,-1.35 18.51,-11.42 12.63,-28.36 z M 89.2,195.98 c -0.38,-1.87 -1.2,-7.23 1.51,-13.05 2.06,-4.41 5.15,-6.97 6.75,-8.12 0.45,1.24 2.12,6.31 -0.15,12.14 -2.27,5.83 -6.94,8.42 -8.11,9.03 z"
     id="path63" />
  <path
     class="st13"
     d="m 87.11,199.11 c -0.23,0 -0.43,-0.15 -0.49,-0.37 -3.56,-12.45 1.76,-24.37 12.93,-28.98 0.13,-0.05 0.28,-0.05 0.41,0 0.13,0.06 0.23,0.17 0.27,0.3 3.72,10.72 1.67,17.53 -0.7,21.36 -2.65,4.28 -7.04,7 -12.36,7.68 -0.02,0 -0.04,0 -0.06,0 z m 12.32,-28.18 c -10.2,4.5 -15.07,15.52 -11.95,27.1 4.81,-0.73 8.76,-3.25 11.17,-7.14 2.22,-3.58 4.12,-9.92 0.78,-19.96 z M 89.2,196.5 c -0.08,0 -0.15,-0.02 -0.22,-0.05 -0.15,-0.07 -0.25,-0.2 -0.28,-0.36 -0.53,-2.62 -1.03,-7.84 1.55,-13.37 1.94,-4.16 4.83,-6.82 6.92,-8.32 0.13,-0.09 0.3,-0.12 0.45,-0.07 0.15,0.05 0.28,0.16 0.33,0.32 0.68,1.89 2.04,6.89 -0.16,12.5 -2.19,5.61 -6.57,8.37 -8.35,9.3 -0.07,0.04 -0.16,0.06 -0.24,0.06 z m 8,-20.85 c -1.92,1.48 -4.35,3.9 -6.03,7.5 -2.25,4.82 -2.04,9.39 -1.6,12.04 1.92,-1.12 5.41,-3.7 7.26,-8.42 1.85,-4.73 1.02,-9 0.37,-11.12 z"
     id="path64" />
  <path
     class="st24"
     d="m 417.85,291.8 -0.56,-0.21 -8.8,6.2 c 1.09,-1.69 2.53,-3.15 3.65,-4.81 7.94,-11.84 10.71,-27.02 9.08,-41.09 l -0.67,-0.35 c -6.76,6.92 -12.43,14.87 -16.97,23.44 -1.27,2.39 -2.23,5.16 -3.5,7.45 -0.14,0.26 -0.41,0.88 -0.46,0.11 l 1.01,-9.58 c 12.97,-9.76 19.68,-26.81 18.9,-42.89 -0.3,-6.24 -1.9,-13.05 -3.75,-18.94 -1.17,0.18 -4.53,7.76 -5.7,8.89 3.66,-15.54 0.63,-32.34 -7.98,-45.7 -0.38,0.05 -1.94,4.91 -2.18,5.69 -3.2,10.39 -4.21,21.52 -3.88,32.54 -2.9,-13.86 -14.94,-33.13 -28.15,-42.32 -1.56,11.72 4.65,27.23 16,40.35 -3.9,-2.98 -8.33,-5.22 -13.07,-6.34 2.54,12.01 7.87,23.28 14.88,33.26 0.86,1.23 3.51,4.12 3.97,5.08 0.06,0.12 0.13,0.41 -0.07,0.4 -2.46,-2.34 -4.96,-4.78 -7.83,-6.64 -0.51,-0.33 -2.63,-1.81 -3.05,-1.28 0.46,11.07 2.21,21.99 6.14,32.37 0.67,1.78 1.95,3.51 2.19,5.45 l -6.6,-7.19 c -1.24,3.57 -1.71,7.51 -2.06,11.31 -0.86,9.44 -0.42,18.94 1.61,28.23 -0.48,-0.02 -0.5,-0.47 -0.66,-0.79 -1.27,-2.55 -2.39,-5.21 -4.27,-7.39 -0.13,-0.15 -0.47,-0.59 -0.67,-0.33 -5.01,12.27 -8.77,25.3 -8.53,38.7 l -3.02,-8.91 -0.49,-0.54 c -11.06,14.3 -17.77,32.16 -18.48,50.33 -0.03,0.66 -0.35,4.5 0.4,4.44 4.31,-3.09 8.14,-6.47 11.39,-10.67 22.06,0.97 42.75,-17.3 49.3,-37.5 0.25,-0.77 0.66,-1.48 0.42,-2.32 -7.85,2.81 -15.63,6.78 -22.45,11.58 -3.24,2.28 -6.2,4.99 -9.35,7.38 -0.21,0.16 -0.57,0.65 -0.82,0.3 1.95,-2.68 3.71,-5.52 5.09,-8.54 23.03,-4.26 37.98,-26.93 40,-49.16 z m -7.62,9.84 c 0.23,-0.19 1.88,-1.45 1.99,-1.36 -3.37,14.83 -13.54,28.92 -27.88,34.69 -0.27,-0.2 1.58,-3.51 1.85,-4 5.65,-10.14 15.03,-22.02 24.05,-29.33 z m -16.98,-14.06 c -0.11,-0.57 -1.9,-6.12 -1.51,-6.19 l 5.42,8.04 -3,8.62 c 0.13,-3.38 -0.24,-7.14 -0.91,-10.48 z m -0.62,21.73 8.19,-4.59 -10.85,13.26 c -0.42,-0.16 -0.01,-0.62 0.07,-0.86 0.9,-2.58 2.06,-5.1 2.59,-7.8 z m 19.7,-41.48 c 0.35,-0.54 4.86,-7.09 5.22,-6.73 0.1,15.59 -6.79,32.1 -19.97,40.92 -0.11,-0.6 0.07,-1.21 0.23,-1.78 3.1,-11.06 8.27,-22.79 14.53,-32.42 z m -11.78,-30.09 c 1.85,-2.33 3.61,-4.68 5.23,-7.18 l -4.29,16.28 z m 13.49,-16.42 c 0.47,0.24 0.46,0.65 0.56,1.09 0.93,4.22 1.08,10.07 0.75,14.38 -0.77,9.99 -4.56,20.66 -11.68,27.8 0.45,-14.86 4.02,-29.86 10.38,-43.26 z M 401.98,187.8 c 0.23,-1.07 0.48,-2.56 1.1,-3.41 6.05,14.25 6.77,31.39 -1.4,44.91 -0.88,-2.17 -0.66,-4.37 -0.89,-6.53 -1.27,-11.82 -1.3,-23.29 1.19,-34.96 z m -1.46,65.64 c -0.23,3.25 -0.59,6.45 -0.72,9.72 -0.02,0.44 0.22,0.42 -0.45,0.45 -0.7,-5.29 -2.84,-10.37 -5.58,-14.92 -1.04,-1.73 -2.41,-3.28 -3.43,-5.02 3.35,3.26 6.59,6.71 10.18,9.77 z m -3.3,-26.15 c -0.51,-0.01 -0.48,-0.5 -0.66,-0.8 -0.76,-1.28 -1.28,-2.71 -2.04,-3.98 -0.79,-1.32 -1.67,-2.59 -2.61,-3.83 1.39,1.22 2.83,2.41 4.32,3.55 0.12,-0.46 0.21,-0.95 0.28,-1.45 0.19,2.18 0.42,4.36 0.7,6.5 z m -11.08,-28.9 c 0.88,1.73 6.24,14.39 3.8,13.25 -8.88,-9.5 -15.56,-21.26 -16.06,-30.61 5.13,5.43 9.11,11.16 12.26,17.36 z m -9.47,12.38 c 7.32,3.63 13.4,10.63 16.72,18.09 1.77,3.97 3.91,10.72 4.03,15.02 0.01,0.39 0.06,0.64 -0.28,0.94 -9.49,-9.33 -16.48,-21.37 -20.48,-34.05 z m 6.46,31.79 c 3.91,2.86 6.94,7.16 9.08,11.51 3.36,6.82 5.47,18.06 3.83,25.54 -0.06,0.29 -0.03,0.63 -0.41,0.72 -6.97,-11.42 -11.25,-24.39 -12.51,-37.77 z m -0.95,35.95 c 0.05,-0.61 0.36,-4.22 0.73,-4.27 8.57,11.21 9.37,27.23 3.93,39.98 -0.44,-0.18 -0.38,-0.51 -0.51,-0.84 -3.92,-9.88 -5.03,-24.32 -4.15,-34.88 z m -0.17,35.72 c -0.03,-0.31 -0.32,-0.93 0.13,-0.93 l 4,10.04 -4.67,7.84 c -0.02,-1.21 0.42,-2.34 0.58,-3.58 0.7,-5.15 0.46,-8.26 -0.04,-13.37 z m -33.81,58.13 c 0.57,-10.64 4.15,-20.96 8.7,-30.52 l 4.37,-7.36 c 2.9,13.93 -2.97,28.34 -13.07,37.88 z m 16.11,-18.69 c 0.8,-2.6 0.97,-4.85 1.32,-7.5 0.05,-0.41 0.07,-1.43 0.43,-1.62 l 1.6,10.06 -6.14,6.25 c 0.76,-2.43 2.05,-4.76 2.79,-7.19 z m 8.83,1.19 c 7.47,-6.95 15.91,-12.94 25.12,-17.36 0.15,0.11 -0.54,1.65 -0.67,1.9 -0.72,1.45 -2.15,3.63 -3.09,5.01 -7.12,10.52 -18.51,19.28 -31.3,21.17 -0.16,-0.41 0.07,-0.54 0.28,-0.82 2.47,-3.16 6.66,-7.13 9.65,-9.91 z m -0.77,-11.85 c -0.22,0.37 -1.89,3.08 -2.22,2.8 -1.41,-13.68 0.48,-27.25 4.93,-40.16 0.51,-0.14 0.41,-0.1 0.62,0.24 0.87,1.47 1.88,5.32 2.22,7.07 1.98,10.12 -0.34,21.26 -5.55,30.05 z"
     id="path65" />
  <path
     class="st34"
     d="m 344.24,381.6 c -0.28,0 -0.54,-0.11 -0.75,-0.31 -0.55,-0.54 -0.68,-1.72 -0.51,-4.67 l 0.02,-0.34 c 0.71,-18.13 7.34,-36.18 18.66,-50.83 0.15,-0.2 0.39,-0.32 0.64,-0.33 0.28,-0.02 0.5,0.09 0.67,0.28 l 0.49,0.54 c 0.08,0.09 0.14,0.19 0.18,0.3 l 1.44,4.24 c 0.53,-10.29 3.28,-21.27 8.51,-34.08 0.03,-0.08 0.07,-0.15 0.12,-0.21 0.2,-0.25 0.49,-0.4 0.8,-0.4 h 0.01 c 0.57,0 0.96,0.46 1.14,0.68 1.02,1.17 1.81,2.46 2.52,3.77 -1.17,-7.51 -1.39,-15.33 -0.66,-23.31 0.33,-3.58 0.79,-7.71 2.1,-11.51 0.1,-0.29 0.34,-0.5 0.63,-0.56 0.3,-0.06 0.6,0.04 0.8,0.26 l 3.51,3.82 c -0.19,-0.39 -0.37,-0.79 -0.52,-1.2 -3.66,-9.67 -5.69,-20.35 -6.2,-32.64 0,-0.2 0.06,-0.4 0.18,-0.56 0.8,-1.03 2.37,-0.12 4.04,0.99 l 0.15,0.1 c 0.77,0.5 1.51,1.04 2.23,1.6 -7.21,-10.46 -12.08,-21.5 -14.48,-32.8 -0.06,-0.29 0.03,-0.58 0.24,-0.79 0.21,-0.21 0.51,-0.29 0.79,-0.22 3,0.71 5.93,1.86 8.75,3.44 -9.33,-12.36 -14.15,-26.07 -12.73,-36.73 0.04,-0.3 0.23,-0.55 0.5,-0.67 0.27,-0.12 0.59,-0.09 0.83,0.08 10.93,7.61 21.99,23.07 26.77,36.73 0.19,-9.67 1.51,-18.56 3.95,-26.49 1.89,-6.16 2.38,-6.23 2.9,-6.29 0.32,-0.05 0.65,0.11 0.83,0.39 7.96,12.35 11.15,27.27 9.01,41.58 1.97,-3.61 2.84,-5 3.81,-5.15 0.42,-0.06 0.82,0.19 0.95,0.59 1.54,4.9 3.45,12.2 3.78,19.15 0.45,9.19 -1.54,18.39 -5.42,26.4 1.6,-1.91 3.25,-3.74 4.97,-5.5 0.26,-0.27 0.67,-0.33 1.01,-0.16 l 0.67,0.35 c 0.25,0.13 0.42,0.38 0.45,0.66 1.76,15.12 -1.6,30.3 -9.21,41.66 -0.1,0.15 -0.2,0.29 -0.3,0.43 l 4.25,-2.99 c 0.23,-0.16 0.52,-0.2 0.79,-0.1 l 0.56,0.21 c 0.36,0.13 0.59,0.5 0.55,0.88 -1.33,14.58 -8.51,30.36 -20.56,40.36 2.28,-1.02 4.6,-1.96 6.95,-2.79 0.22,-0.08 0.47,-0.06 0.68,0.04 0.21,0.11 0.37,0.3 0.43,0.52 0.27,0.94 -0.03,1.74 -0.27,2.39 -0.05,0.14 -0.11,0.29 -0.16,0.43 -6.29,19.41 -26.57,38.89 -49.71,38.11 -2.97,3.76 -6.58,7.1 -11.3,10.49 -0.12,0.09 -0.27,0.14 -0.42,0.16 -0.03,0 -0.06,0 -0.09,0 z m 18.02,-54.12 c -10.64,14.18 -16.86,31.48 -17.55,48.85 l -0.02,0.38 c -0.08,1.35 -0.08,2.18 -0.05,2.69 4.3,-3.18 7.6,-6.33 10.34,-9.86 0.17,-0.22 0.45,-0.35 0.71,-0.33 17.67,0.75 40.63,-12.81 48.44,-36.91 0.05,-0.17 0.12,-0.34 0.18,-0.5 0.04,-0.11 0.08,-0.21 0.11,-0.3 -7.5,2.8 -14.74,6.6 -21.01,11.02 -1.87,1.32 -3.69,2.81 -5.45,4.26 -1.26,1.03 -2.56,2.1 -3.88,3.1 l -0.08,0.07 c -0.21,0.2 -0.62,0.57 -1.16,0.52 -0.32,-0.03 -0.6,-0.2 -0.8,-0.48 -0.21,-0.3 -0.21,-0.7 0,-1 2.1,-2.88 3.74,-5.63 5.01,-8.4 0.12,-0.25 0.35,-0.43 0.62,-0.48 22.85,-4.23 36.86,-26.72 39.18,-47.19 l -7.89,5.56 c -0.33,0.23 -0.79,0.2 -1.08,-0.08 -0.29,-0.28 -0.35,-0.74 -0.13,-1.08 0.59,-0.92 1.28,-1.77 1.95,-2.59 0.61,-0.76 1.19,-1.47 1.71,-2.24 7.25,-10.81 10.52,-25.21 9.03,-39.64 -6.25,6.54 -11.67,14.11 -16.13,22.52 -0.59,1.11 -1.12,2.33 -1.64,3.52 -0.58,1.33 -1.18,2.71 -1.87,3.95 -0.2,0.38 -0.55,1.05 -1.27,0.9 -0.48,-0.1 -0.75,-0.49 -0.79,-1.15 0,-0.05 0,-0.1 0,-0.15 l 1.01,-9.58 c 0.02,-0.24 0.15,-0.45 0.34,-0.59 12.08,-9.09 19.37,-25.64 18.56,-42.16 -0.3,-6.16 -1.87,-12.63 -3.29,-17.36 -0.69,1.02 -1.63,2.75 -2.26,3.92 -1.15,2.12 -1.89,3.44 -2.44,3.97 -0.27,0.27 -0.69,0.32 -1.02,0.13 -0.33,-0.19 -0.5,-0.57 -0.41,-0.94 3.49,-14.8 0.91,-30.67 -7.07,-43.78 -0.47,1.22 -1.1,3.1 -1.44,4.21 -2.91,9.46 -4.2,20.31 -3.84,32.26 0.01,0.44 -0.31,0.82 -0.75,0.88 -0.43,0.05 -0.85,-0.24 -0.94,-0.67 -2.93,-14.02 -14.71,-32.03 -26.61,-40.94 -0.86,11.26 5.15,25.75 15.95,38.23 0.29,0.33 0.28,0.83 -0.02,1.15 -0.3,0.32 -0.79,0.36 -1.14,0.09 -3.61,-2.75 -7.44,-4.71 -11.41,-5.84 2.51,10.88 7.36,21.5 14.45,31.59 0.33,0.47 0.96,1.23 1.63,2.03 1.26,1.51 2.11,2.55 2.4,3.16 0.05,0.1 0.15,0.34 0.15,0.63 0.13,0.04 0.25,0.11 0.36,0.21 0.97,0.95 1.93,1.91 2.9,2.87 2.32,2.32 4.72,4.71 7.25,6.87 0.21,0.18 0.32,0.44 0.3,0.71 -0.08,1.17 -0.18,2.33 -0.28,3.49 -0.17,2.03 -0.35,4.12 -0.44,6.2 0.03,0.22 0.08,0.57 -0.18,0.89 -0.28,0.34 -0.62,0.36 -1.06,0.38 -0.47,0 -0.86,-0.3 -0.92,-0.74 -0.62,-4.69 -2.46,-9.6 -5.47,-14.59 -0.48,-0.8 -1.03,-1.54 -1.6,-2.33 -0.63,-0.86 -1.28,-1.75 -1.83,-2.7 -0.05,-0.08 -0.08,-0.17 -0.1,-0.26 -0.19,-0.02 -0.36,-0.1 -0.5,-0.23 l -0.34,-0.33 c -2.31,-2.2 -4.7,-4.48 -7.37,-6.22 l -0.16,-0.11 c -0.71,-0.47 -1.2,-0.75 -1.52,-0.92 0.57,11.68 2.55,21.86 6.04,31.09 0.22,0.59 0.52,1.18 0.83,1.8 0.6,1.2 1.23,2.44 1.4,3.84 0.05,0.37 -0.15,0.73 -0.49,0.88 -0.34,0.16 -0.74,0.08 -0.99,-0.2 l -5.6,-6.1 c -0.92,3.23 -1.3,6.68 -1.57,9.72 -0.88,9.66 -0.35,19.07 1.59,27.97 0.06,0.26 0,0.53 -0.18,0.73 -0.17,0.2 -0.41,0.32 -0.68,0.31 -0.95,-0.03 -1.24,-0.82 -1.34,-1.11 -0.02,-0.05 -0.04,-0.1 -0.06,-0.15 -0.22,-0.44 -0.43,-0.88 -0.65,-1.33 -0.95,-1.96 -1.85,-3.83 -3.15,-5.45 -5.7,14.22 -8.26,26.12 -8.06,37.36 0,0.42 -0.29,0.79 -0.71,0.86 -0.41,0.07 -0.82,-0.17 -0.96,-0.57 l -2.78,-8.21 z m 16.18,14.24 c -0.7,1.48 -1.5,2.95 -2.41,4.44 0.28,-0.23 0.57,-0.46 0.85,-0.7 1.78,-1.46 3.63,-2.98 5.55,-4.34 0.34,-0.24 0.68,-0.47 1.02,-0.71 -1.62,0.53 -3.29,0.96 -5.01,1.3 z m 22.99,-68.3 -0.57,5.38 c 0.08,-0.2 0.17,-0.39 0.26,-0.59 0.53,-1.21 1.08,-2.47 1.7,-3.63 0.83,-1.58 1.7,-3.12 2.61,-4.64 -1.26,1.25 -2.6,2.42 -3.99,3.49 z m -5.93,-23.44 c 1.65,2.99 2.89,5.95 3.72,8.86 0.05,-0.67 0.11,-1.33 0.17,-1.99 0.09,-1.01 0.17,-2.02 0.25,-3.04 -1.42,-1.23 -2.8,-2.52 -4.14,-3.83 z m -47.3,123.23 c -0.12,0 -0.24,-0.03 -0.36,-0.08 -0.32,-0.15 -0.51,-0.47 -0.5,-0.82 0.5,-9.38 3.37,-19.46 8.78,-30.84 l 4.41,-7.43 c 0.18,-0.3 0.53,-0.47 0.88,-0.41 0.35,0.06 0.62,0.32 0.7,0.67 2.8,13.45 -2.31,28.27 -13.33,38.68 -0.16,0.15 -0.37,0.23 -0.59,0.23 z m 12.63,-36.3 -3.19,5.37 c -4.84,10.19 -7.62,19.35 -8.41,27.86 8.89,-9.28 13.21,-21.66 11.61,-33.23 z m 2.38,29.53 c -0.35,0 -0.67,-0.22 -0.8,-0.55 -0.31,-0.82 0.12,-1.31 0.32,-1.54 l 0.09,-0.1 c 2.42,-3.09 6.48,-6.97 9.74,-10.01 7.89,-7.33 16.41,-13.22 25.34,-17.5 0.29,-0.14 0.62,-0.11 0.88,0.08 0.44,0.33 0.69,0.75 -0.41,2.97 -0.73,1.45 -2.11,3.58 -3.15,5.11 -7.91,11.7 -19.83,19.75 -31.88,21.54 -0.04,0 -0.08,0 -0.13,0 z m 33.53,-27.23 c -8.08,4.11 -15.81,9.58 -23.01,16.28 v 0 c -2.92,2.71 -6.47,6.1 -8.85,8.94 10.97,-2.22 21.68,-9.77 28.93,-20.49 0.96,-1.42 2.23,-3.36 2.94,-4.72 z m -23.6,15.65 z m -11.63,6.85 c -0.15,0 -0.3,-0.04 -0.44,-0.12 -0.34,-0.2 -0.49,-0.61 -0.38,-0.99 0.39,-1.23 0.91,-2.44 1.41,-3.61 0.5,-1.17 1.02,-2.38 1.38,-3.57 v 0 c 0.63,-2.04 0.85,-3.82 1.1,-5.89 0.06,-0.48 0.12,-0.97 0.19,-1.48 l 0.02,-0.24 c 0.06,-0.7 0.15,-1.65 0.85,-2.02 0.24,-0.13 0.54,-0.13 0.78,-0.01 0.25,0.12 0.42,0.36 0.46,0.63 l 1.6,10.06 c 0.04,0.27 -0.04,0.54 -0.23,0.73 l -6.14,6.25 c -0.17,0.17 -0.39,0.26 -0.61,0.26 z m 3.61,-7.79 v 0 c -0.35,1.14 -0.81,2.25 -1.27,3.33 l 2.89,-2.94 -0.72,-4.54 c -0.2,1.35 -0.45,2.69 -0.9,4.15 z m 5.12,-7.24 c -0.23,0 -0.49,-0.09 -0.65,-0.23 -0.17,-0.14 -0.27,-0.34 -0.29,-0.56 -1.37,-13.33 0.3,-26.96 4.97,-40.53 0.09,-0.27 0.31,-0.47 0.58,-0.55 0.41,-0.11 1.09,-0.31 1.52,0.52 l 0.06,0.11 c 0.94,1.58 1.98,5.56 2.33,7.34 1.94,9.94 -0.17,21.4 -5.66,30.65 v 0 c -1.82,3.07 -2.46,3.18 -2.74,3.22 -0.04,0 -0.08,0 -0.13,0 z m 5.19,-39.38 c -4.03,12.23 -5.57,24.5 -4.6,36.53 0.29,-0.43 0.59,-0.9 0.81,-1.26 v 0 c 5.28,-8.91 7.31,-19.92 5.45,-29.45 -0.27,-1.4 -0.98,-4.13 -1.66,-5.82 z m -3.06,35.71 z m 11.97,-7.19 c -0.18,0 -0.36,-0.06 -0.51,-0.17 -0.69,-0.51 -0.63,-1.07 1.58,-5.05 6.15,-11.04 15.67,-22.65 24.29,-29.63 v 0 c 2.28,-1.84 2.6,-1.74 3.07,-1.36 0.25,0.21 0.37,0.54 0.29,0.85 -3.68,16.2 -14.56,29.73 -28.4,35.29 -0.1,0.04 -0.21,0.06 -0.32,0.06 z m 26.43,-33.51 c -8.46,6.86 -17.82,18.27 -23.84,29.08 -0.47,0.84 -0.81,1.49 -1.06,1.99 11.83,-5.5 21.18,-17.14 24.98,-31.12 -0.03,0.02 -0.05,0.04 -0.08,0.06 v 0 z m -29.3,29.72 c -0.07,0 -0.15,0 -0.22,-0.03 -0.37,-0.1 -0.63,-0.43 -0.64,-0.81 -0.01,-0.85 0.16,-1.64 0.34,-2.4 0.1,-0.43 0.2,-0.86 0.26,-1.3 0.69,-5.09 0.44,-8.17 -0.05,-13.17 0,-0.04 -0.02,-0.1 -0.03,-0.15 -0.08,-0.32 -0.21,-0.87 0.14,-1.32 0.21,-0.26 0.52,-0.41 0.87,-0.41 0.35,0 0.67,0.21 0.79,0.54 l 4,10.04 c 0.1,0.25 0.08,0.53 -0.06,0.75 l -4.67,7.84 c -0.16,0.26 -0.44,0.42 -0.74,0.42 z m 1.76,-13.69 c 0.19,2.8 0.18,5.29 -0.23,8.59 l 2.18,-3.67 -1.96,-4.92 z m 6.74,0.49 c -0.1,0 -0.2,-0.02 -0.3,-0.05 -0.32,-0.12 -0.56,-0.35 -0.67,-0.66 -0.19,-0.51 0.06,-0.97 0.2,-1.22 l 0.05,-0.09 c 0.25,-0.71 0.53,-1.44 0.8,-2.17 0.68,-1.78 1.38,-3.62 1.74,-5.49 0.05,-0.25 0.2,-0.46 0.42,-0.58 l 8.19,-4.59 c 0.36,-0.2 0.81,-0.12 1.07,0.2 0.26,0.32 0.27,0.77 0,1.09 l -10.85,13.26 c -0.17,0.2 -0.41,0.31 -0.66,0.31 z m 3.42,-8.96 c -0.31,1.43 -0.78,2.8 -1.28,4.14 l 5.18,-6.33 z m -6.55,5.21 c -0.11,0 -0.22,-0.02 -0.33,-0.06 -0.72,-0.3 -0.87,-0.89 -0.94,-1.17 -0.01,-0.05 -0.02,-0.1 -0.04,-0.14 -4.08,-10.27 -5.05,-25.12 -4.21,-35.26 v 0 c 0.4,-4.7 0.76,-4.95 1.48,-5.04 0.31,-0.04 0.6,0.09 0.79,0.33 8.37,10.95 9.95,26.98 4.04,40.84 -0.14,0.32 -0.46,0.52 -0.79,0.52 z m 0.43,-1.53 z m -4.24,-34.97 v 0 c -0.8,9.64 0.06,23.57 3.73,33.54 4.6,-12.27 3.27,-25.98 -3.48,-35.9 -0.08,0.58 -0.16,1.36 -0.25,2.36 z m 14.54,24.3 c -0.11,0 -0.23,-0.02 -0.33,-0.07 -0.27,-0.11 -0.46,-0.35 -0.51,-0.64 -0.14,-0.79 0.06,-1.5 0.24,-2.12 3.19,-11.37 8.52,-23.27 14.65,-32.69 v 0 c 0.47,-0.72 4.6,-7.01 5.81,-7.13 0.26,-0.02 0.56,0.08 0.74,0.27 0.15,0.16 0.24,0.37 0.24,0.59 0.11,17.2 -7.69,33.16 -20.35,41.64 -0.14,0.1 -0.31,0.14 -0.48,0.14 z m 15.48,-34.58 c -5.98,9.19 -11.19,20.79 -14.33,31.87 10.56,-7.95 17.42,-22.05 17.94,-36.91 -1.28,1.66 -3.1,4.25 -3.61,5.04 z m -18.89,30.61 c -0.05,0 -0.11,0 -0.16,-0.01 -0.42,-0.08 -0.71,-0.45 -0.7,-0.87 0.12,-3.12 -0.2,-6.77 -0.89,-10.28 -0.03,-0.15 -0.17,-0.62 -0.36,-1.24 -1.39,-4.71 -1.37,-5.08 -1.08,-5.54 0.13,-0.21 0.37,-0.37 0.61,-0.41 0.33,-0.06 0.67,0.08 0.85,0.36 l 5.42,8.04 c 0.15,0.22 0.19,0.5 0.1,0.76 l -3,8.62 c -0.12,0.35 -0.45,0.58 -0.81,0.58 z m -0.57,-13.23 c 0.04,0.12 0.07,0.24 0.1,0.34 0.21,0.7 0.36,1.23 0.39,1.39 v 0 c 0.39,1.96 0.66,3.95 0.82,5.89 l 1.3,-3.75 z m 2.05,-4.49 c -0.29,0 -0.57,-0.15 -0.73,-0.41 -7,-11.47 -11.37,-24.66 -12.63,-38.13 -0.03,-0.33 0.14,-0.66 0.43,-0.82 0.29,-0.16 0.66,-0.14 0.93,0.05 4.55,3.32 7.59,8.26 9.34,11.82 3.27,6.64 5.63,18.22 3.9,26.1 l -0.02,0.11 c -0.04,0.26 -0.16,1.06 -1.03,1.26 -0.07,0.02 -0.13,0.02 -0.2,0.02 z M 384.2,244.52 c 1.4,11.89 5.25,23.49 11.22,33.78 1.21,-7.46 -0.99,-17.78 -3.98,-23.85 -1.45,-2.95 -3.83,-6.9 -7.25,-9.93 z m 19.46,20.92 c -0.11,0 -0.23,-0.02 -0.34,-0.07 -0.32,-0.14 -0.53,-0.46 -0.52,-0.81 0.45,-15.05 4.07,-30.13 10.46,-43.61 0.1,-0.21 0.28,-0.37 0.49,-0.44 0.22,-0.08 0.46,-0.06 0.66,0.04 0.78,0.39 0.9,1.07 0.97,1.48 l 0.04,0.18 c 1.03,4.72 1.06,10.83 0.76,14.63 -0.87,11.29 -5.22,21.61 -11.93,28.33 -0.16,0.16 -0.38,0.25 -0.61,0.25 z m 10.29,-41.89 c -5.44,12.08 -8.65,25.4 -9.34,38.76 5.54,-6.42 9.11,-15.6 9.88,-25.58 0.27,-3.43 0.27,-8.79 -0.54,-13.18 z m -12.47,24.15 c 0,0 -0.04,0 -0.07,0 -0.41,-0.03 -0.74,-0.35 -0.78,-0.76 l -0.94,-9.1 c -0.02,-0.22 0.04,-0.45 0.18,-0.62 2.12,-2.67 3.77,-4.93 5.18,-7.11 0.23,-0.35 0.68,-0.49 1.06,-0.32 0.38,0.17 0.59,0.59 0.48,1 l -4.29,16.28 c -0.1,0.38 -0.44,0.64 -0.83,0.64 z m -0.05,-9.7 0.42,4.08 1.86,-7.05 c -0.7,0.94 -1.45,1.93 -2.28,2.97 z m -4.28,7.67 c -0.22,0 -0.43,-0.08 -0.6,-0.25 -9.34,-9.19 -16.5,-21.08 -20.7,-34.4 -0.1,-0.33 0,-0.68 0.26,-0.91 0.26,-0.22 0.63,-0.27 0.94,-0.12 7.13,3.54 13.53,10.46 17.12,18.51 1.9,4.27 3.99,11.09 4.11,15.35 v 0.11 c 0.02,0.38 0.04,0.96 -0.57,1.49 -0.16,0.14 -0.36,0.21 -0.56,0.21 z m -18.99,-33.12 c 3.98,11.64 10.29,22.08 18.36,30.41 -0.35,-4.05 -2.2,-9.95 -3.9,-13.75 -3.12,-6.99 -8.43,-13.08 -14.46,-16.66 z m 23.52,17.6 c 0,0 -0.04,0 -0.07,0 -0.32,-0.03 -0.6,-0.23 -0.73,-0.53 -0.68,-1.67 -0.75,-3.32 -0.83,-4.91 -0.03,-0.62 -0.06,-1.24 -0.12,-1.85 -1.44,-13.43 -1.06,-24.62 1.2,-35.23 v 0 c 0,0 0.08,-0.38 0.08,-0.38 0.23,-1.09 0.51,-2.46 1.17,-3.36 0.18,-0.25 0.48,-0.38 0.79,-0.35 0.31,0.04 0.57,0.23 0.69,0.52 6.75,15.92 6.21,33 -1.45,45.68 -0.16,0.26 -0.43,0.41 -0.73,0.41 z m 1.14,-42.17 v 0 c -2.22,10.42 -2.6,21.45 -1.17,34.69 0.07,0.65 0.1,1.3 0.13,1.96 0.04,0.83 0.08,1.64 0.2,2.43 6.11,-11.47 6.52,-26.27 1.12,-40.36 -0.07,0.3 -0.13,0.61 -0.19,0.89 l -0.08,0.39 z m -5.6,40.17 h -0.02 c -0.97,-0.02 -1.25,-0.83 -1.34,-1.1 -0.01,-0.04 -0.03,-0.09 -0.04,-0.12 -0.38,-0.65 -0.71,-1.34 -1.03,-2.01 -0.33,-0.69 -0.64,-1.34 -1,-1.95 -0.74,-1.23 -1.6,-2.49 -2.55,-3.75 -0.27,-0.35 -0.22,-0.84 0.1,-1.14 0.32,-0.3 0.82,-0.31 1.15,-0.02 1.07,0.94 2.13,1.83 3.19,2.66 0,-0.01 0,-0.03 0,-0.04 0.06,-0.43 0.39,-0.74 0.87,-0.73 0.43,0.01 0.79,0.35 0.83,0.78 0.19,2.19 0.43,4.37 0.7,6.47 0.03,0.25 -0.05,0.5 -0.21,0.68 -0.16,0.18 -0.39,0.28 -0.64,0.28 z m -1.49,-5.23 c 0.06,0.11 0.11,0.22 0.17,0.33 0,-0.08 -0.02,-0.16 -0.02,-0.25 -0.05,-0.02 -0.1,-0.05 -0.14,-0.09 z m -5.52,-10.35 c -0.18,0 -0.39,-0.04 -0.63,-0.15 -0.1,-0.05 -0.19,-0.11 -0.26,-0.19 -9.57,-10.23 -15.81,-22.17 -16.29,-31.15 -0.02,-0.36 0.19,-0.69 0.52,-0.83 0.33,-0.14 0.71,-0.06 0.96,0.2 5.07,5.38 9.13,11.12 12.4,17.56 0.06,0.12 5.85,12.44 4.14,14.22 -0.1,0.1 -0.38,0.35 -0.83,0.35 z m -15.19,-29.01 c 1.32,7.92 6.69,17.71 14.57,26.44 -0.64,-2.86 -3.28,-9.38 -4.21,-11.22 v 0 c -2.81,-5.52 -6.21,-10.53 -10.36,-15.22 z"
     id="path66" />
  <path
     class="st30"
     d="m 389.94,211.64 c 2.44,1.13 -2.92,-11.52 -3.8,-13.25 -3.15,-6.2 -7.13,-11.92 -12.26,-17.36 0.5,9.35 7.18,21.11 16.06,30.61 z"
     id="path67" />
  <path
     class="st30"
     d="m 397.57,302.03 c 13.18,-8.83 20.07,-25.33 19.97,-40.92 -0.35,-0.37 -4.86,6.18 -5.22,6.73 -6.26,9.63 -11.43,21.35 -14.53,32.42 -0.16,0.57 -0.34,1.17 -0.23,1.78 z"
     id="path68" />
  <path
     class="st30"
     d="m 363.21,365.59 c 12.79,-1.9 24.19,-10.65 31.3,-21.17 0.94,-1.38 2.36,-3.56 3.09,-5.01 0.13,-0.26 0.82,-1.79 0.67,-1.9 -9.21,4.42 -17.65,10.41 -25.12,17.36 -2.99,2.78 -7.18,6.75 -9.65,9.91 -0.22,0.28 -0.44,0.4 -0.28,0.82 z"
     id="path69" />
  <path
     class="st30"
     d="m 401.68,229.29 c 8.16,-13.51 7.44,-30.66 1.4,-44.91 -0.62,0.85 -0.87,2.35 -1.1,3.41 -2.49,11.67 -2.46,23.14 -1.19,34.96 0.23,2.16 0.01,4.36 0.89,6.53 z"
     id="path70" />
  <path
     class="st30"
     d="m 384.34,334.97 c 14.34,-5.77 24.51,-19.86 27.88,-34.69 -0.11,-0.09 -1.75,1.17 -1.99,1.36 -9.02,7.31 -18.4,19.19 -24.05,29.33 -0.27,0.49 -2.12,3.8 -1.85,4 z"
     id="path71" />
  <path
     class="st30"
     d="m 403.66,264.58 c 7.12,-7.14 10.91,-17.8 11.68,-27.8 0.33,-4.32 0.18,-10.16 -0.75,-14.38 -0.1,-0.44 -0.09,-0.85 -0.56,-1.09 -6.36,13.4 -9.93,28.4 -10.38,43.26 z"
     id="path72" />
  <path
     class="st30"
     d="m 375.09,305.64 c -4.45,12.92 -6.34,26.48 -4.93,40.16 0.33,0.28 2,-2.43 2.22,-2.8 5.21,-8.8 7.53,-19.93 5.55,-30.05 -0.34,-1.75 -1.35,-5.6 -2.22,-7.07 -0.2,-0.34 -0.11,-0.38 -0.62,-0.24 z"
     id="path73" />
  <path
     class="st30"
     d="m 382.91,274.24 c -0.37,0.05 -0.68,3.66 -0.73,4.27 -0.88,10.56 0.23,25 4.15,34.88 0.13,0.33 0.07,0.66 0.51,0.84 5.44,-12.75 4.64,-28.77 -3.93,-39.98 z"
     id="path74" />
  <path
     class="st30"
     d="m 376.67,210.77 c 4,12.68 10.99,24.72 20.48,34.05 0.34,-0.29 0.29,-0.54 0.28,-0.94 -0.12,-4.3 -2.26,-11.05 -4.03,-15.02 -3.33,-7.46 -9.4,-14.46 -16.72,-18.09 z"
     id="path75" />
  <path
     class="st30"
     d="m 348.2,372.36 c 10.1,-9.54 15.97,-23.95 13.07,-37.88 l -4.37,7.36 c -4.55,9.56 -8.13,19.87 -8.7,30.52 z"
     id="path76" />
  <path
     class="st30"
     d="m 395.64,280.33 c 0.38,-0.09 0.35,-0.43 0.41,-0.72 1.64,-7.48 -0.48,-18.72 -3.83,-25.54 -2.14,-4.34 -5.17,-8.65 -9.08,-11.51 1.25,13.38 5.54,26.34 12.51,37.77 z"
     id="path77" />
  <path
     class="st25"
     d="m 330.16,373.96 c -0.26,-0.07 -0.41,0.04 -0.62,0.12 -1.24,0.51 -3.62,2.56 -4.92,3.41 -52.82,34.37 -118.87,32.52 -170.22,-3.81 -0.54,-0.38 -3.37,-2.81 -3.75,-2.59 l -3.18,18.82 -17.03,7.23 c -0.14,0.07 -0.48,0.02 -0.36,0.32 0.12,0.3 4.61,3.57 5.28,4.06 62.05,45.18 146.03,46.25 209.31,3.07 0.9,-0.96 3.01,-1.78 3.74,-2.81 0.09,-0.12 0.22,-0.29 0,-0.35 l -17.39,-9.85 -0.87,-17.61 z"
     id="path78" />
  <path
     class="st21"
     d="m 152.15,375.98 c 52.59,37.2 120.22,39.1 174.31,3.9 0.98,-0.64 2.54,-1.93 3.81,-2.78 l -0.16,-3.14 c -0.26,-0.07 -0.41,0.04 -0.62,0.12 -1.24,0.51 -3.62,2.56 -4.92,3.41 -52.82,34.37 -118.87,32.52 -170.22,-3.81 -0.54,-0.38 -3.37,-2.81 -3.75,-2.59 l -0.55,3.25 c 0.88,0.66 1.8,1.44 2.09,1.64 z"
     id="path79" />
  <path
     class="st41"
     d="m 348.41,401.42 -1.76,-1 c -65.68,45.23 -147.45,45.92 -214.12,-4.18 l -2.1,0.89 c -0.14,0.07 -0.48,0.02 -0.36,0.32 0.13,0.31 4.61,3.57 5.28,4.06 62.05,45.18 146.03,46.25 209.31,3.07 0.9,-0.96 3.01,-1.78 3.74,-2.81 0.09,-0.12 0.22,-0.29 0,-0.35 z"
     id="path80" />
  <path
     class="st32"
     d="m 145.84,163.89 192.99,1.42 -0.98,132.61 c -0.36,48.94 -43.94,88.43 -97.15,88.04 -53.21,-0.39 -96.2,-40.53 -95.84,-89.46 z"
     id="path81" />
  <path
     class="st41"
     d="m 241.4,228.02 h -94.41 l -0.49,66.12 c -0.36,48.62 42.14,88.52 94.9,89.31 z"
     id="path82" />
  <path
     class="st35"
     d="m 241.4,228.02 h 94.41 c 0,0 0.49,66.12 0.49,66.12 0.36,48.62 -42.14,88.52 -94.9,89.31 z"
     id="path83" />
  <path
     class="st32"
     d="m 325.38,253.18 c -11.63,-1.49 -23.32,0.61 -34.37,3.25 -24.49,6.74 -49.8,10.83 -76,8.91 -2.59,-0.19 -11.05,-1.74 -9,-4.75 5.44,-5.53 1.18,-7.8 -6.11,-8.67 -5.6,-0.66 -11.34,-0.49 -16.99,-0.29 -9.84,0.34 -24.64,1.24 -33.89,2.91 -0.97,0.18 -1.9,0.45 -2.79,0.79 v 17.98 c 10.66,-0.88 21.28,-2.28 32,-2.81 6.94,-0.34 19.4,-1 25.73,0.94 7.21,2.22 0.66,5.49 0.37,8.02 -0.38,3.4 10.55,4.65 13.51,4.86 19.08,1.39 43.68,-1.98 61.95,-6.24 18.86,-4.4 28.08,-9.13 49.02,-5.32 l 7.06,1.42 v -18.62 c -1.9,-1.13 -8.17,-2.08 -10.49,-2.38 z"
     id="path84" />
  <path
     class="st37"
     d="m 329.55,243.73 c -24.17,-4.39 -44.01,5.47 -67.14,9.07 -12.33,1.92 -44.15,5.38 -54.78,0.58 -6.05,-2.73 2.19,-5.8 -0.08,-9.13 -1.02,-1.49 -6.01,-2.35 -8.06,-2.54 -6.7,-0.63 -14.97,-0.31 -21.72,0.04 -10.56,0.54 -21.04,1.98 -31.54,2.9 v 10.88 c 5.78,-0.74 11.62,-1.4 17.44,-1.9 9.53,-0.82 33.03,-3.02 41.18,0 6.63,2.46 -0.02,5.43 -0.04,8.03 -0.02,2.97 9.13,4.27 11.93,4.51 14.66,1.23 32.15,-0.48 46.51,-2.77 24.4,-3.9 47.36,-15.28 72.61,-7.25 v -10.57 l -6.32,-1.84 z"
     id="path85" />
  <path
     class="st12"
     d="m 202.14,337.77 v 6.42 c 14.58,-4.71 24.04,-1.84 26.88,-0.38 0.5,0.26 1.11,0.05 1.34,-0.44 0.91,-1.29 1.83,-2.57 2.77,-3.84 -9.66,-4.4 -20.93,-5.04 -30.99,-1.76 z"
     id="path86" />
  <path
     class="st12"
     d="m 202.14,337.77 c 0,2.14 -1.08,4.25 -1.08,6.38 -14.58,-4.71 -22.96,-1.81 -25.8,-0.35 -0.5,0.26 -1.11,0.05 -1.34,-0.44 -0.91,-1.29 -2.24,-3.78 -3.17,-5.05 9.66,-4.4 21.33,-3.83 31.39,-0.54 z"
     id="path87" />
  <polygon
     class="st25"
     points="202.1,542.17 202.1,519.25 201.06,542.15 "
     id="polygon87"
     transform="translate(0,-198)" />
  <path
     class="st51"
     d="m 228.16,302.06 c -8.62,-1.89 -17.64,-1.4 -26.06,1.48 v 34.77 c 10.16,-3.48 21.19,-3.48 31.35,0 -1.49,-14.54 -2.99,-21.24 -4.51,-35.37 -0.05,-0.43 -0.36,-0.79 -0.78,-0.88 z"
     id="path88" />
  <path
     class="st12"
     d="m 224.66,301.51 c -7.7,-1.19 -15.11,-0.52 -22.56,2.03 v 34.77 c 8.12,-7.33 16.42,-8.91 24.55,-9.61 0.55,-0.05 0.96,-0.53 0.91,-1.09 -0.91,-10.14 -1.39,-14.57 -2.9,-26.1 z"
     id="path89" />
  <path
     class="st25"
     d="m 220.31,291.6 c -6.04,1.74 -12.33,5.85 -18.21,11.95 v 34.77 c 7.05,-7.31 14.67,-11.75 21.76,-12.7 0.53,-0.07 0.9,-0.55 0.85,-1.08 -1.1,-12.06 -1.91,-18.47 -3.13,-32.06 -0.06,-0.63 -0.67,-1.05 -1.28,-0.88 z"
     id="path90" />
  <path
     class="st25"
     d="m 176.03,302.06 c 8.62,-1.9 17.64,-1.4 26.06,1.48 v 34.77 c -10.16,-3.48 -21.19,-3.48 -31.35,0 1.49,-14.54 2.99,-21.24 4.51,-35.37 0.05,-0.43 0.36,-0.79 0.78,-0.88 z"
     id="path91" />
  <path
     class="st51"
     d="m 199.93,302.87 -3.04,33.99 c 1.75,0.39 3.49,0.87 5.21,1.45 v -34.77 c -0.72,-0.25 -1.44,-0.47 -2.17,-0.68 z"
     id="path92" />
  <g
     id="g102"
     transform="translate(0,-198)">
    <path
       class="st15"
       d="m 161.63,594.06 c 0.42,-0.76 0.61,-1.51 0.56,-2.25 -0.05,-0.74 -0.3,-1.44 -0.78,-2.1 -0.47,-0.65 -1.14,-1.22 -2,-1.7 l -2.39,-1.33 v 0 c 0,0 -1.19,-0.66 -1.19,-0.66 l -6.6,11.86 2,1.11 2.5,-4.49 1.58,0.88 c 0.86,0.48 1.69,0.74 2.5,0.8 0.8,0.06 1.54,-0.1 2.19,-0.45 0.66,-0.36 1.2,-0.92 1.62,-1.67 z m -1.96,-1.09 c -0.35,0.63 -0.83,1 -1.43,1.09 -0.6,0.1 -1.25,-0.05 -1.93,-0.43 l -1.58,-0.88 2.14,-3.85 1.58,0.88 c 0.69,0.38 1.15,0.85 1.39,1.41 0.24,0.55 0.18,1.15 -0.17,1.78 z"
       id="path93" />
    <path
       class="st15"
       d="m 172.18,596.67 c -0.09,-0.74 -0.39,-1.42 -0.9,-2.05 -0.51,-0.63 -1.21,-1.15 -2.1,-1.58 l -1.72,-0.82 v 0 c 0,0 -2.07,-0.98 -2.07,-0.98 l -5.83,12.26 2.07,0.98 2.21,-4.64 1.26,0.6 0.89,6.12 2.49,1.18 -1.14,-6.52 c 0.26,0.04 0.51,0.07 0.76,0.07 0.81,0 1.53,-0.2 2.17,-0.6 0.63,-0.4 1.13,-0.99 1.5,-1.76 0.37,-0.77 0.5,-1.53 0.41,-2.26 z m -2.56,1.31 c -0.21,0.43 -0.48,0.76 -0.83,0.97 -0.35,0.22 -0.74,0.32 -1.17,0.31 -0.43,0 -0.88,-0.12 -1.35,-0.34 l -1.63,-0.77 1.96,-4.13 1.63,0.77 c 0.47,0.22 0.84,0.5 1.12,0.83 0.28,0.33 0.44,0.7 0.5,1.1 0.05,0.4 -0.02,0.82 -0.23,1.26 z"
       id="path94" />
    <path
       class="st15"
       d="m 183.83,599.53 c -0.67,-0.63 -1.48,-1.13 -2.44,-1.5 -0.93,-0.36 -1.86,-0.53 -2.79,-0.51 -0.93,0.02 -1.8,0.2 -2.63,0.56 -0.82,0.36 -1.55,0.87 -2.18,1.54 -0.63,0.67 -1.13,1.48 -1.5,2.44 -0.36,0.94 -0.54,1.88 -0.52,2.81 0.01,0.93 0.2,1.81 0.56,2.63 0.36,0.82 0.88,1.55 1.56,2.19 0.68,0.64 1.49,1.14 2.43,1.51 0.95,0.37 1.9,0.54 2.83,0.51 0.93,-0.02 1.8,-0.22 2.62,-0.58 0.82,-0.36 1.55,-0.89 2.18,-1.57 0.64,-0.68 1.14,-1.5 1.5,-2.44 0.37,-0.95 0.54,-1.89 0.52,-2.81 -0.02,-0.92 -0.22,-1.79 -0.59,-2.61 -0.37,-0.81 -0.89,-1.54 -1.57,-2.17 z m -0.65,6.71 c -0.33,0.87 -0.82,1.57 -1.45,2.11 -0.63,0.54 -1.34,0.88 -2.14,1.02 -0.79,0.14 -1.61,0.05 -2.46,-0.28 -0.83,-0.32 -1.5,-0.8 -2,-1.44 -0.5,-0.64 -0.81,-1.37 -0.91,-2.19 -0.11,-0.82 0,-1.67 0.34,-2.54 0.33,-0.87 0.82,-1.57 1.45,-2.11 0.63,-0.54 1.35,-0.88 2.15,-1.01 0.8,-0.14 1.62,-0.04 2.45,0.28 0.86,0.33 1.53,0.81 2.03,1.45 0.5,0.63 0.8,1.36 0.9,2.18 0.1,0.82 -0.02,1.67 -0.35,2.53 z"
       id="path95" />
    <path
       class="st15"
       d="m 202.65,609.29 c 0.22,-0.84 0.22,-1.61 0,-2.32 -0.23,-0.71 -0.65,-1.32 -1.27,-1.84 -0.62,-0.52 -1.4,-0.9 -2.35,-1.15 l -1.74,-0.46 v 0 c 0,0 -2.21,-0.58 -2.21,-0.58 l -3.47,13.13 2.21,0.58 1.31,-4.97 1.74,0.46 c 0.95,0.25 1.82,0.3 2.62,0.16 0.79,-0.14 1.47,-0.47 2.02,-0.98 0.55,-0.51 0.94,-1.18 1.16,-2.02 z m -2.18,-0.58 c -0.19,0.7 -0.56,1.17 -1.11,1.41 -0.56,0.24 -1.22,0.26 -1.98,0.06 l -1.74,-0.46 1.12,-4.26 1.74,0.46 c 0.76,0.2 1.33,0.54 1.7,1.02 0.37,0.48 0.46,1.07 0.28,1.77 z"
       id="path96" />
    <path
       class="st15"
       d="m 200.2,618.39 2.53,0.5 2.2,-3.12 4.91,0.98 0.85,3.73 2.53,0.5 -3.71,-15.35 -9.3,12.76 z m 5.76,-4.39 2.65,-3.86 0.96,4.58 z"
       id="path97" />
    <polygon
       class="st15"
       points="223.82,608.67 214.45,607.37 214.15,609.46 217.69,609.95 216.11,621.31 218.39,621.62 219.97,610.27 223.53,610.77 "
       id="polygon97" />
    <path
       class="st15"
       d="m 231.29,617.22 c 0.76,-0.29 1.36,-0.74 1.81,-1.34 0.45,-0.6 0.71,-1.33 0.77,-2.18 0.07,-0.85 -0.08,-1.6 -0.43,-2.26 -0.35,-0.66 -0.88,-1.19 -1.58,-1.59 -0.7,-0.41 -1.54,-0.65 -2.52,-0.72 l -1.9,-0.15 v 0 c 0,0 -2.28,-0.18 -2.28,-0.18 l -1.06,13.54 2.28,0.18 0.4,-5.12 1.39,0.11 3.02,5.39 2.75,0.22 -3.4,-5.68 c 0.25,-0.05 0.5,-0.12 0.73,-0.21 z m -2.56,-1.56 -1.8,-0.14 0.36,-4.56 1.8,0.14 c 0.52,0.04 0.96,0.17 1.34,0.38 0.38,0.21 0.67,0.49 0.86,0.85 0.19,0.35 0.27,0.77 0.23,1.26 -0.04,0.48 -0.18,0.88 -0.42,1.2 -0.25,0.32 -0.57,0.56 -0.98,0.71 -0.41,0.15 -0.87,0.2 -1.38,0.16 z"
       id="path98" />
    <rect
       class="st15"
       x="230.58"
       y="615.21002"
       width="13.58"
       height="2.3099999"
       transform="rotate(-88.25,237.40327,616.38081)"
       id="rect98" />
    <path
       class="st15"
       d="m 240.33,623.34 2.58,-0.06 1.47,-3.53 5,-0.11 1.64,3.46 2.58,-0.06 -6.96,-14.18 z m 8.34,-5.62 -3.68,0.08 1.75,-4.35 1.94,4.26 z"
       id="path99" />
    <path
       class="st15"
       d="m 269.65,615.96 c -0.25,-0.41 -0.57,-0.76 -0.94,-1.04 -0.38,-0.29 -0.78,-0.51 -1.21,-0.68 -0.43,-0.17 -0.86,-0.3 -1.27,-0.39 -0.75,-0.17 -1.37,-0.34 -1.85,-0.53 -0.48,-0.19 -0.84,-0.4 -1.09,-0.65 -0.25,-0.25 -0.39,-0.55 -0.43,-0.89 -0.05,-0.39 0.06,-0.74 0.32,-1.07 0.26,-0.33 0.7,-0.53 1.33,-0.61 0.45,-0.06 0.85,-0.02 1.22,0.11 0.36,0.13 0.69,0.32 0.98,0.58 0.29,0.26 0.54,0.54 0.75,0.85 l 1.72,-1.27 c -0.29,-0.45 -0.67,-0.86 -1.12,-1.25 -0.45,-0.39 -1,-0.68 -1.63,-0.89 -0.63,-0.21 -1.34,-0.26 -2.13,-0.16 -0.81,0.1 -1.51,0.34 -2.11,0.72 -0.6,0.38 -1.05,0.87 -1.35,1.46 -0.3,0.59 -0.41,1.25 -0.32,1.97 0.08,0.63 0.27,1.15 0.57,1.56 0.3,0.41 0.65,0.75 1.06,1 0.41,0.25 0.83,0.46 1.27,0.6 0.44,0.15 0.83,0.26 1.18,0.33 0.59,0.13 1.11,0.28 1.57,0.44 0.46,0.16 0.83,0.37 1.11,0.64 0.28,0.27 0.45,0.66 0.52,1.16 0.07,0.53 -0.07,0.98 -0.42,1.36 -0.34,0.38 -0.82,0.61 -1.44,0.69 -0.51,0.06 -0.99,0.02 -1.43,-0.14 -0.44,-0.16 -0.85,-0.41 -1.24,-0.76 -0.39,-0.35 -0.76,-0.76 -1.12,-1.24 l -1.55,1.39 c 0.37,0.58 0.84,1.1 1.41,1.56 0.57,0.46 1.21,0.81 1.92,1.04 0.71,0.23 1.47,0.29 2.26,0.19 0.58,-0.07 1.12,-0.24 1.63,-0.49 0.51,-0.25 0.95,-0.58 1.33,-0.97 0.38,-0.39 0.66,-0.86 0.84,-1.39 0.18,-0.53 0.23,-1.11 0.15,-1.74 -0.07,-0.59 -0.24,-1.09 -0.49,-1.5 z"
       id="path100" />
    <polygon
       class="st15"
       points="280,613.07 279.63,611.13 274.11,612.18 273.49,608.94 279.39,607.82 279.02,605.84 272.29,607.12 270.9,607.38 273.44,620.72 274.83,620.46 281.56,619.17 281.18,617.19 275.28,618.32 274.48,614.13 "
       id="polygon100" />
    <polygon
       class="st15"
       points="284.2,618.69 286.48,618.07 285.21,609.85 291.03,615.52 293.18,607.68 296.27,615.4 298.55,614.78 293.01,601.51 290.04,611.87 282.25,604.45 "
       id="polygon101" />
    <path
       class="st15"
       d="m 305.22,600.04 c -0.59,-0.46 -1.29,-0.72 -2.09,-0.8 -0.8,-0.08 -1.67,0.05 -2.59,0.38 l -1.7,0.61 v 0 c 0,0 -2.15,0.77 -2.15,0.77 l 4.58,12.78 2.15,-0.77 -1.73,-4.84 1.7,-0.61 c 0.93,-0.33 1.67,-0.78 2.25,-1.35 0.57,-0.57 0.94,-1.22 1.1,-1.95 0.16,-0.73 0.1,-1.51 -0.19,-2.32 -0.29,-0.82 -0.73,-1.45 -1.32,-1.91 z m -0.92,4.46 c -0.32,0.51 -0.86,0.9 -1.6,1.17 l -1.7,0.61 -1.48,-4.15 1.7,-0.61 c 0.74,-0.27 1.4,-0.31 1.98,-0.12 0.57,0.19 0.98,0.62 1.23,1.3 0.24,0.68 0.2,1.28 -0.12,1.79 z"
       id="path101" />
    <polygon
       class="st15"
       points="317.01,600.84 316.23,599.02 311.06,601.25 309.76,598.22 315.28,595.84 314.48,593.99 308.96,596.37 306.9,597.26 312.27,609.73 313.57,609.17 319.85,606.46 319.06,604.61 313.53,606.99 311.85,603.07 "
       id="polygon102" />
    <path
       class="st15"
       d="m 329.23,601.82 2.46,-1.25 -5.86,-3.08 c 0.19,-0.18 0.36,-0.36 0.52,-0.56 0.49,-0.64 0.77,-1.34 0.85,-2.08 0.07,-0.75 -0.09,-1.5 -0.47,-2.26 -0.39,-0.76 -0.9,-1.33 -1.54,-1.71 -0.64,-0.38 -1.37,-0.56 -2.18,-0.54 -0.81,0.02 -1.65,0.25 -2.53,0.7 l -1.69,0.86 v 0 c 0,0 -2.04,1.04 -2.04,1.04 l 6.15,12.1 2.04,-1.04 -2.33,-4.58 1.25,-0.63 5.39,3.03 z m -7.49,-4.08 -2.07,-4.08 1.61,-0.82 c 0.46,-0.23 0.91,-0.36 1.34,-0.38 0.43,-0.02 0.82,0.07 1.17,0.27 0.35,0.2 0.63,0.52 0.86,0.96 0.22,0.43 0.3,0.84 0.26,1.25 -0.04,0.41 -0.2,0.78 -0.47,1.12 -0.27,0.34 -0.63,0.63 -1.1,0.86 l -1.61,0.82 z"
       id="path102" />
  </g>
  <path
     class="st25"
     d="m 294.31,325.94 0.13,0.18 c 1.61,0.43 3.13,1.13 4.63,1.84 2.38,-3.03 3.84,-6.72 4.15,-10.6 0,-0.06 0.07,-0.11 0.07,-0.12 0.01,-0.15 0,-0.31 0,-0.46 h -7.67 c -0.03,3.1 -0.52,6.18 -1.31,9.17 z"
     id="path103" />
  <path
     class="st25"
     d="m 275.22,325.43 c 2.41,-0.41 4.83,-0.81 7.28,-0.85 v -7.81 h -8.51 c 0.02,2.93 0.52,5.83 1.23,8.66 z"
     id="path104" />
  <path
     class="st25"
     d="m 293.32,316.77 h -8.51 v 7.81 c 2.45,0.04 4.88,0.43 7.28,0.85 0.71,-2.83 1.2,-5.73 1.23,-8.66 z"
     id="path105" />
  <path
     class="st25"
     d="m 280.53,334.35 c 0.57,0.41 1.28,0.82 1.97,0.91 v -8.35 c -2.19,0.07 -4.37,0.33 -6.52,0.77 1.03,2.46 2.34,5.09 4.55,6.67 z"
     id="path106" />
  <path
     class="st25"
     d="m 284.8,326.9 v 8.35 c 1.77,-0.35 3.29,-1.91 4.31,-3.35 0.92,-1.3 1.58,-2.77 2.21,-4.23 -2.14,-0.45 -4.33,-0.71 -6.52,-0.77 z"
     id="path107" />
  <path
     class="st25"
     d="m 293.54,328.33 c -0.1,0.06 -0.78,1.85 -0.93,2.16 -0.66,1.37 -1.51,2.65 -2.44,3.84 2.21,-0.77 4.31,-1.97 6.1,-3.48 0.27,-0.23 0.86,-0.7 1.04,-0.96 0.04,-0.07 0.11,-0.08 0.08,-0.19 -0.76,-0.29 -1.5,-0.65 -2.26,-0.93 -0.27,-0.1 -1.41,-0.53 -1.57,-0.43 z"
     id="path108" />
  <path
     class="st25"
     d="m 302.71,310.66 c -0.7,-2.7 -1.95,-5.2 -3.64,-7.39 -1.5,0.7 -3.02,1.41 -4.63,1.84 l -0.13,0.18 c 0.79,2.98 1.27,6.07 1.31,9.17 h 7.67 v -0.54 l -0.57,-3.25 z"
     id="path109" />
  <path
     class="st25"
     d="m 273.99,314.45 h 8.51 v -7.81 c -2.45,-0.04 -4.87,-0.44 -7.28,-0.85 -0.71,2.83 -1.21,5.73 -1.23,8.66 z"
     id="path110" />
  <path
     class="st25"
     d="m 292.09,305.79 c -2.41,0.42 -4.83,0.81 -7.28,0.85 v 7.81 h 8.51 c -0.02,-2.93 -0.52,-5.83 -1.23,-8.66 z"
     id="path111" />
  <path
     class="st25"
     d="m 278.22,299.27 c -0.94,1.31 -1.61,2.79 -2.24,4.28 2.15,0.44 4.33,0.71 6.52,0.77 v -8.35 c -1.77,0.36 -3.25,1.87 -4.28,3.3 z"
     id="path112" />
  <path
     class="st25"
     d="m 288.45,298.44 c -0.92,-1.08 -2.22,-2.22 -3.64,-2.47 v 8.35 c 2.19,-0.07 4.37,-0.33 6.52,-0.77 -0.77,-1.79 -1.61,-3.61 -2.87,-5.11 z"
     id="path113" />
  <path
     class="st25"
     d="m 293.54,302.89 c 0.17,0.11 1.31,-0.33 1.57,-0.43 0.77,-0.28 1.5,-0.65 2.26,-0.93 0.03,-0.12 -0.03,-0.13 -0.08,-0.19 -0.18,-0.26 -0.77,-0.74 -1.04,-0.96 -1.79,-1.51 -3.89,-2.71 -6.1,-3.48 0.94,1.19 1.78,2.47 2.44,3.84 0.15,0.3 0.83,2.1 0.93,2.16 z"
     id="path114" />
  <path
     class="st51"
     d="m 272.99,326 c -0.74,-3.02 -1.28,-6.11 -1.3,-9.23 h -7.67 c 0.23,4.07 1.73,8.04 4.25,11.21 1.46,-0.78 3.01,-1.39 4.59,-1.86 l 0.12,-0.11 z"
     id="path115" />
  <path
     class="st51"
     d="m 272.99,305.22 -0.12,-0.11 c -1.58,-0.47 -3.13,-1.08 -4.59,-1.86 -2.53,3.16 -4.03,7.13 -4.25,11.21 h 7.67 c 0.02,-3.12 0.55,-6.22 1.3,-9.23 z"
     id="path116" />
  <path
     class="st51"
     d="m 273.76,302.89 c 0.85,-2.14 1.91,-4.21 3.37,-6 -2.21,0.78 -4.3,1.96 -6.1,3.48 -0.27,0.23 -0.86,0.7 -1.04,0.96 -0.04,0.07 -0.11,0.08 -0.08,0.19 0.52,0.19 3.54,1.55 3.84,1.36 z"
     id="path117" />
  <path
     class="st51"
     d="m 269.92,329.69 c -0.03,0.12 0.03,0.13 0.08,0.19 0.18,0.26 0.77,0.74 1.04,0.96 1.79,1.52 3.89,2.7 6.1,3.48 -1.47,-1.78 -2.52,-3.86 -3.37,-6 -1.33,0.19 -2.58,0.89 -3.84,1.36 z"
     id="path118" />
  <path
     class="st12"
     d="m 285.15,293.51 2.24,0.29 c 18.08,3.15 24.77,26.21 10.8,38.72 -12.87,11.53 -33.28,3.86 -36.03,-13.1 l -0.28,-2.28 c 0.04,-0.92 -0.05,-1.86 0,-2.78 0.64,-11.04 9.66,-20.2 20.53,-20.85 z m -2.65,10.86 v -8.08 c -3.12,1.1 -4.87,4.32 -6.07,7.25 0.05,0.1 0.13,0.1 0.22,0.13 0.43,0.15 1.47,0.27 1.98,0.34 1.29,0.18 2.59,0.22 3.88,0.36 z m 2.57,0 c 1.29,-0.14 2.59,-0.18 3.88,-0.36 0.5,-0.07 1.55,-0.19 1.98,-0.34 0.09,-0.03 0.17,-0.03 0.22,-0.13 -1.2,-2.92 -2.95,-6.16 -6.07,-7.25 v 8.08 z m -8.3,-6.86 c -1.95,0.68 -3.87,1.85 -5.43,3.22 -0.14,0.12 -0.99,0.82 -0.9,0.95 l 3.42,1.27 1.64,-3.46 1.27,-1.97 z m 20.36,4.17 c 0.1,-0.14 -0.83,-0.91 -0.99,-1.04 -1.53,-1.32 -3.44,-2.47 -5.34,-3.13 l 1.81,2.98 1.09,2.45 3.42,-1.27 z m -32.59,12.77 h 7.27 c 0.02,-3.05 0.51,-6.09 1.28,-9.03 -1.56,-0.43 -3.07,-1.06 -4.49,-1.81 -2.37,3.06 -3.92,6.93 -4.06,10.85 z m 38.49,0 c -0.14,-3.92 -1.7,-7.78 -4.06,-10.85 -1.43,0.75 -2.93,1.4 -4.49,1.81 0.77,2.94 1.26,5.98 1.28,9.03 h 7.27 z m -20.53,-7.47 c -1.12,-0.12 -2.25,-0.14 -3.37,-0.27 -1.19,-0.14 -2.37,-0.4 -3.55,-0.59 -0.75,2.7 -1.17,5.52 -1.2,8.33 h 8.13 v -7.47 z m 2.57,0 v 7.47 h 8.13 c -0.03,-2.82 -0.46,-5.63 -1.2,-8.34 -1.18,0.21 -2.36,0.46 -3.56,0.6 -1.12,0.13 -2.25,0.15 -3.37,0.27 z m -13.26,10.08 h -7.27 c 0.14,3.92 1.7,7.78 4.06,10.85 1.43,-0.76 2.94,-1.39 4.49,-1.81 -0.77,-2.94 -1.26,-5.98 -1.28,-9.03 z m 10.69,0 h -8.13 c 0.03,2.82 0.46,5.63 1.2,8.34 2.28,-0.48 4.6,-0.72 6.92,-0.87 v -7.47 z m 10.69,0 h -8.13 v 7.47 c 2.32,0.15 4.65,0.38 6.92,0.87 0.74,-2.71 1.17,-5.52 1.2,-8.34 z m 9.84,0 h -7.27 c -0.02,3.05 -0.52,6.09 -1.28,9.03 1.57,0.41 3.07,1.06 4.49,1.81 2.36,-3.07 3.92,-6.92 4.06,-10.85 z m -20.53,10.08 c -1.29,0.13 -2.59,0.18 -3.88,0.36 -0.5,0.07 -1.55,0.19 -1.98,0.34 -0.09,0.03 -0.17,0.03 -0.22,0.13 1.2,2.92 2.95,6.16 6.07,7.25 v -8.08 z m 2.57,8.07 c 3.12,-1.1 4.87,-4.33 6.07,-7.25 -0.05,-0.1 -0.13,-0.1 -0.22,-0.13 -0.43,-0.15 -1.47,-0.27 -1.98,-0.34 -1.29,-0.18 -2.59,-0.23 -3.88,-0.36 v 8.08 z m -8.3,-1.21 -1.27,-1.97 -1.64,-3.46 -3.42,1.27 c -0.09,0.13 0.76,0.83 0.9,0.95 1.56,1.36 3.48,2.53 5.43,3.22 z m 20.36,-4.17 -3.42,-1.27 -1.09,2.45 -1.81,2.98 c 1.9,-0.66 3.81,-1.81 5.34,-3.13 0.15,-0.13 1.08,-0.9 0.99,-1.04 z"
     id="path119" />
  <path
     class="st51"
     d="m 256.15,312.82 0.22,0.35 c -0.19,1.33 -0.19,2.66 -0.12,3.99 l -0.25,0.32 c 0.24,5.54 1.59,9.74 4.73,14.3 l 0.43,0.16 c 0.67,0.97 1.39,1.9 2.21,2.75 l 0.08,0.46 c 3.27,3.29 7.07,5.49 11.44,7.04 0.84,0.84 0.11,2.15 -1.05,1.95 -1.07,-0.18 -3.26,-1.23 -4.29,-1.75 -3.69,-1.86 -7.71,-5.1 -10.16,-8.42 -0.1,-0.02 -0.19,-0.04 -0.28,-0.08 -0.43,-0.19 -2.02,-2.93 -2.3,-3.56 l 0.03,-0.52 c -1.21,-2.33 -1.97,-4.53 -2.5,-7.09 -0.5,-0.54 -1.07,-3.21 -0.84,-3.78 0.04,-0.1 0.09,-0.18 0.16,-0.27 -0.22,-2.87 0.05,-5.71 0.65,-8.5 l -0.19,-0.21 c 0.34,-1.18 0.66,-2.37 0.96,-3.57 l 0.28,-0.17 c 0.91,-2 1.79,-3.99 3.03,-5.82 -0.01,-0.1 -0.02,-0.2 -0.02,-0.29 0.04,-0.55 1.93,-2.97 2.63,-3.15 0.44,-0.5 2.41,-2.52 2.92,-2.6 0.95,-0.15 1.51,0.67 1.25,1.56 -0.12,0.4 -1.69,1.71 -2.1,2.17 -3.85,4.27 -6.1,9 -6.91,14.72 z"
     id="path120" />
  <path
     class="st14"
     d="m 253.66,318.67 c 0.1,1.34 0.41,2.73 0.69,4.05 -3.39,-0.25 -6.05,-3.39 -5.86,-6.76 2.06,0.08 3.94,1.1 5.17,2.72 z"
     id="path121" />
  <path
     class="st14"
     d="m 260.99,296.97 c -0.91,1.03 -1.84,2.3 -2.61,3.44 -1.82,-2.34 -1.67,-5.81 0.2,-8.09 0.59,-0.73 0.72,-0.9 1.29,-0.08 0.95,1.35 1.27,3.09 1.12,4.73 z"
     id="path122" />
  <path
     class="st14"
     d="m 255.35,306.23 c 0,0.81 -0.82,2.93 -1.04,3.94 -2.95,-1.7 -3.88,-5.33 -2.69,-8.44 1.58,0.27 3.73,2.97 3.73,4.5 z"
     id="path123" />
  <path
     class="st14"
     d="m 256.15,312.82 0.92,-0.88 c 1.06,-0.72 2.29,-1.56 3.62,-1.51 0.38,3.08 -1.65,6.3 -4.7,7.05 -0.08,-1.87 -0.11,-2.77 0.15,-4.66 z"
     id="path124" />
  <path
     class="st14"
     d="m 257.04,330.17 c 0.63,1.3 1.48,2.58 2.27,3.79 -3.49,1.07 -7.39,-1.03 -8.52,-4.49 2.09,-0.73 4.38,-0.44 6.25,0.71 z"
     id="path125" />
  <path
     class="st14"
     d="m 260.65,331.71 0.11,-1.27 c 0.32,-1.24 0.69,-2.69 1.73,-3.53 2.32,2.06 2.91,5.82 1.12,8.4 -1.3,-1.35 -1.92,-2.01 -2.96,-3.6 z"
     id="path126" />
  <path
     class="st51"
     d="m 311.4,312.82 -0.22,0.35 c 0.19,1.33 0.19,2.66 0.12,3.99 l 0.25,0.32 c -0.24,5.54 -1.59,9.74 -4.73,14.3 l -0.43,0.16 c -0.67,0.97 -1.39,1.9 -2.21,2.75 l -0.08,0.46 c -3.27,3.29 -7.07,5.49 -11.44,7.04 -0.84,0.84 -0.11,2.15 1.05,1.95 1.07,-0.18 3.26,-1.23 4.29,-1.75 3.69,-1.86 7.71,-5.1 10.16,-8.42 0.1,-0.02 0.19,-0.04 0.28,-0.08 0.43,-0.19 2.02,-2.93 2.3,-3.56 l -0.03,-0.52 c 1.21,-2.33 1.97,-4.53 2.5,-7.09 0.5,-0.54 1.07,-3.21 0.84,-3.78 -0.04,-0.1 -0.09,-0.18 -0.16,-0.27 0.22,-2.87 -0.05,-5.71 -0.65,-8.5 l 0.19,-0.21 c -0.34,-1.18 -0.66,-2.37 -0.96,-3.57 l -0.28,-0.17 c -0.91,-2 -1.79,-3.99 -3.03,-5.82 0.01,-0.1 0.02,-0.2 0.02,-0.29 -0.04,-0.55 -1.93,-2.97 -2.63,-3.15 -0.44,-0.5 -2.41,-2.52 -2.92,-2.6 -0.95,-0.15 -1.51,0.67 -1.25,1.56 0.12,0.4 1.69,1.71 2.1,2.17 3.85,4.27 6.1,9 6.91,14.72 z"
     id="path127" />
  <path
     class="st14"
     d="m 313.9,318.67 c -0.1,1.34 -0.41,2.73 -0.69,4.05 3.39,-0.25 6.05,-3.39 5.86,-6.76 -2.06,0.08 -3.94,1.1 -5.17,2.72 z"
     id="path128" />
  <path
     class="st14"
     d="m 306.56,296.97 c 0.91,1.03 1.84,2.3 2.61,3.44 1.82,-2.34 1.67,-5.81 -0.2,-8.09 -0.59,-0.73 -0.72,-0.9 -1.29,-0.08 -0.95,1.35 -1.27,3.09 -1.12,4.73 z"
     id="path129" />
  <path
     class="st14"
     d="m 312.2,306.23 c 0,0.81 0.82,2.93 1.04,3.94 2.95,-1.7 3.88,-5.33 2.69,-8.44 -1.58,0.27 -3.73,2.97 -3.73,4.5 z"
     id="path130" />
  <path
     class="st14"
     d="m 311.4,312.82 -0.92,-0.88 c -1.06,-0.72 -2.29,-1.56 -3.62,-1.51 -0.38,3.08 1.65,6.3 4.7,7.05 0.08,-1.87 0.11,-2.77 -0.15,-4.66 z"
     id="path131" />
  <path
     class="st14"
     d="m 310.51,330.17 c -0.63,1.3 -1.48,2.58 -2.27,3.79 3.49,1.07 7.39,-1.03 8.52,-4.49 -2.09,-0.73 -4.38,-0.44 -6.25,0.71 z"
     id="path132" />
  <path
     class="st14"
     d="m 306.91,331.71 -0.11,-1.27 c -0.32,-1.24 -0.69,-2.69 -1.73,-3.53 -2.32,2.06 -2.91,5.82 -1.12,8.4 1.3,-1.35 1.92,-2.01 2.96,-3.6 z"
     id="path133" />
  <path
     class="st41"
     d="m 97.46,174.81 c -1.6,1.15 -4.7,3.71 -6.75,8.12 -2.72,5.82 -1.89,11.18 -1.51,13.05 1.17,-0.61 5.84,-3.21 8.11,-9.03 2.27,-5.83 0.6,-10.9 0.15,-12.14 z"
     id="path134" />
  <path
     class="st27"
     d="m 115.26,353.72 c -2.62,-0.14 -4.85,1.93 -4.97,4.63 -0.13,2.7 1.89,4.99 4.51,5.13 2.62,0.14 4.85,-1.93 4.97,-4.63 0.13,-2.7 -1.89,-4.99 -4.51,-5.13 z"
     id="path135" />
  <path
     class="st27"
     d="m 106.11,355.08 c -1.66,-0.09 -3.08,1.23 -3.16,2.94 -0.08,1.71 1.2,3.17 2.86,3.26 1.66,0.09 3.08,-1.23 3.16,-2.94 0.08,-1.71 -1.2,-3.17 -2.86,-3.26 z"
     id="path136" />
  <path
     class="st27"
     d="m 97.42,323.91 c -2.42,-1.07 -5.21,0.07 -6.24,2.54 -1.03,2.47 0.09,5.35 2.5,6.42 2.42,1.07 5.21,-0.07 6.24,-2.54 1.03,-2.47 -0.09,-5.35 -2.5,-6.42 z"
     id="path137" />
  <path
     class="st27"
     d="m 100.26,316.97 c -1.53,-0.68 -3.31,0.04 -3.97,1.61 -0.66,1.57 0.06,3.39 1.59,4.08 1.53,0.68 3.31,-0.04 3.97,-1.61 0.66,-1.57 -0.06,-3.39 -1.59,-4.08 z"
     id="path138" />
  <path
     class="st27"
     d="m 73.26,253.27 c -1.53,-0.68 -3.31,0.04 -3.97,1.61 -0.66,1.57 0.06,3.39 1.59,4.08 1.53,0.68 3.31,-0.04 3.97,-1.61 0.66,-1.57 -0.06,-3.39 -1.59,-4.08 z"
     id="path139" />
  <path
     class="st27"
     d="m 86.27,288.25 c -2.47,-0.22 -4.64,1.66 -4.85,4.2 -0.21,2.54 1.62,4.78 4.09,5.01 2.47,0.22 4.64,-1.66 4.85,-4.2 0.21,-2.54 -1.62,-4.78 -4.09,-5.01 z"
     id="path140" />
  <path
     class="st27"
     d="m 77.58,289.22 c -1.57,-0.14 -2.95,1.05 -3.08,2.67 -0.13,1.62 1.03,3.04 2.6,3.18 1.57,0.14 2.95,-1.05 3.08,-2.67 0.13,-1.62 -1.03,-3.04 -2.6,-3.18 z"
     id="path141" />
  <path
     class="st27"
     d="m 75.95,232.78 c 2.23,1.08 4.93,0.08 6.02,-2.22 1.09,-2.31 0.16,-5.05 -2.07,-6.13 -2.23,-1.08 -4.93,-0.08 -6.02,2.22 -1.09,2.31 -0.17,5.05 2.07,6.13 z"
     id="path142" />
  <path
     class="st27"
     d="m 84.42,234.94 c 1.42,0.68 3.13,0.05 3.82,-1.41 0.69,-1.46 0.1,-3.21 -1.31,-3.89 -1.42,-0.68 -3.13,-0.05 -3.82,1.41 -0.69,1.46 -0.1,3.21 1.31,3.89 z"
     id="path143" />
  <path
     class="st27"
     d="m 85.72,204.95 c 1.69,0.82 3.74,0.06 4.57,-1.69 0.83,-1.75 0.13,-3.83 -1.57,-4.65 -1.69,-0.82 -3.74,-0.06 -4.57,1.69 -0.83,1.75 -0.13,3.83 1.57,4.65 z"
     id="path144" />
  <path
     class="st27"
     d="m 80.33,253.45 c -2.47,-0.22 -4.64,1.66 -4.85,4.2 -0.21,2.54 1.62,4.78 4.09,5.01 2.47,0.22 4.64,-1.66 4.85,-4.2 0.21,-2.54 -1.62,-4.78 -4.09,-5.01 z"
     id="path145" />
  <path
     class="st1"
     d="m 146.15,162.93 c -3.8,-0.03 -6.9,3.03 -6.93,6.83 l -0.94,127 c -0.38,51.77 45.1,94.22 101.38,94.64 56.28,0.42 102.38,-41.36 102.76,-93.13 l 0.94,-126.86 c 0.03,-3.87 -3.09,-7.04 -6.96,-7.07 l -190.26,-1.4 z M 334.26,296 c -0.35,47.61 -42.75,86.04 -94.52,85.66 -51.77,-0.38 -93.6,-39.43 -93.25,-87.05 l 0.88,-119.12 c 0.02,-2.22 1.83,-4 4.04,-3.99 l 179.74,1.33 c 2.22,0.02 4,1.83 3.99,4.04 l -0.88,119.12 z"
     id="path146" />
  <path
     class="st49"
     d="m 221.28,189.93 c 2.89,0.58 5.66,-0.14 8.61,0.7 3.12,0.89 5.16,3.6 7.06,6.53 1.75,0.24 3.47,0.9 5.03,2.02 2.16,1.54 4.87,4.13 7.5,6.93 1.85,-0.97 2.21,-3.62 3.74,-5.33 2.86,-3.17 7.99,-8.01 12.11,-10.99 -0.67,-0.42 -1.47,-1.01 -2.29,-1.81 -1.02,-1.01 -1.62,-1.91 -1.79,-2.17 -1.15,-1.7 -6.47,-8.15 -11.7,-9.17 -4,-0.78 -3.87,2.42 -12.37,4.89 -6.99,2.03 -12.14,0.15 -15.66,4.88 -0.66,0.88 -1.51,1.84 -2.47,2.79 0.9,0.34 1.68,0.6 2.22,0.71 z"
     id="path147" />
  <path
     class="st23"
     d="m 147.41,232.02 176.74,1.3 c -1.76,-4.47 -7.85,-5.73 -10,-9.55 -2.95,-5.25 -4.25,-12.17 -9.34,-17.45 -1.81,-1.87 -4.06,-1.63 -5.5,-2.68 -1.4,-1.02 -2.3,-4.15 -4.75,-5.72 -2.7,-1.73 -5.55,-1.36 -7.76,-2.51 -1.86,-0.96 -2.84,-3.95 -4.27,-5.33 -3.98,-3.82 -10.14,-4.73 -14.9,-1.94 -4.31,2.53 -10.96,8.71 -14.38,12.5 -1.92,2.13 -2,5.75 -5.44,5.7 -9.08,-0.13 -10.11,-13.63 -17.9,-15.86 -2.95,-0.85 -5.72,-0.12 -8.61,-0.7 -1.97,-0.4 -6.97,-2.75 -10.01,-3.7 -5.14,-1.61 -9.99,-4.15 -15.63,-2.12 -0.47,0.17 -7.91,5.62 -8.21,6.05 -0.75,1.09 -1.09,4.37 -2.12,6.35 -5.35,10.38 -12.1,7.49 -18.11,13.44 -3.37,3.34 -4.32,11.82 -10.09,14.93 -3.12,1.68 -6.61,1.44 -9.73,1.87 v 5.41 z"
     id="path148" />
  <path
     class="st3"
     d="m 334.8,215.36 c -0.88,-0.63 -1.98,-1.44 -3.34,-3.25 -2.77,-3.66 -2.01,-5.27 -4.27,-8.99 -0.68,-1.12 -3.91,-5.77 -9.11,-8.07 -5.92,-2.62 -11.09,0.46 -16.54,2.37 -3.23,1.13 -8.55,3.97 -10.63,4.43 -3.07,0.68 -5.97,-0.27 -9.1,0.73 -8.26,2.64 -9.58,19.41 -19.17,19.42 -3.63,0 -3.65,-4.5 -5.65,-7.18 -3.55,-4.77 -10.47,-12.57 -14.98,-15.79 -4.99,-3.56 -11.5,-2.53 -15.77,2.16 -1.54,1.69 -2.62,5.39 -4.6,6.56 -2.36,1.39 -5.36,0.88 -8.24,2.98 -2.61,1.91 -3.61,5.79 -5.11,7.03 -1.54,1.28 -3.91,0.93 -5.85,3.23 -2.86,3.4 -4.63,7.37 -6.13,11.32 l 138.49,1.09 z"
     id="path149" />
  <path
     class="st42"
     d="m 328.62,103.12 c -1.88,-1.16 -3.95,-2.27 -6.16,-3.33 l 0.35,0.12 0.86,-2.57 c 0.25,-0.74 -0.14,-1.54 -0.87,-1.79 l -2.59,-0.9 c -0.72,-0.25 -1.51,0.14 -1.76,0.88 l -0.72,2.16 c -0.92,-0.38 -1.86,-0.75 -2.82,-1.12 l 0.68,-2.04 c 0.25,-0.74 -0.14,-1.54 -0.87,-1.79 l -2.59,-0.9 c -0.72,-0.25 -1.51,0.14 -1.76,0.88 l -0.68,2.03 c -0.95,-0.31 -1.91,-0.61 -2.89,-0.9 l 0.71,-2.12 c 0.25,-0.74 -0.14,-1.54 -0.87,-1.79 l -2.59,-0.9 c -0.72,-0.25 -1.51,0.14 -1.76,0.88 l -0.81,2.44 C 294.4,90.52 286.6,89.01 278.27,87.9 l 0.18,-2.78 c 0.05,-0.78 -0.53,-1.45 -1.29,-1.5 l -2.9,-0.19 c -0.76,-0.05 -1.42,0.54 -1.47,1.32 l -0.16,2.48 c -1.03,-0.11 -2.06,-0.22 -3.1,-0.32 l 0.15,-2.37 c 0.05,-0.78 -0.53,-1.45 -1.29,-1.5 l -2.9,-0.19 c -0.76,-0.05 -1.42,0.54 -1.47,1.32 l -0.14,2.26 c -1.03,-0.07 -2.07,-0.15 -3.11,-0.21 l 0.14,-2.26 c 0.05,-0.78 -0.53,-1.45 -1.29,-1.5 l -2.9,-0.19 c -0.76,-0.05 -1.42,0.54 -1.47,1.32 l -0.15,2.35 c -4.84,-0.19 -9.79,-0.26 -14.82,-0.19 -4.08,0.06 -8.1,0.2 -12.06,0.43 l -0.29,-2.52 c -0.09,-0.77 -0.78,-1.33 -1.54,-1.24 l -2.88,0.34 c -0.76,0.09 -1.31,0.79 -1.22,1.56 l 0.26,2.24 c -1.04,0.08 -2.08,0.17 -3.11,0.26 l -0.24,-2.13 c -0.09,-0.77 -0.78,-1.33 -1.54,-1.24 l -2.88,0.34 c -0.76,0.09 -1.31,0.79 -1.22,1.56 l 0.23,2.04 c -1.04,0.12 -2.07,0.24 -3.09,0.37 l -0.23,-2.04 c -0.09,-0.77 -0.78,-1.33 -1.54,-1.24 l -2.88,0.34 c -0.76,0.09 -1.31,0.79 -1.22,1.56 l 0.25,2.15 c -9.09,1.36 -17.56,3.17 -25.2,5.35 l 0.06,-0.02 -0.93,-2.55 c -0.27,-0.73 -1.06,-1.1 -1.78,-0.83 l -2.57,0.97 c -0.72,0.27 -1.08,1.08 -0.82,1.81 l 0.83,2.27 -2.88,0.94 -0.78,-2.14 c -0.27,-0.73 -1.06,-1.1 -1.78,-0.83 l -2.57,0.97 c -0.72,0.27 -1.08,1.08 -0.82,1.81 l 0.77,2.1 c -0.95,0.38 -1.89,0.77 -2.8,1.17 l -0.8,-2.2 c -0.27,-0.73 -1.06,-1.1 -1.78,-0.83 l -2.57,0.97 c -0.72,0.27 -1.08,1.08 -0.82,1.81 l 0.93,2.55 0.5,-0.19 c -2.16,1.09 -4.18,2.21 -6.02,3.38 l 11.17,26.9 c 18.51,-8.02 45.8,-13.31 76.3,-13.73 31.37,-0.44 59.48,4.36 78.22,12.25 0,-0.06 -0.01,-0.11 0,-0.18 l 9.68,-27.17 z"
     id="path150" />
  <path
     class="st24"
     d="m 240.7,138.71 c 28.2,0 53.57,4.31 71.32,11.18 l 2.25,-5.76 c -17.81,-7.39 -44.16,-12.07 -73.56,-12.07 -29.4,0 -54.04,4.38 -71.8,11.36 -0.16,0.08 -0.31,0.17 -0.47,0.25 l 2.27,5.72 c 17.67,-6.58 42.49,-10.67 69.99,-10.67 z"
     id="path151" />
  <g
     class="st47"
     clip-path="url(#clippath)"
     id="g193"
     transform="translate(0,-198)">
    <rect
       class="st17"
       x="138.99001"
       y="257.95999"
       width="0.31"
       height="81.010002"
       id="rect151" />
    <rect
       class="st17"
       x="139.3"
       y="257.95999"
       width="3.02"
       height="81.010002"
       id="rect152" />
    <rect
       class="st17"
       x="142.32001"
       y="257.95999"
       width="3.02"
       height="81.010002"
       id="rect153" />
    <rect
       class="st17"
       x="145.34"
       y="257.95999"
       width="3.02"
       height="81.010002"
       id="rect154" />
    <rect
       class="st17"
       x="148.36"
       y="257.95999"
       width="3.02"
       height="81.010002"
       id="rect155" />
    <rect
       class="st17"
       x="151.38"
       y="257.95999"
       width="3.02"
       height="81.010002"
       id="rect156" />
    <rect
       class="st17"
       x="154.39999"
       y="257.95999"
       width="3.02"
       height="81.010002"
       id="rect157" />
    <rect
       class="st17"
       x="157.41"
       y="257.95999"
       width="3.02"
       height="81.010002"
       id="rect158" />
    <rect
       class="st17"
       x="160.42999"
       y="257.95999"
       width="3.02"
       height="81.010002"
       id="rect159" />
    <rect
       class="st17"
       x="163.45"
       y="257.95999"
       width="3.02"
       height="81.010002"
       id="rect160" />
    <rect
       class="st19"
       x="166.47"
       y="257.95999"
       width="3.02"
       height="81.010002"
       id="rect161" />
    <rect
       class="st31"
       x="169.49001"
       y="257.95999"
       width="3.02"
       height="81.010002"
       id="rect162" />
    <rect
       class="st45"
       x="172.50999"
       y="257.95999"
       width="3.02"
       height="81.010002"
       id="rect163" />
    <rect
       class="st45"
       x="175.52"
       y="257.95999"
       width="3.02"
       height="81.010002"
       id="rect164" />
    <rect
       class="st38"
       x="178.53999"
       y="257.95999"
       width="3.02"
       height="81.010002"
       id="rect165" />
    <rect
       class="st43"
       x="181.56"
       y="257.95999"
       width="3.02"
       height="81.010002"
       id="rect166" />
    <rect
       class="st43"
       x="184.58"
       y="257.95999"
       width="3.02"
       height="81.010002"
       id="rect167" />
    <rect
       class="st36"
       x="187.60001"
       y="257.95999"
       width="3.02"
       height="81.010002"
       id="rect168" />
    <rect
       class="st52"
       x="190.62"
       y="257.95999"
       width="3.02"
       height="81.010002"
       id="rect169" />
    <rect
       class="st16"
       x="193.63"
       y="257.95999"
       width="3.02"
       height="81.010002"
       id="rect170" />
    <rect
       class="st33"
       x="196.64999"
       y="257.95999"
       width="3.02"
       height="81.010002"
       id="rect171" />
    <rect
       class="st9"
       x="199.67"
       y="257.95999"
       width="3.02"
       height="81.010002"
       id="rect172" />
    <rect
       class="st11"
       x="202.69"
       y="257.95999"
       width="3.02"
       height="81.010002"
       id="rect173" />
    <rect
       class="st10"
       x="205.71001"
       y="257.95999"
       width="3.02"
       height="81.010002"
       id="rect174" />
    <rect
       class="st22"
       x="208.73"
       y="257.95999"
       width="3.02"
       height="81.010002"
       id="rect175" />
    <rect
       class="st39"
       x="211.74001"
       y="257.95999"
       width="3.02"
       height="81.010002"
       id="rect176" />
    <rect
       class="st29"
       x="214.75999"
       y="257.95999"
       width="3.02"
       height="81.010002"
       id="rect177" />
    <rect
       class="st2"
       x="217.78"
       y="257.95999"
       width="3.02"
       height="81.010002"
       id="rect178" />
    <rect
       class="st18"
       x="220.8"
       y="257.95999"
       width="3.02"
       height="81.010002"
       id="rect179" />
    <rect
       class="st48"
       x="223.82001"
       y="257.95999"
       width="3.02"
       height="81.010002"
       id="rect180" />
    <rect
       class="st28"
       x="226.83"
       y="257.95999"
       width="3.02"
       height="81.010002"
       id="rect181" />
    <rect
       class="st8"
       x="229.85001"
       y="257.95999"
       width="3.02"
       height="81.010002"
       id="rect182" />
    <rect
       class="st46"
       x="232.87"
       y="257.95999"
       width="3.02"
       height="81.010002"
       id="rect183" />
    <rect
       class="st6"
       x="235.89"
       y="257.95999"
       width="3.02"
       height="81.010002"
       id="rect184" />
    <rect
       class="st7"
       x="238.91"
       y="257.95999"
       width="3.02"
       height="81.010002"
       id="rect185" />
    <rect
       class="st40"
       x="241.92999"
       y="257.95999"
       width="3.02"
       height="81.010002"
       id="rect186" />
    <rect
       class="st26"
       x="244.94"
       y="257.95999"
       width="3.02"
       height="81.010002"
       id="rect187" />
    <rect
       class="st50"
       x="247.96001"
       y="257.95999"
       width="3.02"
       height="81.010002"
       id="rect188" />
    <rect
       class="st5"
       x="250.98"
       y="257.95999"
       width="3.02"
       height="81.010002"
       id="rect189" />
    <rect
       class="st44"
       x="254"
       y="257.95999"
       width="3.02"
       height="81.010002"
       id="rect190" />
    <rect
       class="st4"
       x="257.01999"
       y="257.95999"
       width="3.02"
       height="81.010002"
       id="rect191" />
    <rect
       class="st20"
       x="260.04001"
       y="257.95999"
       width="3.02"
       height="81.010002"
       id="rect192" />
    <rect
       class="st20"
       x="263.04999"
       y="257.95999"
       width="80.660004"
       height="81.010002"
       id="rect193" />
  </g>
</svg>
