<?xml version="1.0" encoding="UTF-8"?>
<svg id="Camada_1" xmlns="http://www.w3.org/2000/svg" xmlns:xlink="http://www.w3.org/1999/xlink" version="1.1" viewBox="0 0 1190.55 841.89">
  <!-- Generator: Adobe Illustrator 29.3.1, SVG Export Plug-In . SVG Version: 2.1.0 Build 151)  -->
  <defs>
    <style>
      .st0 {
        fill: none;
      }

      .st1 {
        fill: #123d67;
      }

      .st2 {
        fill: #f0ac10;
      }

      .st3 {
        fill: #a45b4c;
      }

      .st4 {
        fill: #d99202;
      }

      .st5 {
        fill: #dd9704;
      }

      .st6 {
        fill: #e7a30b;
      }

      .st7 {
        fill: #e5a109;
      }

      .st8 {
        fill: #eaa60d;
      }

      .st9 {
        fill: #f5b313;
      }

      .st10 {
        fill: #f4b112;
      }

      .st11 {
        fill: #f5b213;
      }

      .st12 {
        fill: #47767a;
      }

      .st13 {
        fill: #008d3c;
      }

      .st14 {
        fill: #99c350;
      }

      .st15 {
        fill: #1c4c8d;
      }

      .st16 {
        fill: #f7b414;
      }

      .st17 {
        fill: #fab816;
      }

      .st18 {
        fill: #efab0f;
      }

      .st19 {
        fill: #fab716;
      }

      .st20 {
        fill: #d68f00;
      }

      .st21 {
        fill: #fabd00;
      }

      .st22 {
        fill: #f3b012;
      }

      .st23 {
        fill: #975240;
      }

      .st24 {
        fill: #d78f05;
      }

      .st25 {
        fill: #fff;
      }

      .st26 {
        fill: #e29c07;
      }

      .st27 {
        fill: #ce1619;
      }

      .st28 {
        fill: #eca80d;
      }

      .st29 {
        fill: #f1ae10;
      }

      .st30 {
        fill: #f6af04;
      }

      .st31 {
        fill: #f9b716;
      }

      .st32 {
        fill: #02a5db;
      }

      .st33 {
        fill: #f6b314;
      }

      .st34 {
        fill: #d88f05;
      }

      .st35 {
        fill: #008b3c;
      }

      .st36 {
        fill: #f8b514;
      }

      .st37 {
        fill: #2962ab;
      }

      .st38 {
        fill: #f9b615;
      }

      .st39 {
        fill: #f2af11;
      }

      .st40 {
        fill: #e49f08;
      }

      .st41 {
        fill: #009845;
      }

      .st42 {
        fill: #c47d13;
      }

      .st43 {
        fill: #f8b615;
      }

      .st44 {
        fill: #db9503;
      }

      .st45 {
        fill: #f9b715;
      }

      .st46 {
        fill: #e9a50c;
      }

      .st47 {
        clip-path: url(#clippath);
      }

      .st48 {
        fill: #edaa0e;
      }

      .st49 {
        fill: #81443b;
      }

      .st50 {
        fill: #e09a06;
      }

      .st51 {
        fill: #9fced3;
      }

      .st52 {
        fill: #f7b514;
      }
    </style>
    <clipPath id="clippath">
      <path class="st0" d="M341.97,277.81l-3.89-1.62c-.95-.39-2-.1-2.64.64l-2.59,6.27-1.93-.85-1.27-.53,2.31-5.56c.49-1.18-.07-2.54-1.25-3.03l-3.89-1.62c-1.18-.49-2.54.07-3.03,1.25l-2.51,6.03h0s1.3,8.36,1.3,8.36h0s-8.53,20.51-8.53,20.51c-4.58-1.84-9.48-3.53-14.67-5.03l4.19-21.13,5.67-6.4h0s1.27-6.41,1.27-6.41c.25-1.25-.57-2.47-1.82-2.72l-4.13-.82c-1.25-.25-2.47.57-2.72,1.82l-1.17,5.91-3.2-.63,1.17-5.91c.25-1.25-.57-2.47-1.82-2.72l-4.13-.82c-1.25-.25-2.47.57-2.72,1.82l-1.17,5.91-3.62-.72,1.17-5.91c.25-1.25-.57-2.47-1.82-2.72l-4.13-.82c-1.25-.25-2.47.57-2.72,1.82l-1.27,6.41h0s2.93,7.94,2.93,7.94h0s-4.13,20.83-4.13,20.83c-6.57-1-13.41-1.72-20.44-2.12v-21.21h0s4.42-7.22,4.42-7.22h0v-6.53c0-1.28-1.04-2.32-2.32-2.32h-4.21c-1.28,0-2.32,1.04-2.32,2.32v6.03h-3.69v-6.03c0-1.28-1.04-2.32-2.32-2.32h-4.21c-1.28,0-2.32,1.04-2.32,2.32v6.03h-3.26v-6.03c0-1.28-1.04-2.32-2.32-2.32h-4.21c-1.28,0-2.32,1.04-2.32,2.32v6.53h0l4.32,7.38v21.02c-6.99.37-14.09,1.07-21.24,2.13l-4.12-20.79h0s2.93-7.94,2.93-7.94h0s-1.27-6.41-1.27-6.41c-.25-1.25-1.47-2.07-2.72-1.82l-4.13.82c-1.25.25-2.07,1.47-1.82,2.72l1.17,5.91-3.62.72-1.17-5.91c-.25-1.25-1.47-2.07-2.72-1.82l-4.13.82c-1.25.25-2.07,1.47-1.82,2.72l1.17,5.91-3.2.63-1.17-5.91c-.25-1.25-1.47-2.07-2.72-1.82l-4.13.82c-1.25.25-2.07,1.47-1.82,2.72l1.27,6.41h0s5.67,6.4,5.67,6.4l4.12,20.81c-5.37,1.42-10.73,3.06-16.08,4.94l-8.36-20.09h0s1.3-8.37,1.3-8.37h0s-2.51-6.03-2.51-6.03c-.49-1.18-1.85-1.74-3.03-1.25l-3.89,1.62c-1.18.49-1.74,1.85-1.25,3.03l2.31,5.56-1.27.53-1.93.85-2.59-6.27c-.64-.74-1.69-1.03-2.64-.64l-3.89,1.62c-1.18.49-1.74,1.85-1.25,3.03l2.51,6.03h0s6.82,5.15,6.82,5.15l8.17,19.64s-.05.02-.08.03l.5,1.25s0,0,0,0c.26.62,1.82,4.54,2.11,5.26h.02s8.19,20.14,8.19,20.14c34.51-15.75,113.89-15.56,147.78.63-.13-.18,9.61-25.37,9.62-25.55,0,0-.02-.01-.03-.02,0,0,.08-.2.23-.57-.02-.01-.04-.02-.06-.03l8.65-20.79,6.82-5.15h0s2.51-6.03,2.51-6.03c.49-1.18-.07-2.54-1.25-3.03Z"/>
    </clipPath>
  </defs>
  <g>
    <path class="st1" d="M476.07,468.5h-17.2c-.63,0-1.02.38-1.02,1.02v42.39c0,.63.38,1.02,1.02,1.02h8.19c.63,0,1.08-.38,1.08-1.02v-12.12h7.93c11.04,0,17.32-5.77,17.32-15.67s-6.28-15.61-17.32-15.61ZM475.81,490.27h-7.68v-12.31h7.68c4.76,0,6.98,2.03,6.98,6.16s-2.22,6.16-6.98,6.16Z"/>
    <path class="st1" d="M509.07,468.5h-8.19c-.63,0-1.02.38-1.02,1.02v42.39c0,.63.38,1.02,1.02,1.02h8.19c.63,0,1.08-.38,1.08-1.02v-42.39c0-.63-.44-1.02-1.08-1.02Z"/>
    <path class="st1" d="M557.8,468.5h-8.19c-.63,0-1.02.38-1.02,1.02v26.27h-.13l-18.91-26.65c-.32-.44-.76-.63-1.33-.63h-7.93c-.63,0-1.02.38-1.02,1.02v42.39c0,.63.38,1.02,1.02,1.02h8.19c.63,0,1.08-.38,1.08-1.02v-26.21h.06l18.91,26.59c.32.44.76.63,1.27.63h8c.63,0,1.08-.38,1.08-1.02v-42.39c0-.63-.44-1.02-1.08-1.02Z"/>
    <path class="st1" d="M584.01,468.5h-14.98c-.63,0-1.02.38-1.02,1.02v42.39c0,.63.38,1.02,1.02,1.02h14.98c13.33,0,22.59-9.14,22.59-22.21s-9.26-22.21-22.59-22.21ZM583.82,503.4h-5.52v-25.38h5.52c7.49,0,12.18,4.76,12.18,12.69s-4.7,12.69-12.18,12.69Z"/>
    <path class="st1" d="M636.87,469.33c-.19-.57-.7-.82-1.27-.82h-9.52c-.51,0-1.02.25-1.21.82l-16.56,42.39c-.32.76.06,1.21.82,1.21h8.5c.57,0,1.02-.19,1.21-.82l2.54-6.92h18.97l2.54,6.92c.19.63.63.82,1.14.82h8.63c.76,0,1.08-.44.82-1.21l-16.63-42.39ZM624.75,496.11l6.03-16.37h.19l6.03,16.37h-12.25Z"/>
    <path class="st1" d="M706.87,468.5h-9.46c-.57,0-1.02.19-1.27.76l-12.56,22.59h-.19l-12.63-22.59c-.25-.57-.7-.76-1.27-.76h-9.46c-.63,0-1.02.38-1.02,1.02v42.39c0,.63.38,1.02,1.02,1.02h8.19c.63,0,1.02-.38,1.02-1.02v-26.46h.13l9.9,17.2c.25.57.7.76,1.21.76h6.03c.51,0,.95-.19,1.21-.76l9.84-17.2h.19v26.46c0,.63.38,1.02,1.02,1.02h8.12c.63,0,1.08-.38,1.08-1.02v-42.39c0-.63-.44-1.02-1.08-1.02Z"/>
    <path class="st1" d="M738.47,467.68c-13.14,0-23.16,9.96-23.16,23.03s10.03,23.03,23.16,23.03,23.16-9.96,23.16-23.03-10.03-23.03-23.16-23.03ZM738.47,504.1c-7.61,0-12.63-5.65-12.63-13.39s5.01-13.39,12.63-13.39,12.63,5.65,12.63,13.39-5.01,13.39-12.63,13.39Z"/>
    <path class="st1" d="M807.51,468.5h-8.19c-.63,0-1.02.38-1.02,1.02v26.27h-.13l-18.91-26.65c-.32-.44-.76-.63-1.33-.63h-7.93c-.63,0-1.02.38-1.02,1.02v42.39c0,.63.38,1.02,1.02,1.02h8.19c.63,0,1.08-.38,1.08-1.02v-26.21h.06l18.91,26.59c.32.44.76.63,1.27.63h8c.63,0,1.08-.38,1.08-1.02v-42.39c0-.63-.44-1.02-1.08-1.02Z"/>
    <path class="st1" d="M854.85,468.5h-8.19c-.63,0-1.02.38-1.02,1.02v17.13h-17.64v-17.13c0-.63-.44-1.02-1.08-1.02h-8.19c-.63,0-1.02.38-1.02,1.02v42.39c0,.63.38,1.02,1.02,1.02h8.19c.63,0,1.08-.38,1.08-1.02v-15.67h17.64v15.67c0,.63.38,1.02,1.02,1.02h8.19c.63,0,1.02-.38,1.02-1.02v-42.39c0-.63-.38-1.02-1.02-1.02Z"/>
    <path class="st1" d="M889.95,469.33c-.19-.57-.7-.82-1.27-.82h-9.52c-.51,0-1.02.25-1.21.82l-16.56,42.39c-.32.76.06,1.21.82,1.21h8.5c.57,0,1.02-.19,1.21-.82l2.54-6.92h18.97l2.54,6.92c.19.63.63.82,1.14.82h8.63c.76,0,1.08-.44.82-1.21l-16.63-42.39ZM877.83,496.11l6.03-16.37h.19l6.03,16.37h-12.25Z"/>
    <path class="st1" d="M950.61,468.5h-8.19c-.63,0-1.02.38-1.02,1.02v26.27h-.13l-18.91-26.65c-.32-.44-.76-.63-1.33-.63h-7.93c-.63,0-1.02.38-1.02,1.02v42.39c0,.63.38,1.02,1.02,1.02h8.19c.63,0,1.08-.38,1.08-1.02v-26.21h.06l18.91,26.59c.32.44.76.63,1.27.63h8c.63,0,1.08-.38,1.08-1.02v-42.39c0-.63-.44-1.02-1.08-1.02Z"/>
    <path class="st1" d="M1003.48,487.6h-19.93c-.63,0-1.08.38-1.08,1.08v5.84c0,.63.44,1.02,1.08,1.02h10.79c-1.08,5.52-5.33,8.63-11.55,8.63-8.06,0-13.2-5.14-13.2-13.45s5.01-13.45,12.82-13.45c4.76,0,8.5,2.03,9.9,5.33.25.57.63.82,1.21.82h9.01c.7,0,1.14-.38.89-1.14-2.28-8.69-10.66-14.59-21-14.59-13.58,0-23.35,10.09-23.35,23.03s9.77,23.03,23.42,23.03c12.76,0,22.08-8.76,22.08-21.89v-3.17c0-.7-.44-1.08-1.08-1.08Z"/>
    <path class="st1" d="M1034.83,469.33c-.19-.57-.7-.82-1.27-.82h-9.52c-.51,0-1.02.25-1.21.82l-16.56,42.39c-.32.76.06,1.21.82,1.21h8.5c.57,0,1.02-.19,1.21-.82l2.54-6.92h18.97l2.54,6.92c.19.63.63.82,1.14.82h8.63c.76,0,1.08-.44.82-1.21l-16.63-42.39ZM1022.71,496.11l6.03-16.37h.19l6.03,16.37h-12.25Z"/>
    <path class="st1" d="M1084.58,489.95v-.13c3.62-1.52,5.65-4.76,5.65-9.33,0-7.42-5.33-11.99-16.12-11.99h-16.12c-.63,0-1.02.38-1.02,1.02v42.39c0,.63.38,1.02,1.02,1.02h19.04c10.72,0,16.18-4.7,16.18-12.44,0-5.96-3.24-9.65-8.63-10.53ZM1067.13,476.94h6.47c4.51,0,6.22,1.46,6.22,4.57s-1.71,4.57-6.22,4.57h-6.47v-9.14ZM1076.01,504.48h-8.88v-10.09h8.88c4.82,0,6.66,1.52,6.66,5.01s-1.84,5.08-6.66,5.08Z"/>
    <path class="st1" d="M1141.25,511.72l-16.63-42.39c-.19-.57-.7-.82-1.27-.82h-9.52c-.51,0-1.02.25-1.21.82l-16.56,42.39c-.32.76.06,1.21.82,1.21h8.5c.57,0,1.02-.19,1.21-.82l2.54-6.92h18.97l2.54,6.92c.19.63.63.82,1.14.82h8.63c.76,0,1.08-.44.82-1.21ZM1112.5,496.11l6.03-16.37h.19l6.03,16.37h-12.25Z"/>
    <path class="st1" d="M458.93,454.06h1.52c.56,0,.91-.35.91-.91v-11.79h10.07c8.05,0,12.55-4.25,12.55-11.39s-4.5-11.34-12.55-11.34h-12.5c-.56,0-.91.35-.91.91v33.61c0,.56.35.91.91.91ZM461.36,421.66h9.72c6.43,0,9.47,2.83,9.47,8.3s-3.04,8.3-9.47,8.3h-9.72v-16.6Z"/>
    <path class="st1" d="M509.55,440.14c5.06-1.37,7.85-5.26,7.85-10.48,0-6.73-4.56-11.03-12.5-11.03h-12.45c-.56,0-.91.35-.91.91v33.61c0,.56.35.91.91.91h1.52c.56,0,.91-.35.91-.91v-12.35h5.97c7.34,0,11.64,3.64,13.21,12.45.05.51.4.81.96.81h1.67c.61,0,.91-.35.81-.96-1.11-6.83-3.9-11.08-7.95-12.96ZM494.87,437.66v-15.99h9.62c6.38,0,9.47,2.94,9.47,8.05s-3.09,7.95-9.47,7.95h-9.62Z"/>
    <path class="st1" d="M527.36,454.06h21.87c.61,0,.91-.35.91-.91v-1.27c0-.56-.3-.86-.91-.86h-19.44v-13.16h15.54c.56,0,.91-.3.91-.86v-1.32c0-.56-.35-.86-.91-.86h-15.54v-13.16h19.28c.56,0,.91-.3.91-.86v-1.27c0-.56-.35-.91-.91-.91h-21.71c-.56,0-.91.35-.91.91v33.61c0,.56.35.91.91.91Z"/>
    <path class="st1" d="M579.24,437.51v-1.32c0-.56-.3-.86-.86-.86h-16.65v-13.67h19.08c.56,0,.91-.3.91-.86v-1.27c0-.56-.35-.91-.91-.91h-21.51c-.56,0-.91.35-.91.91v33.61c0,.56.35.91.91.91h1.52c.56,0,.91-.35.91-.91v-14.78h16.65c.56,0,.86-.3.86-.86Z"/>
    <path class="st1" d="M590.28,454.06h21.87c.61,0,.91-.35.91-.91v-1.27c0-.56-.3-.86-.91-.86h-19.44v-13.16h15.54c.56,0,.91-.3.91-.86v-1.32c0-.56-.35-.86-.91-.86h-15.54v-13.16h19.28c.56,0,.91-.3.91-.86v-1.27c0-.56-.35-.91-.91-.91h-21.71c-.56,0-.91.35-.91.91v33.61c0,.56.35.91.91.91Z"/>
    <rect class="st1" x="621.3" y="418.63" width="3.34" height="35.43" rx=".91" ry=".91"/>
    <path class="st1" d="M657.54,418.63h-25.31c-.56,0-.86.35-.86.91v1.32c0,.56.3.86.86.86h10.98v31.43c0,.56.35.91.91.91h1.52c.56,0,.91-.35.91-.91v-31.43h10.98c.56,0,.86-.3.86-.86v-1.32c0-.56-.3-.91-.86-.91Z"/>
    <path class="st1" d="M678.45,454.51c8.35,0,13.82-5.26,13.82-14.63v-20.35c0-.56-.35-.91-.91-.91h-1.52c-.56,0-.86.35-.86.91v19.94c0,7.9-4.05,11.84-10.53,11.84s-10.53-3.95-10.53-11.84v-19.94c0-.56-.35-.91-.91-.91h-1.52c-.56,0-.86.35-.86.91v20.35c0,9.36,5.42,14.63,13.82,14.63Z"/>
    <path class="st1" d="M724.36,453.25c.05.51.4.81.96.81h1.67c.61,0,.91-.35.81-.96-1.11-6.83-3.9-11.08-7.95-12.96,5.06-1.37,7.85-5.26,7.85-10.48,0-6.73-4.56-11.03-12.5-11.03h-12.45c-.56,0-.91.35-.91.91v33.61c0,.56.35.91.91.91h1.52c.56,0,.91-.35.91-.91v-12.35h5.97c7.34,0,11.64,3.64,13.21,12.45ZM705.17,437.66v-15.99h9.62c6.38,0,9.47,2.94,9.47,8.05s-3.09,7.95-9.47,7.95h-9.62Z"/>
    <path class="st1" d="M750.98,419.29c-.2-.46-.56-.66-1.06-.66h-1.47c-.51,0-.86.2-1.01.66l-14.32,33.71c-.25.61,0,1.06.66,1.06h1.57c.51,0,.86-.2,1.06-.71l3.34-8.05h18.88l3.34,8.05c.2.51.61.71,1.06.71h1.57c.66,0,.91-.46.66-1.06l-14.27-33.71ZM741.01,442.32l8.15-19.49h.1l8.1,19.49h-16.35Z"/>
    <path class="st1" d="M820.12,453.15v-33.61c0-.56-.35-.91-.91-.91h-1.72c-.46,0-.81.15-1.06.61l-14.27,22.32h-.1l-14.27-22.32c-.25-.46-.61-.61-1.06-.61h-1.72c-.56,0-.91.35-.91.91v33.61c0,.56.35.91.91.91h1.52c.56,0,.91-.35.91-.91v-28.7h.05l12.91,20.15c.25.46.61.61,1.11.61h1.27c.46,0,.81-.15,1.06-.61l12.96-20.15h.05v28.7c0,.56.3.91.86.91h1.52c.56,0,.91-.35.91-.91Z"/>
    <path class="st1" d="M856.46,418.63h-1.52c-.56,0-.86.35-.86.91v19.94c0,7.9-4.05,11.84-10.53,11.84s-10.53-3.95-10.53-11.84v-19.94c0-.56-.35-.91-.91-.91h-1.52c-.56,0-.86.35-.86.91v20.35c0,9.36,5.42,14.63,13.82,14.63s13.82-5.26,13.82-14.63v-20.35c0-.56-.35-.91-.91-.91Z"/>
    <path class="st1" d="M867.85,454.06h1.52c.56,0,.91-.35.91-.91v-29.05h.05l21.97,29.41c.3.4.61.56,1.06.56h1.62c.61,0,.91-.35.91-.91v-33.61c0-.56-.3-.91-.91-.91h-1.47c-.56,0-.91.35-.91.91v29.1h-.05l-22.02-29.46c-.3-.4-.66-.56-1.11-.56h-1.57c-.56,0-.91.35-.91.91v33.61c0,.56.35.91.91.91Z"/>
    <rect class="st1" x="906.01" y="418.63" width="3.34" height="35.43" rx=".91" ry=".91"/>
    <path class="st1" d="M935.67,421.31c6.28,0,11.14,3.34,12.76,8.91.15.51.51.81,1.01.81h1.67c.61,0,.96-.4.76-1.01-2.02-7.49-8.45-11.84-16.2-11.84-10.58,0-18.07,8-18.07,18.17s7.49,18.17,18.07,18.17c7.74,0,14.17-4.3,16.2-11.79.2-.61-.15-1.06-.76-1.06h-1.67c-.51,0-.86.3-1.01.81-1.62,5.57-6.48,8.91-12.76,8.91-8.6,0-14.63-6.28-14.63-15.03s6.02-15.03,14.63-15.03Z"/>
    <rect class="st1" x="960.37" y="418.63" width="3.34" height="35.43" rx=".91" ry=".91"/>
    <path class="st1" d="M974.75,454.06h1.52c.56,0,.91-.35.91-.91v-11.79h10.07c8.05,0,12.55-4.25,12.55-11.39s-4.51-11.34-12.55-11.34h-12.5c-.56,0-.91.35-.91.91v33.61c0,.56.35.91.91.91ZM977.18,421.66h9.72c6.43,0,9.47,2.83,9.47,8.3s-3.04,8.3-9.47,8.3h-9.72v-16.6Z"/>
    <path class="st1" d="M1000.56,454.06h1.57c.51,0,.86-.2,1.06-.71l3.34-8.05h18.88l3.34,8.05c.2.51.61.71,1.06.71h1.57c.66,0,.91-.46.66-1.06l-14.27-33.71c-.2-.46-.56-.66-1.06-.66h-1.47c-.51,0-.86.2-1.01.66l-14.32,33.71c-.25.61,0,1.06.66,1.06ZM1015.95,422.83h.1l8.1,19.49h-16.35l8.15-19.49Z"/>
    <path class="st1" d="M1039.48,454.06h20.45c.61,0,.91-.35.91-.91v-1.32c0-.56-.3-.86-.91-.86h-18.02v-31.43c0-.56-.35-.91-.91-.91h-1.52c-.56,0-.91.35-.91.91v33.61c0,.56.35.91.91.91Z"/>
    <path class="st1" d="M1081.44,454.06h9.16c11.14,0,18.63-7.39,18.63-17.72s-7.49-17.72-18.63-17.72h-9.16c-.56,0-.91.35-.91.91v33.61c0,.56.35.91.91.91ZM1083.87,421.72h6.63c9.57,0,15.29,5.92,15.29,14.63s-5.72,14.63-15.29,14.63h-6.63v-29.26Z"/>
    <path class="st1" d="M1118.39,454.06h21.87c.61,0,.91-.35.91-.91v-1.27c0-.56-.3-.86-.91-.86h-19.44v-13.16h15.54c.56,0,.91-.3.91-.86v-1.32c0-.56-.35-.86-.91-.86h-15.54v-13.16h19.28c.56,0,.91-.3.91-.86v-1.27c0-.56-.35-.91-.91-.91h-21.71c-.56,0-.91.35-.91.91v33.61c0,.56.35.91.91.91Z"/>
  </g>
  <path class="st1" d="M330.25,571.75c-.26-.07-.41.04-.62.13-1.24.51-3.62,2.56-4.92,3.41-52.8,34.41-118.84,32.61-170.22-3.68-.54-.38-3.37-2.81-3.75-2.58l-3.17,18.82-17.03,7.24c-.14.07-.48.02-.36.32s4.61,3.57,5.28,4.06c62.09,45.14,146.07,46.14,209.31,2.91.9-.96,3.01-1.79,3.74-2.81.09-.12.22-.29,0-.35l-17.39-9.84-.88-17.61Z"/>
  <path class="st1" d="M242.12,634.36c-37.6,0-75.13-11.57-106.85-34.63-5.23-3.8-5.34-4.08-5.4-4.21-.09-.22-.05-.38,0-.47.11-.21.34-.25.47-.28l16.92-7.18,3.16-18.79.14-.08c.37-.22.92.05,3.44,2.06.31.25.56.45.68.54,25.22,17.81,54.4,27.6,84.39,28.29,30.13.7,59.67-7.81,85.45-24.62.46-.3,1.07-.76,1.72-1.25,1.19-.91,2.43-1.84,3.26-2.19l.09-.04c.18-.08.42-.19.75-.1l.24.07.89,17.67,17.23,9.75c.16.04.24.19.27.27.08.24-.07.45-.15.57-.45.63-1.29,1.15-2.1,1.65-.64.39-1.29.8-1.67,1.21-31.01,21.2-66.99,31.77-102.91,31.77ZM130.66,595.4c.56.48,2.47,1.93,5.01,3.78,61.79,44.92,145.75,46.08,208.92,2.9.38-.42,1.08-.86,1.76-1.27.73-.45,1.49-.92,1.86-1.41l-17.41-9.84-.88-17.45s-.03.01-.05.02l-.12.05c-.75.31-2,1.26-3.11,2.1-.66.5-1.27.97-1.76,1.28-25.9,16.88-55.56,25.44-85.84,24.73-30.13-.7-59.44-10.53-84.77-28.42-.13-.09-.39-.3-.72-.56-.57-.45-1.95-1.56-2.56-1.88l-3.14,18.65-17.2,7.31h-.02ZM348.39,599.5s.03.02.03.02l-.03-.02Z"/>
  <path class="st1" d="M242.14,637.39c-38.23,0-76.4-11.76-108.65-35.21-5.92-4.3-6.01-4.53-6.41-5.5-.42-1.01-.37-2.13.14-3.07.28-.51.93-1.38,2.25-1.74l15.09-6.42,2.86-17.01c.16-.97.75-1.82,1.59-2.33,2.3-1.37,4.22.17,6.88,2.3.24.19.44.35.55.44,24.71,17.45,53.32,27.05,82.7,27.73,29.51.69,58.46-7.66,83.73-24.13.37-.24.97-.69,1.54-1.13,1.65-1.25,2.82-2.11,3.93-2.57.35-.16,1.41-.64,2.8-.26,1.4.38,2.4,1.62,2.47,3.08l.79,15.76,15.65,8.85c.83.41,1.47,1.12,1.77,1.99.22.64.44,1.92-.55,3.31-.8,1.12-1.96,1.83-2.97,2.47-.36.22-.91.56-1.07.72-.17.18-.34.33-.55.47-31.48,21.52-68.04,32.25-104.54,32.25ZM136.64,596.14c.26.19.53.39.81.59,60.68,44.11,143.1,45.31,205.19,3.02,0,0,0,0,.01-.01l-13.18-7.45c-1-.57-1.65-1.61-1.7-2.76l-.6-11.86c-.22.16-.43.3-.63.43-25.4,16.56-54.39,25.26-84.04,25.26-1.17,0-2.35-.01-3.52-.04-30.48-.71-60.13-10.57-85.81-28.52l-2.29,13.6c-.19,1.13-.94,2.09-2,2.54l-12.25,5.21ZM129.1,592.04s0,0,0,0c0,0,0,0,0,0ZM129.11,592.03s0,0,0,0c0,0,0,0,0,0Z"/>
  <path class="st1" d="M242.14,637.73c-39.46,0-77.1-12.2-108.85-35.28-6-4.36-6.1-4.61-6.53-5.64-.46-1.11-.4-2.33.16-3.36.29-.54,1.01-1.51,2.46-1.9l14.87-6.33,2.83-16.82c.18-1.07.82-2.01,1.75-2.57,2.5-1.49,4.6.19,7.27,2.33l.17.13c.16.13.29.23.37.29,24.66,17.42,53.19,26.98,82.51,27.66,29.43.69,58.32-7.64,83.53-24.07.37-.24,1.01-.73,1.52-1.11,1.67-1.27,2.86-2.14,4.01-2.61.37-.17,1.51-.69,3.02-.27,1.55.42,2.64,1.79,2.72,3.39l.78,15.57,15.48,8.76c.89.44,1.6,1.24,1.92,2.18.24.7.49,2.11-.59,3.62-.84,1.18-2.03,1.91-3.07,2.56-.33.2-.89.55-1.02.67-.17.18-.36.34-.59.5-30.92,21.13-67.13,32.31-104.73,32.31h0ZM129.22,592.32c-.99.38-1.48,1.06-1.7,1.46-.46.84-.5,1.85-.13,2.77.36.87.46,1.1,6.3,5.35,31.63,22.99,69.13,35.15,108.44,35.15h0c37.46,0,73.54-11.13,104.34-32.19.19-.13.34-.26.49-.42.18-.17.61-.45,1.12-.76,1.02-.63,2.14-1.33,2.9-2.39.9-1.26.7-2.42.5-3-.27-.77-.85-1.43-1.6-1.8l-15.83-8.95-.8-15.95c-.07-1.31-.96-2.42-2.22-2.76-1.27-.35-2.24.1-2.56.24-1.08.45-2.23,1.29-3.86,2.53-.55.42-1.17.89-1.56,1.14-25.33,16.51-54.34,24.88-83.92,24.18-29.46-.68-58.12-10.29-82.89-27.79-.09-.07-.23-.18-.4-.31l-.17-.13c-2.65-2.12-4.39-3.52-6.49-2.27-.76.46-1.28,1.22-1.43,2.09l-2.89,17.19-15.26,6.49c-.11.03-.22.07-.33.1l.02.02-.06.03-.02-.03ZM242.12,630.99c-36.91,0-73.76-11.35-104.87-33.98l-1.3-.95,12.8-5.44c.95-.41,1.63-1.26,1.8-2.28l2.38-14.14.44.31c25.62,17.92,55.23,27.76,85.62,28.46,30.77.72,61.07-8.02,87.36-25.16.2-.13.4-.27.62-.42l.51-.37.63,12.49c.05,1.04.62,1.97,1.53,2.48l13.57,7.67-.32.32c-30.38,20.7-65.61,31.01-100.77,31.01ZM137.33,596.22l.32.24c60.39,43.9,142.44,45.2,204.36,3.31l-12.7-7.18c-1.11-.63-1.81-1.77-1.88-3.04l-.56-11.24s-.09.06-.13.09c-26.41,17.22-56.87,25.99-87.75,25.27-30.35-.7-59.92-10.48-85.55-28.28l-2.2,13.07c-.21,1.25-1.04,2.3-2.21,2.8l-11.7,4.97Z"/>
  <path class="st41" d="M92.24,566.53c7.52,11.19,23.71,18.75,35.36,9.46-9.06-8.94-23.17-14.68-35.36-9.46Z"/>
  <path class="st41" d="M131.47,538.95c-10.31,7.52-9.86,25.19-.53,33.24,7.04-9.45,5.56-23.13.53-33.24Z"/>
  <path class="st41" d="M70.9,530.03c5.94,11.97,19.46,23.93,32.92,16.56-7.67-10.38-19.61-19.38-32.92-16.56Z"/>
  <path class="st41" d="M106.77,544.22c1.21,1,4.09-3.26,4.69-4.15,5.51-8.04,6.68-18.62,3.83-27.94-12.49,4.96-13.45,20.89-8.53,32.09Z"/>
  <path class="st41" d="M60.21,491.2c1.84,12.53,13.45,24.74,26.33,22.36-4.16-11.36-14.05-21.6-26.33-22.36Z"/>
  <path class="st41" d="M90.16,511.59c7.85-3.11,12.71-13.05,13.64-21.34.14-1.28.75-6.72-.71-6.88-11.96,4.54-14.98,16.09-12.93,28.22Z"/>
  <path class="st41" d="M56.85,452.67c.87,13.09,7.78,26.4,21.89,27.19-1.82-11.87-9.82-24.74-21.89-27.19Z"/>
  <path class="st41" d="M83.02,478.64c8.22-1.62,14.39-9.7,16.93-17.59.43-1.34,2.47-7.23.77-7.48-12.02,2.36-18.36,12.79-17.7,25.07Z"/>
  <path class="st41" d="M63.74,418.28c-2.11,9.69,1.76,19.91,11.02,23.67.7-8.68-2.52-20.38-11.02-23.67Z"/>
  <path class="st41" d="M81.75,442.7c8.49-1.63,15.01-7,17.77-15.54-9-.78-17.21,6.16-17.77,15.54Z"/>
  <path class="st41" d="M74.21,394.34c-1.9,6.4.11,15.92,6.84,18.44.52-6.3-.68-15.41-6.84-18.44Z"/>
  <path class="st41" d="M85.9,414.48c6.09-.78,12.92-4.26,14.55-10.79-6.78-.33-12.73,4.08-14.55,10.79Z"/>
  <path class="st35" d="M117.67,506.47c-12.84,3.13-19.36,16.65-17.55,29.44-9.42-7.55-22.38-14.7-34.02-7.91,17.18,44.99,67.09,23.08,51.57-21.53ZM115.3,512.13c2.84,9.32,1.68,19.89-3.83,27.94-.61.88-3.48,5.15-4.69,4.15-4.93-11.2-3.96-27.12,8.53-32.09ZM70.9,530.03c13.3-2.82,25.25,6.18,32.92,16.56-13.46,7.36-26.98-4.59-32.92-16.56Z"/>
  <path class="st13" d="M94.86,553.26c-10.74,0-22.42-7.21-29.24-25.07-.09-.24,0-.5.22-.63,9.25-5.4,20.56-2.98,33.62,7.18-1.15-11.76,4.64-25.49,18.09-28.77.26-.06.52.08.61.33,8.11,23.31-1.43,40.53-15.05,45.5-2.61.95-5.4,1.46-8.25,1.46ZM66.74,528.23c8.42,21.61,24.13,26.94,36.02,22.6,13.06-4.76,22.2-21.3,14.58-43.75-9.79,2.65-18.87,13.49-16.71,28.75.03.21-.07.41-.25.52s-.41.09-.58-.05c-12.93-10.37-24.05-13.09-33.06-8.08ZM95.29,549.38c-1.87,0-3.76-.3-5.67-.9-8.85-2.78-15.71-11.24-19.17-18.21-.07-.14-.07-.31,0-.45s.2-.25.36-.28c5.47-1.16,19.68-1.85,33.44,16.76.09.12.12.27.09.42-.03.14-.12.27-.25.34-2.84,1.55-5.78,2.33-8.78,2.33ZM71.67,530.41c3.46,6.67,9.96,14.48,18.26,17.09,4.52,1.42,8.93,1.06,13.12-1.08-12.76-16.94-25.74-17.01-31.38-16.01ZM107.2,544.88c-.28,0-.54-.09-.75-.27-.06-.05-.11-.12-.14-.19-3.33-7.58-3.73-16.36-1.05-22.91,1.9-4.65,5.31-8.06,9.85-9.86.13-.05.28-.05.41.01.13.06.23.18.27.31,3,9.83,1.54,20.44-3.9,28.38-2.01,2.94-3.43,4.36-4.5,4.51-.07,0-.13.01-.19.01ZM107.17,543.85s.04,0,.08,0c.34-.05,1.37-.53,3.75-4.01,5.21-7.6,6.66-17.63,3.97-27.02-4.07,1.76-7.01,4.81-8.76,9.08-2.57,6.26-2.19,14.66.97,21.95Z"/>
  <path class="st35" d="M132.11,533.21c-11.14,6.99-14.57,20.24-10.33,32.7-10.94-5.21-24.99-9.07-35.04-.05,26.52,40.59,71.41,6.61,45.38-32.65ZM92.24,566.53c12.19-5.22,26.3.52,35.36,9.46-11.66,9.29-27.85,1.73-35.36-9.46ZM130.94,572.19c-9.33-8.05-9.78-25.72.53-33.24,5.03,10.11,6.51,23.79-.53,33.24Z"/>
  <path class="st13" d="M114.89,584.71c-6.73,0-18.25-2.74-28.59-18.56-.14-.21-.1-.49.09-.66,8.02-7.2,19.63-7.37,34.54-.53-3.94-12.96.27-25.49,10.91-32.17.23-.15.55-.08.7.15,8.54,12.87,10.29,26.53,4.81,37.48-4.21,8.41-12.09,13.75-21.06,14.26-.44.03-.9.04-1.39.04ZM87.4,565.95c10.74,16.2,22.65,18.03,28.82,17.69,8.61-.49,16.16-5.61,20.2-13.7,5.25-10.49,3.61-23.59-4.47-36.03-10.21,6.68-14.02,19.11-9.7,31.83.07.2,0,.41-.15.55-.15.14-.38.17-.56.08-14.8-7.05-26.28-7.19-34.15-.42ZM115.67,580.68c-1.11,0-2.24-.09-3.39-.27-7.8-1.2-15.63-6.41-20.46-13.6-.09-.13-.11-.29-.07-.43s.15-.27.29-.33c12.64-5.41,27.15.91,35.93,9.57.1.1.16.25.15.39s-.08.28-.19.37c-3.55,2.83-7.74,4.29-12.26,4.29ZM93.03,566.76c4.69,6.68,12.07,11.5,19.41,12.63,5.32.82,10.28-.37,14.39-3.45-8.43-8.08-21.93-13.89-33.8-9.18ZM130.94,572.71c-.12,0-.24-.04-.33-.12-4.77-4.11-7.54-11.08-7.25-18.2.27-6.65,3.12-12.42,7.82-15.85.12-.09.28-.12.42-.08.15.04.27.13.34.27,4.54,9.12,7.12,23.44-.58,33.77-.09.11-.21.19-.36.2-.02,0-.04,0-.06,0ZM131.28,539.74c-4.15,3.28-6.66,8.59-6.91,14.69-.27,6.59,2.2,13.05,6.48,17,6.86-9.71,4.6-22.95.42-31.69Z"/>
  <path class="st35" d="M77.07,517.22c21.62,4.44,34.21-19.37,30.1-38.71-12.13,1.03-21.49,11.71-21.52,24.17-7.5-9.59-17.41-17.68-30.15-14.55.48,11.27,10.48,26.81,21.57,29.09ZM103.09,483.37c1.46.16.85,5.61.71,6.88-.93,8.29-5.78,18.23-13.64,21.34-2.05-12.13.97-23.68,12.93-28.22ZM86.55,513.56c-12.88,2.38-24.5-9.83-26.33-22.36,12.28.76,22.17,11,26.33,22.36Z"/>
  <path class="st13" d="M82.31,518.28c-1.67,0-3.45-.17-5.33-.56-11.26-2.31-21.5-18.19-21.98-29.57-.01-.24.15-.46.39-.52,10.49-2.59,20.25,1.88,29.8,13.63.71-12.17,10.1-22.26,21.95-23.27.28-.02.49.15.54.41,2.5,11.76-1.07,24.94-8.88,32.81-3.4,3.42-8.83,7.08-16.49,7.08ZM56.04,488.53c.7,10.98,10.45,25.99,21.14,28.19h0c10.09,2.07,16.93-2.24,20.89-6.23,7.48-7.53,10.94-20.1,8.69-31.42-11.56,1.22-20.57,11.51-20.6,23.62,0,.22-.14.41-.35.48-.21.07-.44,0-.57-.17-9.43-12.06-18.99-16.79-29.21-14.46ZM83.26,514.38c-4.12,0-8.2-1.38-11.98-4.08-6.06-4.34-10.5-11.62-11.58-19.01-.02-.15.03-.31.13-.42.11-.11.28-.16.41-.17,13.05.81,22.86,11.98,26.79,22.69.05.14.04.3-.04.43-.08.13-.2.22-.35.25-1.12.21-2.25.31-3.38.31ZM60.82,491.76c1.2,6.91,5.39,13.64,11.06,17.69,4.39,3.14,9.2,4.41,13.96,3.7-3.88-10.04-12.99-20.31-25.02-21.39ZM90.16,512.1c-.09,0-.17-.02-.25-.07-.13-.08-.23-.21-.25-.36-2.39-14.19,2.44-24.68,13.25-28.79.08-.03.16-.04.24-.03.3.03.57.19.77.45.69.87.82,3.16.39,7-.92,8.18-5.68,18.49-13.96,21.76-.06.02-.12.04-.19.04ZM103.09,483.91c-6,2.33-15.33,8.91-12.53,26.95,7.52-3.37,11.86-12.98,12.73-20.67.53-4.78.06-5.96-.17-6.25,0-.01-.02-.02-.02-.03Z"/>
  <path class="st35" d="M68.64,481.34c19.57,9.7,38.42-12.36,36.83-31.87-12.37-.32-22.08,6.56-25.49,18.9-4.99-8.06-9.85-15.98-19.33-18.89-1.71-.53-6.39-2.13-7.53-.63-.69,12.29,4.11,26.84,15.52,32.5ZM100.72,453.57c1.71.25-.33,6.14-.77,7.48-2.55,7.89-8.72,15.98-16.93,17.59-.66-12.28,5.68-22.71,17.7-25.07ZM78.74,479.86c-14.11-.79-21.02-14.1-21.89-27.19,12.07,2.45,20.06,15.31,21.89,27.19Z"/>
  <path class="st13" d="M78.37,484.21c-3.35,0-6.7-.8-9.95-2.41h0c-11.86-5.88-16.48-20.8-15.8-32.99,0-.1.04-.2.11-.28,1.12-1.47,4.36-.71,7.69.33l.4.12c9.27,2.84,14.29,10.52,19.01,18.13,3.69-11.72,13.2-18.5,25.67-18.16.26,0,.48.21.5.47.94,11.52-5.09,24.1-14.65,30.59-4.12,2.79-8.53,4.2-12.96,4.2ZM68.87,480.88c7.21,3.57,14.98,2.96,21.88-1.72,9.15-6.21,14.96-18.15,14.24-29.19-.12,0-.23,0-.35,0-11.95,0-20.95,6.88-24.17,18.53-.05.2-.22.34-.42.37-.2.03-.4-.06-.51-.24l-.07-.11c-5-8.08-9.72-15.72-18.97-18.55l-.41-.13c-1.37-.43-5.44-1.7-6.47-.79-.6,11.81,3.87,26.18,15.25,31.83h0ZM78.74,480.37s-.02,0-.03,0c-6.65-.37-12.28-3.55-16.3-9.2-3.45-4.85-5.6-11.41-6.07-18.47,0-.16.05-.32.17-.42.12-.1.28-.15.44-.12,8.97,1.82,19.78,11.24,22.29,27.61.02.15-.02.31-.13.42-.1.11-.24.17-.38.17ZM57.42,453.33c.96,11.49,6.91,24.82,20.71,25.98-2.55-15.09-12.33-23.93-20.71-25.98ZM83.02,479.16c-.11,0-.22-.04-.32-.11-.12-.09-.19-.23-.2-.38-.71-13.25,6.4-23.3,18.11-25.6.06-.01.11-.01.17,0,.35.05.63.24.82.54.76,1.22-.12,4.39-1.08,7.32l-.09.28c-2.31,7.16-8.23,16.15-17.32,17.94-.03,0-.07,0-.1,0ZM100.7,454.1c-10.94,2.21-17.63,11.55-17.19,23.91,8.32-1.97,13.79-10.39,15.96-17.12l.09-.28c1.48-4.53,1.46-6.01,1.18-6.46-.02-.03-.03-.04-.04-.05Z"/>
  <path class="st35" d="M104.03,424.03c-10.21-3.71-21.11,2.35-24.85,12.58-2.3-10.27-6.67-22.34-18.35-23.64-11.16,36.83,36.28,47.24,43.2,11.05ZM99.52,427.16c-2.75,8.54-9.28,13.92-17.77,15.54.56-9.38,8.76-16.32,17.77-15.54ZM63.74,418.28c8.5,3.3,11.71,15,11.02,23.67-9.26-3.76-13.13-13.99-11.02-23.67Z"/>
  <path class="st13" d="M80.59,447c-5.7,0-11.22-2.2-15.35-6.3-6.52-6.48-8.31-16.64-4.9-27.86.07-.24.29-.39.55-.36,11.68,1.29,16.15,13.01,18.43,22.46,4.42-9.81,15.25-14.88,24.89-11.38.24.09.38.33.33.58-2.13,11.15-8.45,19.12-17.34,21.87-2.18.67-4.4,1-6.6,1ZM61.2,413.54c-4.28,14.59,1.14,22.81,4.77,26.42,5.45,5.42,13.47,7.35,20.92,5.05,8.4-2.59,14.41-10.11,16.55-20.65-9.48-3.18-20.08,2.31-23.77,12.42-.08.21-.3.33-.52.34-.23-.02-.42-.18-.47-.4-2.07-9.24-6.12-21.64-17.48-23.19ZM81.75,443.21c-.12,0-.24-.04-.34-.13-.12-.1-.18-.26-.17-.42.28-4.66,2.38-8.9,5.91-11.95,3.49-3.02,7.9-4.46,12.42-4.07.16.01.3.1.38.23.09.13.11.29.06.44-2.75,8.53-9.2,14.17-18.16,15.89-.03,0-.06,0-.1,0ZM98.11,427.61c-3.75,0-7.37,1.35-10.3,3.88-3.15,2.72-5.09,6.45-5.5,10.57,8.01-1.74,13.83-6.84,16.5-14.43-.24-.01-.47-.02-.7-.02ZM74.76,442.47c-.07,0-.13-.01-.19-.04-8.99-3.65-13.64-13.62-11.32-24.26.03-.15.13-.27.26-.34.13-.07.29-.08.43-.03,6.4,2.49,12.36,11.59,11.34,24.19-.01.16-.1.31-.24.4-.08.05-.18.08-.27.08ZM64.12,419c-1.86,9.65,2.26,18.61,10.18,22.2.47-8.59-2.87-18.92-10.18-22.2Z"/>
  <path class="st35" d="M106.2,401.1c-5.65-1.58-11.4-2.1-16.46,1.41l-4.9,4.68c-.34-8.31-4.9-16.76-13.16-18.78-11.25,30.32,25.03,42.24,34.52,12.69ZM100.45,403.69c-1.63,6.53-8.46,10.01-14.55,10.79,1.82-6.71,7.77-11.12,14.55-10.79ZM74.21,394.34c6.16,3.03,7.36,12.14,6.84,18.44-6.74-2.52-8.74-12.03-6.84-18.44Z"/>
  <path class="st13" d="M86.69,418.64c-5,0-9.82-2.16-13.12-6.03-5.06-5.92-5.92-14.81-2.37-24.38.09-.24.35-.38.6-.32,8.49,2.07,12.81,10.42,13.48,18.14l4.1-3.92c5.72-3.96,12.06-2.9,16.95-1.53.13.04.25.13.31.25.07.12.08.27.04.4-2.99,9.32-9.03,15.53-16.58,17.04-1.14.23-2.28.34-3.41.34ZM72.01,389.03c-3.23,9.04-2.39,17.38,2.35,22.92,3.81,4.46,9.77,6.51,15.55,5.35,7.04-1.41,12.72-7.18,15.64-15.84-4.6-1.23-10.4-2.06-15.51,1.48l-4.83,4.63c-.14.14-.36.18-.55.1-.19-.08-.31-.25-.32-.46-.31-7.5-4.24-15.94-12.32-18.18ZM85.9,415c-.15,0-.29-.06-.39-.18-.11-.13-.15-.31-.11-.47,1.88-6.92,8.08-11.51,15.07-11.17.15,0,.3.08.39.21s.12.28.09.43c-1.76,7.06-9.17,10.43-14.98,11.18-.02,0-.04,0-.07,0ZM99.76,404.18c-5.98,0-11.22,3.87-13.13,9.67,5.17-.86,11.34-3.84,13.16-9.67h-.02ZM81.06,413.29c-.06,0-.12-.01-.18-.03-6.8-2.54-9.23-12.08-7.16-19.06.04-.15.15-.26.29-.32.14-.06.3-.06.43,0,6.15,3.02,7.72,11.76,7.13,18.94-.01.16-.1.31-.24.39-.08.05-.18.08-.28.08ZM74.53,395.1c-1.96,7.58,1.47,14.71,6.06,16.93.36-6.21-1.02-13.97-6.06-16.93Z"/>
  <path class="st35" d="M99.74,368.24c-11.32,4.67-15.97,16.7-12.63,28.36,10.6-1.35,18.51-11.42,12.63-28.36ZM89.2,393.98c-.38-1.87-1.2-7.23,1.51-13.05,2.06-4.41,5.15-6.97,6.75-8.12.45,1.24,2.12,6.31-.15,12.14-2.27,5.83-6.94,8.42-8.11,9.03Z"/>
  <path class="st13" d="M87.11,397.11c-.23,0-.43-.15-.49-.37-3.56-12.45,1.76-24.37,12.93-28.98.13-.05.28-.05.41,0,.13.06.23.17.27.3,3.72,10.72,1.67,17.53-.7,21.36-2.65,4.28-7.04,7-12.36,7.68-.02,0-.04,0-.06,0ZM99.43,368.93c-10.2,4.5-15.07,15.52-11.95,27.1,4.81-.73,8.76-3.25,11.17-7.14,2.22-3.58,4.12-9.92.78-19.96ZM89.2,394.5c-.08,0-.15-.02-.22-.05-.15-.07-.25-.2-.28-.36-.53-2.62-1.03-7.84,1.55-13.37,1.94-4.16,4.83-6.82,6.92-8.32.13-.09.3-.12.45-.07.15.05.28.16.33.32.68,1.89,2.04,6.89-.16,12.5-2.19,5.61-6.57,8.37-8.35,9.3-.07.04-.16.06-.24.06ZM97.2,373.65c-1.92,1.48-4.35,3.9-6.03,7.5-2.25,4.82-2.04,9.39-1.6,12.04,1.92-1.12,5.41-3.7,7.26-8.42,1.85-4.73,1.02-9,.37-11.12Z"/>
  <path class="st24" d="M417.85,489.8l-.56-.21-8.8,6.2c1.09-1.69,2.53-3.15,3.65-4.81,7.94-11.84,10.71-27.02,9.08-41.09l-.67-.35c-6.76,6.92-12.43,14.87-16.97,23.44-1.27,2.39-2.23,5.16-3.5,7.45-.14.26-.41.88-.46.11l1.01-9.58c12.97-9.76,19.68-26.81,18.9-42.89-.3-6.24-1.9-13.05-3.75-18.94-1.17.18-4.53,7.76-5.7,8.89,3.66-15.54.63-32.34-7.98-45.7-.38.05-1.94,4.91-2.18,5.69-3.2,10.39-4.21,21.52-3.88,32.54-2.9-13.86-14.94-33.13-28.15-42.32-1.56,11.72,4.65,27.23,16,40.35-3.9-2.98-8.33-5.22-13.07-6.34,2.54,12.01,7.87,23.28,14.88,33.26.86,1.23,3.51,4.12,3.97,5.08.06.12.13.41-.07.4-2.46-2.34-4.96-4.78-7.83-6.64-.51-.33-2.63-1.81-3.05-1.28.46,11.07,2.21,21.99,6.14,32.37.67,1.78,1.95,3.51,2.19,5.45l-6.6-7.19c-1.24,3.57-1.71,7.51-2.06,11.31-.86,9.44-.42,18.94,1.61,28.23-.48-.02-.5-.47-.66-.79-1.27-2.55-2.39-5.21-4.27-7.39-.13-.15-.47-.59-.67-.33-5.01,12.27-8.77,25.3-8.53,38.7l-3.02-8.91-.49-.54c-11.06,14.3-17.77,32.16-18.48,50.33-.03.66-.35,4.5.4,4.44,4.31-3.09,8.14-6.47,11.39-10.67,22.06.97,42.75-17.3,49.3-37.5.25-.77.66-1.48.42-2.32-7.85,2.81-15.63,6.78-22.45,11.58-3.24,2.28-6.2,4.99-9.35,7.38-.21.16-.57.65-.82.3,1.95-2.68,3.71-5.52,5.09-8.54,23.03-4.26,37.98-26.93,40-49.16ZM410.23,499.64c.23-.19,1.88-1.45,1.99-1.36-3.37,14.83-13.54,28.92-27.88,34.69-.27-.2,1.58-3.51,1.85-4,5.65-10.14,15.03-22.02,24.05-29.33ZM393.25,485.58c-.11-.57-1.9-6.12-1.51-6.19l5.42,8.04-3,8.62c.13-3.38-.24-7.14-.91-10.48ZM392.63,507.31l8.19-4.59-10.85,13.26c-.42-.16-.01-.62.07-.86.9-2.58,2.06-5.1,2.59-7.8ZM412.33,465.83c.35-.54,4.86-7.09,5.22-6.73.1,15.59-6.79,32.1-19.97,40.92-.11-.6.07-1.21.23-1.78,3.1-11.06,8.27-22.79,14.53-32.42ZM400.55,435.74c1.85-2.33,3.61-4.68,5.23-7.18l-4.29,16.28-.94-9.1ZM414.04,419.32c.47.24.46.65.56,1.09.93,4.22,1.08,10.07.75,14.38-.77,9.99-4.56,20.66-11.68,27.8.45-14.86,4.02-29.86,10.38-43.26ZM401.98,385.8c.23-1.07.48-2.56,1.1-3.41,6.05,14.25,6.77,31.39-1.4,44.91-.88-2.17-.66-4.37-.89-6.53-1.27-11.82-1.3-23.29,1.19-34.96ZM400.52,451.44c-.23,3.25-.59,6.45-.72,9.72-.02.44.22.42-.45.45-.7-5.29-2.84-10.37-5.58-14.92-1.04-1.73-2.41-3.28-3.43-5.02,3.35,3.26,6.59,6.71,10.18,9.77ZM397.22,425.29c-.51-.01-.48-.5-.66-.8-.76-1.28-1.28-2.71-2.04-3.98-.79-1.32-1.67-2.59-2.61-3.83,1.39,1.22,2.83,2.41,4.32,3.55.12-.46.21-.95.28-1.45.19,2.18.42,4.36.7,6.5ZM386.14,396.39c.88,1.73,6.24,14.39,3.8,13.25-8.88-9.5-15.56-21.26-16.06-30.61,5.13,5.43,9.11,11.16,12.26,17.36ZM376.67,408.77c7.32,3.63,13.4,10.63,16.72,18.09,1.77,3.97,3.91,10.72,4.03,15.02.01.39.06.64-.28.94-9.49-9.33-16.48-21.37-20.48-34.05ZM383.13,440.56c3.91,2.86,6.94,7.16,9.08,11.51,3.36,6.82,5.47,18.06,3.83,25.54-.06.29-.03.63-.41.72-6.97-11.42-11.25-24.39-12.51-37.77ZM382.18,476.51c.05-.61.36-4.22.73-4.27,8.57,11.21,9.37,27.23,3.93,39.98-.44-.18-.38-.51-.51-.84-3.92-9.88-5.03-24.32-4.15-34.88ZM382.01,512.23c-.03-.31-.32-.93.13-.93l4,10.04-4.67,7.84c-.02-1.21.42-2.34.58-3.58.7-5.15.46-8.26-.04-13.37ZM348.2,570.36c.57-10.64,4.15-20.96,8.7-30.52l4.37-7.36c2.9,13.93-2.97,28.34-13.07,37.88ZM364.31,551.67c.8-2.6.97-4.85,1.32-7.5.05-.41.07-1.43.43-1.62l1.6,10.06-6.14,6.25c.76-2.43,2.05-4.76,2.79-7.19ZM373.14,552.86c7.47-6.95,15.91-12.94,25.12-17.36.15.11-.54,1.65-.67,1.9-.72,1.45-2.15,3.63-3.09,5.01-7.12,10.52-18.51,19.28-31.3,21.17-.16-.41.07-.54.28-.82,2.47-3.16,6.66-7.13,9.65-9.91ZM372.37,541.01c-.22.37-1.89,3.08-2.22,2.8-1.41-13.68.48-27.25,4.93-40.16.51-.14.41-.1.62.24.87,1.47,1.88,5.32,2.22,7.07,1.98,10.12-.34,21.26-5.55,30.05Z"/>
  <path class="st34" d="M344.24,579.6c-.28,0-.54-.11-.75-.31-.55-.54-.68-1.72-.51-4.67l.02-.34c.71-18.13,7.34-36.18,18.66-50.83.15-.2.39-.32.64-.33.28-.02.5.09.67.28l.49.54c.08.09.14.19.18.3l1.44,4.24c.53-10.29,3.28-21.27,8.51-34.08.03-.08.07-.15.12-.21.2-.25.49-.4.8-.4h.01c.57,0,.96.46,1.14.68,1.02,1.17,1.81,2.46,2.52,3.77-1.17-7.51-1.39-15.33-.66-23.31.33-3.58.79-7.71,2.1-11.51.1-.29.34-.5.63-.56.3-.06.6.04.8.26l3.51,3.82c-.19-.39-.37-.79-.52-1.2-3.66-9.67-5.69-20.35-6.2-32.64,0-.2.06-.4.18-.56.8-1.03,2.37-.12,4.04.99l.15.1c.77.5,1.51,1.04,2.23,1.6-7.21-10.46-12.08-21.5-14.48-32.8-.06-.29.03-.58.24-.79.21-.21.51-.29.79-.22,3,.71,5.93,1.86,8.75,3.44-9.33-12.36-14.15-26.07-12.73-36.73.04-.3.23-.55.5-.67.27-.12.59-.09.83.08,10.93,7.61,21.99,23.07,26.77,36.73.19-9.67,1.51-18.56,3.95-26.49,1.89-6.16,2.38-6.23,2.9-6.29.32-.05.65.11.83.39,7.96,12.35,11.15,27.27,9.01,41.58,1.97-3.61,2.84-5,3.81-5.15.42-.06.82.19.95.59,1.54,4.9,3.45,12.2,3.78,19.15.45,9.19-1.54,18.39-5.42,26.4,1.6-1.91,3.25-3.74,4.97-5.5.26-.27.67-.33,1.01-.16l.67.35c.25.13.42.38.45.66,1.76,15.12-1.6,30.3-9.21,41.66-.1.15-.2.29-.3.43l4.25-2.99c.23-.16.52-.2.79-.1l.56.21c.36.13.59.5.55.88-1.33,14.58-8.51,30.36-20.56,40.36,2.28-1.02,4.6-1.96,6.95-2.79.22-.08.47-.06.68.04.21.11.37.3.43.52.27.94-.03,1.74-.27,2.39-.05.14-.11.29-.16.43-6.29,19.41-26.57,38.89-49.71,38.11-2.97,3.76-6.58,7.1-11.3,10.49-.12.09-.27.14-.42.16-.03,0-.06,0-.09,0ZM362.26,525.48c-10.64,14.18-16.86,31.48-17.55,48.85l-.02.38c-.08,1.35-.08,2.18-.05,2.69,4.3-3.18,7.6-6.33,10.34-9.86.17-.22.45-.35.71-.33,17.67.75,40.63-12.81,48.44-36.91.05-.17.12-.34.18-.5.04-.11.08-.21.11-.3-7.5,2.8-14.74,6.6-21.01,11.02-1.87,1.32-3.69,2.81-5.45,4.26-1.26,1.03-2.56,2.1-3.88,3.1l-.08.07c-.21.2-.62.57-1.16.52-.32-.03-.6-.2-.8-.48-.21-.3-.21-.7,0-1,2.1-2.88,3.74-5.63,5.01-8.4.12-.25.35-.43.62-.48,22.85-4.23,36.86-26.72,39.18-47.19l-7.89,5.56c-.33.23-.79.2-1.08-.08-.29-.28-.35-.74-.13-1.08.59-.92,1.28-1.77,1.95-2.59.61-.76,1.19-1.47,1.71-2.24,7.25-10.81,10.52-25.21,9.03-39.64-6.25,6.54-11.67,14.11-16.13,22.52-.59,1.11-1.12,2.33-1.64,3.52-.58,1.33-1.18,2.71-1.87,3.95-.2.38-.55,1.05-1.27.9-.48-.1-.75-.49-.79-1.15,0-.05,0-.1,0-.15l1.01-9.58c.02-.24.15-.45.34-.59,12.08-9.09,19.37-25.64,18.56-42.16-.3-6.16-1.87-12.63-3.29-17.36-.69,1.02-1.63,2.75-2.26,3.92-1.15,2.12-1.89,3.44-2.44,3.97-.27.27-.69.32-1.02.13s-.5-.57-.41-.94c3.49-14.8.91-30.67-7.07-43.78-.47,1.22-1.1,3.1-1.44,4.21-2.91,9.46-4.2,20.31-3.84,32.26.01.44-.31.82-.75.88-.43.05-.85-.24-.94-.67-2.93-14.02-14.71-32.03-26.61-40.94-.86,11.26,5.15,25.75,15.95,38.23.29.33.28.83-.02,1.15-.3.32-.79.36-1.14.09-3.61-2.75-7.44-4.71-11.41-5.84,2.51,10.88,7.36,21.5,14.45,31.59.33.47.96,1.23,1.63,2.03,1.26,1.51,2.11,2.55,2.4,3.16.05.1.15.34.15.63.13.04.25.11.36.21.97.95,1.93,1.91,2.9,2.87,2.32,2.32,4.72,4.71,7.25,6.87.21.18.32.44.3.71-.08,1.17-.18,2.33-.28,3.49-.17,2.03-.35,4.12-.44,6.2.03.22.08.57-.18.89-.28.34-.62.36-1.06.38-.47,0-.86-.3-.92-.74-.62-4.69-2.46-9.6-5.47-14.59-.48-.8-1.03-1.54-1.6-2.33-.63-.86-1.28-1.75-1.83-2.7-.05-.08-.08-.17-.1-.26-.19-.02-.36-.1-.5-.23l-.34-.33c-2.31-2.2-4.7-4.48-7.37-6.22l-.16-.11c-.71-.47-1.2-.75-1.52-.92.57,11.68,2.55,21.86,6.04,31.09.22.59.52,1.18.83,1.8.6,1.2,1.23,2.44,1.4,3.84.05.37-.15.73-.49.88-.34.16-.74.08-.99-.2l-5.6-6.1c-.92,3.23-1.3,6.68-1.57,9.72-.88,9.66-.35,19.07,1.59,27.97.06.26,0,.53-.18.73-.17.2-.41.32-.68.31-.95-.03-1.24-.82-1.34-1.11-.02-.05-.04-.1-.06-.15-.22-.44-.43-.88-.65-1.33-.95-1.96-1.85-3.83-3.15-5.45-5.7,14.22-8.26,26.12-8.06,37.36,0,.42-.29.79-.71.86-.41.07-.82-.17-.96-.57l-2.78-8.21ZM378.44,539.72c-.7,1.48-1.5,2.95-2.41,4.44.28-.23.57-.46.85-.7,1.78-1.46,3.63-2.98,5.55-4.34.34-.24.68-.47,1.02-.71-1.62.53-3.29.96-5.01,1.3ZM401.43,471.42l-.57,5.38c.08-.2.17-.39.26-.59.53-1.21,1.08-2.47,1.7-3.63.83-1.58,1.7-3.12,2.61-4.64-1.26,1.25-2.6,2.42-3.99,3.49ZM395.5,447.98c1.65,2.99,2.89,5.95,3.72,8.86.05-.67.11-1.33.17-1.99.09-1.01.17-2.02.25-3.04-1.42-1.23-2.8-2.52-4.14-3.83ZM348.2,571.21c-.12,0-.24-.03-.36-.08-.32-.15-.51-.47-.5-.82.5-9.38,3.37-19.46,8.78-30.84l4.41-7.43c.18-.3.53-.47.88-.41.35.06.62.32.7.67,2.8,13.45-2.31,28.27-13.33,38.68-.16.15-.37.23-.59.23ZM360.83,534.91l-3.19,5.37c-4.84,10.19-7.62,19.35-8.41,27.86,8.89-9.28,13.21-21.66,11.61-33.23ZM363.21,564.44c-.35,0-.67-.22-.8-.55-.31-.82.12-1.31.32-1.54l.09-.1c2.42-3.09,6.48-6.97,9.74-10.01,7.89-7.33,16.41-13.22,25.34-17.5.29-.14.62-.11.88.08.44.33.69.75-.41,2.97-.73,1.45-2.11,3.58-3.15,5.11-7.91,11.7-19.83,19.75-31.88,21.54-.04,0-.08,0-.13,0ZM396.74,537.21c-8.08,4.11-15.81,9.58-23.01,16.28h0c-2.92,2.71-6.47,6.1-8.85,8.94,10.97-2.22,21.68-9.77,28.93-20.49.96-1.42,2.23-3.36,2.94-4.72ZM373.14,552.86h0,0ZM361.51,559.71c-.15,0-.3-.04-.44-.12-.34-.2-.49-.61-.38-.99.39-1.23.91-2.44,1.41-3.61.5-1.17,1.02-2.38,1.38-3.57h0c.63-2.04.85-3.82,1.1-5.89.06-.48.12-.97.19-1.48l.02-.24c.06-.7.15-1.65.85-2.02.24-.13.54-.13.78-.01.25.12.42.36.46.63l1.6,10.06c.04.27-.04.54-.23.73l-6.14,6.25c-.17.17-.39.26-.61.26ZM365.12,551.92h0c-.35,1.14-.81,2.25-1.27,3.33l2.89-2.94-.72-4.54c-.2,1.35-.45,2.69-.9,4.15ZM370.24,544.68c-.23,0-.49-.09-.65-.23-.17-.14-.27-.34-.29-.56-1.37-13.33.3-26.96,4.97-40.53.09-.27.31-.47.58-.55.41-.11,1.09-.31,1.52.52l.06.11c.94,1.58,1.98,5.56,2.33,7.34,1.94,9.94-.17,21.4-5.66,30.65h0c-1.82,3.07-2.46,3.18-2.74,3.22-.04,0-.08,0-.13,0ZM375.43,505.3c-4.03,12.23-5.57,24.5-4.6,36.53.29-.43.59-.9.81-1.26h0c5.28-8.91,7.31-19.92,5.45-29.45-.27-1.4-.98-4.13-1.66-5.82ZM372.37,541.01h0,0ZM384.34,533.82c-.18,0-.36-.06-.51-.17-.69-.51-.63-1.07,1.58-5.05,6.15-11.04,15.67-22.65,24.29-29.63h0c2.28-1.84,2.6-1.74,3.07-1.36.25.21.37.54.29.85-3.68,16.2-14.56,29.73-28.4,35.29-.1.04-.21.06-.32.06ZM410.77,500.31c-8.46,6.86-17.82,18.27-23.84,29.08-.47.84-.81,1.49-1.06,1.99,11.83-5.5,21.18-17.14,24.98-31.12-.03.02-.05.04-.08.06h0ZM381.47,530.03c-.07,0-.15,0-.22-.03-.37-.1-.63-.43-.64-.81-.01-.85.16-1.64.34-2.4.1-.43.2-.86.26-1.3.69-5.09.44-8.17-.05-13.17,0-.04-.02-.1-.03-.15-.08-.32-.21-.87.14-1.32.21-.26.52-.41.87-.41s.67.21.79.54l4,10.04c.1.25.08.53-.06.75l-4.67,7.84c-.16.26-.44.42-.74.42ZM383.23,516.34c.19,2.8.18,5.29-.23,8.59l2.18-3.67-1.96-4.92ZM389.97,516.83c-.1,0-.2-.02-.3-.05-.32-.12-.56-.35-.67-.66-.19-.51.06-.97.2-1.22l.05-.09c.25-.71.53-1.44.8-2.17.68-1.78,1.38-3.62,1.74-5.49.05-.25.2-.46.42-.58l8.19-4.59c.36-.2.81-.12,1.07.2.26.32.27.77,0,1.09l-10.85,13.26c-.17.2-.41.31-.66.31ZM393.39,507.87c-.31,1.43-.78,2.8-1.28,4.14l5.18-6.33-3.9,2.19ZM386.84,513.08c-.11,0-.22-.02-.33-.06-.72-.3-.87-.89-.94-1.17-.01-.05-.02-.1-.04-.14-4.08-10.27-5.05-25.12-4.21-35.26h0c.4-4.7.76-4.95,1.48-5.04.31-.04.6.09.79.33,8.37,10.95,9.95,26.98,4.04,40.84-.14.32-.46.52-.79.52ZM387.27,511.55h0,0ZM383.03,476.58h0c-.8,9.64.06,23.57,3.73,33.54,4.6-12.27,3.27-25.98-3.48-35.9-.08.58-.16,1.36-.25,2.36ZM397.57,500.88c-.11,0-.23-.02-.33-.07-.27-.11-.46-.35-.51-.64-.14-.79.06-1.5.24-2.12,3.19-11.37,8.52-23.27,14.65-32.69h0c.47-.72,4.6-7.01,5.81-7.13.26-.02.56.08.74.27.15.16.24.37.24.59.11,17.2-7.69,33.16-20.35,41.64-.14.1-.31.14-.48.14ZM413.05,466.3c-5.98,9.19-11.19,20.79-14.33,31.87,10.56-7.95,17.42-22.05,17.94-36.91-1.28,1.66-3.1,4.25-3.61,5.04h0ZM394.16,496.91c-.05,0-.11,0-.16-.01-.42-.08-.71-.45-.7-.87.12-3.12-.2-6.77-.89-10.28-.03-.15-.17-.62-.36-1.24-1.39-4.71-1.37-5.08-1.08-5.54.13-.21.37-.37.61-.41.33-.06.67.08.85.36l5.42,8.04c.15.22.19.5.1.76l-3,8.62c-.12.35-.45.58-.81.58ZM393.59,483.68c.04.12.07.24.1.34.21.7.36,1.23.39,1.39h0c.39,1.96.66,3.95.82,5.89l1.3-3.75-2.61-3.87ZM395.64,479.19c-.29,0-.57-.15-.73-.41-7-11.47-11.37-24.66-12.63-38.13-.03-.33.14-.66.43-.82.29-.16.66-.14.93.05,4.55,3.32,7.59,8.26,9.34,11.82,3.27,6.64,5.63,18.22,3.9,26.1l-.02.11c-.04.26-.16,1.06-1.03,1.26-.07.02-.13.02-.2.02ZM384.2,442.52c1.4,11.89,5.25,23.49,11.22,33.78,1.21-7.46-.99-17.78-3.98-23.85-1.45-2.95-3.83-6.9-7.25-9.93ZM403.66,463.44c-.11,0-.23-.02-.34-.07-.32-.14-.53-.46-.52-.81.45-15.05,4.07-30.13,10.46-43.61.1-.21.28-.37.49-.44.22-.08.46-.06.66.04.78.39.9,1.07.97,1.48l.04.18c1.03,4.72,1.06,10.83.76,14.63-.87,11.29-5.22,21.61-11.93,28.33-.16.16-.38.25-.61.25ZM413.95,421.55c-5.44,12.08-8.65,25.4-9.34,38.76,5.54-6.42,9.11-15.6,9.88-25.58.27-3.43.27-8.79-.54-13.18ZM401.48,445.7s-.04,0-.07,0c-.41-.03-.74-.35-.78-.76l-.94-9.1c-.02-.22.04-.45.18-.62,2.12-2.67,3.77-4.93,5.18-7.11.23-.35.68-.49,1.06-.32.38.17.59.59.48,1l-4.29,16.28c-.1.38-.44.64-.83.64ZM401.43,436l.42,4.08,1.86-7.05c-.7.94-1.45,1.93-2.28,2.97ZM397.15,443.67c-.22,0-.43-.08-.6-.25-9.34-9.19-16.5-21.08-20.7-34.4-.1-.33,0-.68.26-.91.26-.22.63-.27.94-.12,7.13,3.54,13.53,10.46,17.12,18.51,1.9,4.27,3.99,11.09,4.11,15.35v.11c.02.38.04.96-.57,1.49-.16.14-.36.21-.56.21ZM378.16,410.55c3.98,11.64,10.29,22.08,18.36,30.41-.35-4.05-2.2-9.95-3.9-13.75-3.12-6.99-8.43-13.08-14.46-16.66ZM401.68,428.15s-.04,0-.07,0c-.32-.03-.6-.23-.73-.53-.68-1.67-.75-3.32-.83-4.91-.03-.62-.06-1.24-.12-1.85-1.44-13.43-1.06-24.62,1.2-35.23h0s.08-.38.08-.38c.23-1.09.51-2.46,1.17-3.36.18-.25.48-.38.79-.35.31.04.57.23.69.52,6.75,15.92,6.21,33-1.45,45.68-.16.26-.43.41-.73.41ZM402.82,385.98h0c-2.22,10.42-2.6,21.45-1.17,34.69.07.65.1,1.3.13,1.96.04.83.08,1.64.2,2.43,6.11-11.47,6.52-26.27,1.12-40.36-.07.3-.13.61-.19.89l-.08.39ZM397.22,426.15h-.02c-.97-.02-1.25-.83-1.34-1.1-.01-.04-.03-.09-.04-.12-.38-.65-.71-1.34-1.03-2.01-.33-.69-.64-1.34-1-1.95-.74-1.23-1.6-2.49-2.55-3.75-.27-.35-.22-.84.1-1.14.32-.3.82-.31,1.15-.02,1.07.94,2.13,1.83,3.19,2.66,0-.01,0-.03,0-.04.06-.43.39-.74.87-.73.43.01.79.35.83.78.19,2.19.43,4.37.7,6.47.03.25-.05.5-.21.68-.16.18-.39.28-.64.28ZM395.73,420.92c.06.11.11.22.17.33,0-.08-.02-.16-.02-.25-.05-.02-.1-.05-.14-.09ZM390.21,410.57c-.18,0-.39-.04-.63-.15-.1-.05-.19-.11-.26-.19-9.57-10.23-15.81-22.17-16.29-31.15-.02-.36.19-.69.52-.83.33-.14.71-.06.96.2,5.07,5.38,9.13,11.12,12.4,17.56.06.12,5.85,12.44,4.14,14.22-.1.1-.38.35-.83.35ZM375.02,381.56c1.32,7.92,6.69,17.71,14.57,26.44-.64-2.86-3.28-9.38-4.21-11.22h0c-2.81-5.52-6.21-10.53-10.36-15.22Z"/>
  <path class="st30" d="M389.94,409.64c2.44,1.13-2.92-11.52-3.8-13.25-3.15-6.2-7.13-11.92-12.26-17.36.5,9.35,7.18,21.11,16.06,30.61Z"/>
  <path class="st30" d="M397.57,500.03c13.18-8.83,20.07-25.33,19.97-40.92-.35-.37-4.86,6.18-5.22,6.73-6.26,9.63-11.43,21.35-14.53,32.42-.16.57-.34,1.17-.23,1.78Z"/>
  <path class="st30" d="M363.21,563.59c12.79-1.9,24.19-10.65,31.3-21.17.94-1.38,2.36-3.56,3.09-5.01.13-.26.82-1.79.67-1.9-9.21,4.42-17.65,10.41-25.12,17.36-2.99,2.78-7.18,6.75-9.65,9.91-.22.28-.44.4-.28.82Z"/>
  <path class="st30" d="M401.68,427.29c8.16-13.51,7.44-30.66,1.4-44.91-.62.85-.87,2.35-1.1,3.41-2.49,11.67-2.46,23.14-1.19,34.96.23,2.16.01,4.36.89,6.53Z"/>
  <path class="st30" d="M384.34,532.97c14.34-5.77,24.51-19.86,27.88-34.69-.11-.09-1.75,1.17-1.99,1.36-9.02,7.31-18.4,19.19-24.05,29.33-.27.49-2.12,3.8-1.85,4Z"/>
  <path class="st30" d="M403.66,462.58c7.12-7.14,10.91-17.8,11.68-27.8.33-4.32.18-10.16-.75-14.38-.1-.44-.09-.85-.56-1.09-6.36,13.4-9.93,28.4-10.38,43.26Z"/>
  <path class="st30" d="M375.09,503.64c-4.45,12.92-6.34,26.48-4.93,40.16.33.28,2-2.43,2.22-2.8,5.21-8.8,7.53-19.93,5.55-30.05-.34-1.75-1.35-5.6-2.22-7.07-.2-.34-.11-.38-.62-.24Z"/>
  <path class="st30" d="M382.91,472.24c-.37.05-.68,3.66-.73,4.27-.88,10.56.23,25,4.15,34.88.13.33.07.66.51.84,5.44-12.75,4.64-28.77-3.93-39.98Z"/>
  <path class="st30" d="M376.67,408.77c4,12.68,10.99,24.72,20.48,34.05.34-.29.29-.54.28-.94-.12-4.3-2.26-11.05-4.03-15.02-3.33-7.46-9.4-14.46-16.72-18.09Z"/>
  <path class="st30" d="M348.2,570.36c10.1-9.54,15.97-23.95,13.07-37.88l-4.37,7.36c-4.55,9.56-8.13,19.87-8.7,30.52Z"/>
  <path class="st30" d="M395.64,478.33c.38-.09.35-.43.41-.72,1.64-7.48-.48-18.72-3.83-25.54-2.14-4.34-5.17-8.65-9.08-11.51,1.25,13.38,5.54,26.34,12.51,37.77Z"/>
  <path class="st25" d="M330.16,571.96c-.26-.07-.41.04-.62.12-1.24.51-3.62,2.56-4.92,3.41-52.82,34.37-118.87,32.52-170.22-3.81-.54-.38-3.37-2.81-3.75-2.59l-3.18,18.82-17.03,7.23c-.14.07-.48.02-.36.32s4.61,3.57,5.28,4.06c62.05,45.18,146.03,46.25,209.31,3.07.9-.96,3.01-1.78,3.74-2.81.09-.12.22-.29,0-.35l-17.39-9.85-.87-17.61Z"/>
  <path class="st21" d="M152.15,573.98c52.59,37.2,120.22,39.1,174.31,3.9.98-.64,2.54-1.93,3.81-2.78l-.16-3.14c-.26-.07-.41.04-.62.12-1.24.51-3.62,2.56-4.92,3.41-52.82,34.37-118.87,32.52-170.22-3.81-.54-.38-3.37-2.81-3.75-2.59l-.55,3.25c.88.66,1.8,1.44,2.09,1.64Z"/>
  <path class="st41" d="M348.41,599.42l-1.76-1c-65.68,45.23-147.45,45.92-214.12-4.18l-2.1.89c-.14.07-.48.02-.36.32.13.31,4.61,3.57,5.28,4.06,62.05,45.18,146.03,46.25,209.31,3.07.9-.96,3.01-1.78,3.74-2.81.09-.12.22-.29,0-.35Z"/>
  <path class="st32" d="M145.84,361.89l192.99,1.42-.98,132.61c-.36,48.94-43.94,88.43-97.15,88.04-53.21-.39-96.2-40.53-95.84-89.46l.98-132.61Z"/>
  <path class="st41" d="M241.4,426.02h-94.41l-.49,66.12c-.36,48.62,42.14,88.52,94.9,89.31v-155.43Z"/>
  <path class="st35" d="M241.4,426.02h94.41s.49,66.12.49,66.12c.36,48.62-42.14,88.52-94.9,89.31v-155.43Z"/>
  <path class="st32" d="M325.38,451.18c-11.63-1.49-23.32.61-34.37,3.25-24.49,6.74-49.8,10.83-76,8.91-2.59-.19-11.05-1.74-9-4.75,5.44-5.53,1.18-7.8-6.11-8.67-5.6-.66-11.34-.49-16.99-.29-9.84.34-24.64,1.24-33.89,2.91-.97.18-1.9.45-2.79.79v17.98c10.66-.88,21.28-2.28,32-2.81,6.94-.34,19.4-1,25.73.94,7.21,2.22.66,5.49.37,8.02-.38,3.4,10.55,4.65,13.51,4.86,19.08,1.39,43.68-1.98,61.95-6.24,18.86-4.4,28.08-9.13,49.02-5.32l7.06,1.42v-18.62c-1.9-1.13-8.17-2.08-10.49-2.38Z"/>
  <path class="st37" d="M329.55,441.73c-24.17-4.39-44.01,5.47-67.14,9.07-12.33,1.92-44.15,5.38-54.78.58-6.05-2.73,2.19-5.8-.08-9.13-1.02-1.49-6.01-2.35-8.06-2.54-6.7-.63-14.97-.31-21.72.04-10.56.54-21.04,1.98-31.54,2.9v10.88c5.78-.74,11.62-1.4,17.44-1.9,9.53-.82,33.03-3.02,41.18,0,6.63,2.46-.02,5.43-.04,8.03-.02,2.97,9.13,4.27,11.93,4.51,14.66,1.23,32.15-.48,46.51-2.77,24.4-3.9,47.36-15.28,72.61-7.25v-10.57l-6.32-1.84Z"/>
  <path class="st12" d="M202.14,535.77v6.42c14.58-4.71,24.04-1.84,26.88-.38.5.26,1.11.05,1.34-.44.91-1.29,1.83-2.57,2.77-3.84-9.66-4.4-20.93-5.04-30.99-1.76Z"/>
  <path class="st12" d="M202.14,535.77c0,2.14-1.08,4.25-1.08,6.38-14.58-4.71-22.96-1.81-25.8-.35-.5.26-1.11.05-1.34-.44-.91-1.29-2.24-3.78-3.17-5.05,9.66-4.4,21.33-3.83,31.39-.54Z"/>
  <polygon class="st25" points="202.1 542.17 202.1 519.25 201.06 542.15 202.1 542.17"/>
  <path class="st51" d="M228.16,500.06c-8.62-1.89-17.64-1.4-26.06,1.48v34.77c10.16-3.48,21.19-3.48,31.35,0-1.49-14.54-2.99-21.24-4.51-35.37-.05-.43-.36-.79-.78-.88Z"/>
  <path class="st12" d="M224.66,499.51c-7.7-1.19-15.11-.52-22.56,2.03v34.77c8.12-7.33,16.42-8.91,24.55-9.61.55-.05.96-.53.91-1.09-.91-10.14-1.39-14.57-2.9-26.1Z"/>
  <path class="st25" d="M220.31,489.6c-6.04,1.74-12.33,5.85-18.21,11.95v34.77c7.05-7.31,14.67-11.75,21.76-12.7.53-.07.9-.55.85-1.08-1.1-12.06-1.91-18.47-3.13-32.06-.06-.63-.67-1.05-1.28-.88Z"/>
  <path class="st25" d="M176.03,500.06c8.62-1.9,17.64-1.4,26.06,1.48v34.77c-10.16-3.48-21.19-3.48-31.35,0,1.49-14.54,2.99-21.24,4.51-35.37.05-.43.36-.79.78-.88Z"/>
  <path class="st51" d="M199.93,500.87l-3.04,33.99c1.75.39,3.49.87,5.21,1.45v-34.77c-.72-.25-1.44-.47-2.17-.68Z"/>
  <g>
    <path class="st15" d="M161.63,594.06c.42-.76.61-1.51.56-2.25-.05-.74-.3-1.44-.78-2.1-.47-.65-1.14-1.22-2-1.7l-2.39-1.33h0s-1.19-.66-1.19-.66l-6.6,11.86,2,1.11,2.5-4.49,1.58.88c.86.48,1.69.74,2.5.8.8.06,1.54-.1,2.19-.45.66-.36,1.2-.92,1.62-1.67ZM159.67,592.97c-.35.63-.83,1-1.43,1.09-.6.1-1.25-.05-1.93-.43l-1.58-.88,2.14-3.85,1.58.88c.69.38,1.15.85,1.39,1.41.24.55.18,1.15-.17,1.78Z"/>
    <path class="st15" d="M172.18,596.67c-.09-.74-.39-1.42-.9-2.05-.51-.63-1.21-1.15-2.1-1.58l-1.72-.82h0s-2.07-.98-2.07-.98l-5.83,12.26,2.07.98,2.21-4.64,1.26.6.89,6.12,2.49,1.18-1.14-6.52c.26.04.51.07.76.07.81,0,1.53-.2,2.17-.6.63-.4,1.13-.99,1.5-1.76.37-.77.5-1.53.41-2.26ZM169.62,597.98c-.21.43-.48.76-.83.97-.35.22-.74.32-1.17.31-.43,0-.88-.12-1.35-.34l-1.63-.77,1.96-4.13,1.63.77c.47.22.84.5,1.12.83.28.33.44.7.5,1.1.05.4-.02.82-.23,1.26Z"/>
    <path class="st15" d="M183.83,599.53c-.67-.63-1.48-1.13-2.44-1.5-.93-.36-1.86-.53-2.79-.51-.93.02-1.8.2-2.63.56-.82.36-1.55.87-2.18,1.54-.63.67-1.13,1.48-1.5,2.44-.36.94-.54,1.88-.52,2.81.01.93.2,1.81.56,2.63.36.82.88,1.55,1.56,2.19.68.64,1.49,1.14,2.43,1.51.95.37,1.9.54,2.83.51.93-.02,1.8-.22,2.62-.58.82-.36,1.55-.89,2.18-1.57.64-.68,1.14-1.5,1.5-2.44.37-.95.54-1.89.52-2.81-.02-.92-.22-1.79-.59-2.61-.37-.81-.89-1.54-1.57-2.17ZM183.18,606.24c-.33.87-.82,1.57-1.45,2.11-.63.54-1.34.88-2.14,1.02-.79.14-1.61.05-2.46-.28-.83-.32-1.5-.8-2-1.44-.5-.64-.81-1.37-.91-2.19-.11-.82,0-1.67.34-2.54.33-.87.82-1.57,1.45-2.11s1.35-.88,2.15-1.01c.8-.14,1.62-.04,2.45.28.86.33,1.53.81,2.03,1.45.5.63.8,1.36.9,2.18.1.82-.02,1.67-.35,2.53Z"/>
    <path class="st15" d="M202.65,609.29c.22-.84.22-1.61,0-2.32-.23-.71-.65-1.32-1.27-1.84s-1.4-.9-2.35-1.15l-1.74-.46h0s-2.21-.58-2.21-.58l-3.47,13.13,2.21.58,1.31-4.97,1.74.46c.95.25,1.82.3,2.62.16.79-.14,1.47-.47,2.02-.98.55-.51.94-1.18,1.16-2.02ZM200.47,608.71c-.19.7-.56,1.17-1.11,1.41-.56.24-1.22.26-1.98.06l-1.74-.46,1.12-4.26,1.74.46c.76.2,1.33.54,1.7,1.02.37.48.46,1.07.28,1.77Z"/>
    <path class="st15" d="M200.2,618.39l2.53.5,2.2-3.12,4.91.98.85,3.73,2.53.5-3.71-15.35-9.3,12.76ZM205.96,614l2.65-3.86.96,4.58-3.61-.72Z"/>
    <polygon class="st15" points="214.15 609.46 217.69 609.95 216.11 621.31 218.39 621.62 219.97 610.27 223.53 610.77 223.82 608.67 214.45 607.37 214.15 609.46"/>
    <path class="st15" d="M231.29,617.22c.76-.29,1.36-.74,1.81-1.34.45-.6.71-1.33.77-2.18.07-.85-.08-1.6-.43-2.26-.35-.66-.88-1.19-1.58-1.59-.7-.41-1.54-.65-2.52-.72l-1.9-.15h0s-2.28-.18-2.28-.18l-1.06,13.54,2.28.18.4-5.12,1.39.11,3.02,5.39,2.75.22-3.4-5.68c.25-.05.5-.12.73-.21ZM228.73,615.66l-1.8-.14.36-4.56,1.8.14c.52.04.96.17,1.34.38.38.21.67.49.86.85.19.35.27.77.23,1.26-.04.48-.18.88-.42,1.2-.25.32-.57.56-.98.71-.41.15-.87.2-1.38.16Z"/>
    <rect class="st15" x="230.58" y="615.21" width="13.58" height="2.31" transform="translate(-385.94 834.85) rotate(-88.25)"/>
    <path class="st15" d="M240.33,623.34l2.58-.06,1.47-3.53,5-.11,1.64,3.46,2.58-.06-6.96-14.18-6.31,14.48ZM248.67,617.72l-3.68.08,1.75-4.35,1.94,4.26Z"/>
    <path class="st15" d="M269.65,615.96c-.25-.41-.57-.76-.94-1.04-.38-.29-.78-.51-1.21-.68-.43-.17-.86-.3-1.27-.39-.75-.17-1.37-.34-1.85-.53-.48-.19-.84-.4-1.09-.65-.25-.25-.39-.55-.43-.89-.05-.39.06-.74.32-1.07.26-.33.7-.53,1.33-.61.45-.06.85-.02,1.22.11.36.13.69.32.98.58.29.26.54.54.75.85l1.72-1.27c-.29-.45-.67-.86-1.12-1.25s-1-.68-1.63-.89c-.63-.21-1.34-.26-2.13-.16-.81.1-1.51.34-2.11.72-.6.38-1.05.87-1.35,1.46-.3.59-.41,1.25-.32,1.97.08.63.27,1.15.57,1.56.3.41.65.75,1.06,1,.41.25.83.46,1.27.6.44.15.83.26,1.18.33.59.13,1.11.28,1.57.44.46.16.83.37,1.11.64.28.27.45.66.52,1.16.07.53-.07.98-.42,1.36-.34.38-.82.61-1.44.69-.51.06-.99.02-1.43-.14-.44-.16-.85-.41-1.24-.76-.39-.35-.76-.76-1.12-1.24l-1.55,1.39c.37.58.84,1.1,1.41,1.56.57.46,1.21.81,1.92,1.04.71.23,1.47.29,2.26.19.58-.07,1.12-.24,1.63-.49.51-.25.95-.58,1.33-.97.38-.39.66-.86.84-1.39.18-.53.23-1.11.15-1.74-.07-.59-.24-1.09-.49-1.5Z"/>
    <polygon class="st15" points="275.28 618.32 274.48 614.13 280 613.07 279.63 611.13 274.11 612.18 273.49 608.94 279.39 607.82 279.02 605.84 272.29 607.12 272.29 607.12 270.9 607.38 273.44 620.72 274.83 620.46 274.83 620.46 281.56 619.17 281.18 617.19 275.28 618.32"/>
    <polygon class="st15" points="290.04 611.87 282.25 604.45 284.2 618.69 286.48 618.07 285.21 609.85 291.03 615.52 293.18 607.68 296.27 615.4 298.55 614.78 293.01 601.51 290.04 611.87"/>
    <path class="st15" d="M305.22,600.04c-.59-.46-1.29-.72-2.09-.8-.8-.08-1.67.05-2.59.38l-1.7.61h0s-2.15.77-2.15.77l4.58,12.78,2.15-.77-1.73-4.84,1.7-.61c.93-.33,1.67-.78,2.25-1.35.57-.57.94-1.22,1.1-1.95.16-.73.1-1.51-.19-2.32-.29-.82-.73-1.45-1.32-1.91ZM304.3,604.5c-.32.51-.86.9-1.6,1.17l-1.7.61-1.48-4.15,1.7-.61c.74-.27,1.4-.31,1.98-.12.57.19.98.62,1.23,1.3.24.68.2,1.28-.12,1.79Z"/>
    <polygon class="st15" points="313.53 606.99 311.85 603.07 317.01 600.84 316.23 599.02 311.06 601.25 309.76 598.22 315.28 595.84 314.48 593.99 308.96 596.37 308.96 596.37 306.9 597.26 312.27 609.73 313.57 609.17 313.57 609.17 319.85 606.46 319.06 604.61 313.53 606.99"/>
    <path class="st15" d="M329.23,601.82l2.46-1.25-5.86-3.08c.19-.18.36-.36.52-.56.49-.64.77-1.34.85-2.08.07-.75-.09-1.5-.47-2.26-.39-.76-.9-1.33-1.54-1.71-.64-.38-1.37-.56-2.18-.54-.81.02-1.65.25-2.53.7l-1.69.86h0s-2.04,1.04-2.04,1.04l6.15,12.1,2.04-1.04-2.33-4.58,1.25-.63,5.39,3.03ZM321.74,597.74l-2.07-4.08,1.61-.82c.46-.23.91-.36,1.34-.38.43-.02.82.07,1.17.27.35.2.63.52.86.96.22.43.3.84.26,1.25-.04.41-.2.78-.47,1.12-.27.34-.63.63-1.1.86l-1.61.82Z"/>
  </g>
  <path class="st25" d="M294.31,523.94l.13.18c1.61.43,3.13,1.13,4.63,1.84,2.38-3.03,3.84-6.72,4.15-10.6,0-.06.07-.11.07-.12.01-.15,0-.31,0-.46h-7.67c-.03,3.1-.52,6.18-1.31,9.17Z"/>
  <path class="st25" d="M275.22,523.43c2.41-.41,4.83-.81,7.28-.85v-7.81h-8.51c.02,2.93.52,5.83,1.23,8.66Z"/>
  <path class="st25" d="M293.32,514.77h-8.51v7.81c2.45.04,4.88.43,7.28.85.71-2.83,1.2-5.73,1.23-8.66Z"/>
  <path class="st25" d="M280.53,532.35c.57.41,1.28.82,1.97.91v-8.35c-2.19.07-4.37.33-6.52.77,1.03,2.46,2.34,5.09,4.55,6.67Z"/>
  <path class="st25" d="M284.8,524.9v8.35c1.77-.35,3.29-1.91,4.31-3.35.92-1.3,1.58-2.77,2.21-4.23-2.14-.45-4.33-.71-6.52-.77Z"/>
  <path class="st25" d="M293.54,526.33c-.1.06-.78,1.85-.93,2.16-.66,1.37-1.51,2.65-2.44,3.84,2.21-.77,4.31-1.97,6.1-3.48.27-.23.86-.7,1.04-.96.04-.07.11-.08.08-.19-.76-.29-1.5-.65-2.26-.93-.27-.1-1.41-.53-1.57-.43Z"/>
  <path class="st25" d="M302.71,508.66c-.7-2.7-1.95-5.2-3.64-7.39-1.5.7-3.02,1.41-4.63,1.84l-.13.18c.79,2.98,1.27,6.07,1.31,9.17h7.67v-.54l-.57-3.25Z"/>
  <path class="st25" d="M273.99,512.45h8.51v-7.81c-2.45-.04-4.87-.44-7.28-.85-.71,2.83-1.21,5.73-1.23,8.66Z"/>
  <path class="st25" d="M292.09,503.79c-2.41.42-4.83.81-7.28.85v7.81h8.51c-.02-2.93-.52-5.83-1.23-8.66Z"/>
  <path class="st25" d="M278.22,497.27c-.94,1.31-1.61,2.79-2.24,4.28,2.15.44,4.33.71,6.52.77v-8.35c-1.77.36-3.25,1.87-4.28,3.3Z"/>
  <path class="st25" d="M288.45,496.44c-.92-1.08-2.22-2.22-3.64-2.47v8.35c2.19-.07,4.37-.33,6.52-.77-.77-1.79-1.61-3.61-2.87-5.11Z"/>
  <path class="st25" d="M293.54,500.89c.17.11,1.31-.33,1.57-.43.77-.28,1.5-.65,2.26-.93.03-.12-.03-.13-.08-.19-.18-.26-.77-.74-1.04-.96-1.79-1.51-3.89-2.71-6.1-3.48.94,1.19,1.78,2.47,2.44,3.84.15.3.83,2.1.93,2.16Z"/>
  <path class="st51" d="M272.99,524c-.74-3.02-1.28-6.11-1.3-9.23h-7.67c.23,4.07,1.73,8.04,4.25,11.21,1.46-.78,3.01-1.39,4.59-1.86l.12-.11Z"/>
  <path class="st51" d="M272.99,503.22l-.12-.11c-1.58-.47-3.13-1.08-4.59-1.86-2.53,3.16-4.03,7.13-4.25,11.21h7.67c.02-3.12.55-6.22,1.3-9.23Z"/>
  <path class="st51" d="M273.76,500.89c.85-2.14,1.91-4.21,3.37-6-2.21.78-4.3,1.96-6.1,3.48-.27.23-.86.7-1.04.96-.04.07-.11.08-.08.19.52.19,3.54,1.55,3.84,1.36Z"/>
  <path class="st51" d="M269.92,527.69c-.03.12.03.13.08.19.18.26.77.74,1.04.96,1.79,1.52,3.89,2.7,6.1,3.48-1.47-1.78-2.52-3.86-3.37-6-1.33.19-2.58.89-3.84,1.36Z"/>
  <path class="st12" d="M285.15,491.51l2.24.29c18.08,3.15,24.77,26.21,10.8,38.72-12.87,11.53-33.28,3.86-36.03-13.1l-.28-2.28c.04-.92-.05-1.86,0-2.78.64-11.04,9.66-20.2,20.53-20.85h2.74ZM282.5,502.37v-8.08c-3.12,1.1-4.87,4.32-6.07,7.25.05.1.13.1.22.13.43.15,1.47.27,1.98.34,1.29.18,2.59.22,3.88.36ZM285.07,502.37c1.29-.14,2.59-.18,3.88-.36.5-.07,1.55-.19,1.98-.34.09-.03.17-.03.22-.13-1.2-2.92-2.95-6.16-6.07-7.25v8.08ZM276.77,495.51c-1.95.68-3.87,1.85-5.43,3.22-.14.12-.99.82-.9.95l3.42,1.27,1.64-3.46,1.27-1.97ZM297.13,499.68c.1-.14-.83-.91-.99-1.04-1.53-1.32-3.44-2.47-5.34-3.13l1.81,2.98,1.09,2.45,3.42-1.27ZM264.54,512.45h7.27c.02-3.05.51-6.09,1.28-9.03-1.56-.43-3.07-1.06-4.49-1.81-2.37,3.06-3.92,6.93-4.06,10.85ZM303.03,512.45c-.14-3.92-1.7-7.78-4.06-10.85-1.43.75-2.93,1.4-4.49,1.81.77,2.94,1.26,5.98,1.28,9.03h7.27ZM282.5,504.98c-1.12-.12-2.25-.14-3.37-.27-1.19-.14-2.37-.4-3.55-.59-.75,2.7-1.17,5.52-1.2,8.33h8.13v-7.47ZM285.07,504.98v7.47h8.13c-.03-2.82-.46-5.63-1.2-8.34-1.18.21-2.36.46-3.56.6-1.12.13-2.25.15-3.37.27ZM271.81,515.06h-7.27c.14,3.92,1.7,7.78,4.06,10.85,1.43-.76,2.94-1.39,4.49-1.81-.77-2.94-1.26-5.98-1.28-9.03ZM282.5,515.06h-8.13c.03,2.82.46,5.63,1.2,8.34,2.28-.48,4.6-.72,6.92-.87v-7.47ZM293.19,515.06h-8.13v7.47c2.32.15,4.65.38,6.92.87.74-2.71,1.17-5.52,1.2-8.34ZM303.03,515.06h-7.27c-.02,3.05-.52,6.09-1.28,9.03,1.57.41,3.07,1.06,4.49,1.81,2.36-3.07,3.92-6.92,4.06-10.85ZM282.5,525.14c-1.29.13-2.59.18-3.88.36-.5.07-1.55.19-1.98.34-.09.03-.17.03-.22.13,1.2,2.92,2.95,6.16,6.07,7.25v-8.08ZM285.07,533.21c3.12-1.1,4.87-4.33,6.07-7.25-.05-.1-.13-.1-.22-.13-.43-.15-1.47-.27-1.98-.34-1.29-.18-2.59-.23-3.88-.36v8.08ZM276.77,532l-1.27-1.97-1.64-3.46-3.42,1.27c-.09.13.76.83.9.95,1.56,1.36,3.48,2.53,5.43,3.22ZM297.13,527.83l-3.42-1.27-1.09,2.45-1.81,2.98c1.9-.66,3.81-1.81,5.34-3.13.15-.13,1.08-.9.99-1.04Z"/>
  <path class="st51" d="M256.15,510.82l.22.35c-.19,1.33-.19,2.66-.12,3.99l-.25.32c.24,5.54,1.59,9.74,4.73,14.3l.43.16c.67.97,1.39,1.9,2.21,2.75l.08.46c3.27,3.29,7.07,5.49,11.44,7.04.84.84.11,2.15-1.05,1.95-1.07-.18-3.26-1.23-4.29-1.75-3.69-1.86-7.71-5.1-10.16-8.42-.1-.02-.19-.04-.28-.08-.43-.19-2.02-2.93-2.3-3.56l.03-.52c-1.21-2.33-1.97-4.53-2.5-7.09-.5-.54-1.07-3.21-.84-3.78.04-.1.09-.18.16-.27-.22-2.87.05-5.71.65-8.5l-.19-.21c.34-1.18.66-2.37.96-3.57l.28-.17c.91-2,1.79-3.99,3.03-5.82-.01-.1-.02-.2-.02-.29.04-.55,1.93-2.97,2.63-3.15.44-.5,2.41-2.52,2.92-2.6.95-.15,1.51.67,1.25,1.56-.12.4-1.69,1.71-2.1,2.17-3.85,4.27-6.1,9-6.91,14.72Z"/>
  <path class="st14" d="M253.66,516.67c.1,1.34.41,2.73.69,4.05-3.39-.25-6.05-3.39-5.86-6.76,2.06.08,3.94,1.1,5.17,2.72Z"/>
  <path class="st14" d="M260.99,494.97c-.91,1.03-1.84,2.3-2.61,3.44-1.82-2.34-1.67-5.81.2-8.09.59-.73.72-.9,1.29-.08.95,1.35,1.27,3.09,1.12,4.73Z"/>
  <path class="st14" d="M255.35,504.23c0,.81-.82,2.93-1.04,3.94-2.95-1.7-3.88-5.33-2.69-8.44,1.58.27,3.73,2.97,3.73,4.5Z"/>
  <path class="st14" d="M256.15,510.82l.92-.88c1.06-.72,2.29-1.56,3.62-1.51.38,3.08-1.65,6.3-4.7,7.05-.08-1.87-.11-2.77.15-4.66Z"/>
  <path class="st14" d="M257.04,528.17c.63,1.3,1.48,2.58,2.27,3.79-3.49,1.07-7.39-1.03-8.52-4.49,2.09-.73,4.38-.44,6.25.71Z"/>
  <path class="st14" d="M260.65,529.71l.11-1.27c.32-1.24.69-2.69,1.73-3.53,2.32,2.06,2.91,5.82,1.12,8.4-1.3-1.35-1.92-2.01-2.96-3.6Z"/>
  <path class="st51" d="M311.4,510.82l-.22.35c.19,1.33.19,2.66.12,3.99l.25.32c-.24,5.54-1.59,9.74-4.73,14.3l-.43.16c-.67.97-1.39,1.9-2.21,2.75l-.08.46c-3.27,3.29-7.07,5.49-11.44,7.04-.84.84-.11,2.15,1.05,1.95,1.07-.18,3.26-1.23,4.29-1.75,3.69-1.86,7.71-5.1,10.16-8.42.1-.02.19-.04.28-.08.43-.19,2.02-2.93,2.3-3.56l-.03-.52c1.21-2.33,1.97-4.53,2.5-7.09.5-.54,1.07-3.21.84-3.78-.04-.1-.09-.18-.16-.27.22-2.87-.05-5.71-.65-8.5l.19-.21c-.34-1.18-.66-2.37-.96-3.57l-.28-.17c-.91-2-1.79-3.99-3.03-5.82.01-.1.02-.2.02-.29-.04-.55-1.93-2.97-2.63-3.15-.44-.5-2.41-2.52-2.92-2.6-.95-.15-1.51.67-1.25,1.56.12.4,1.69,1.71,2.1,2.17,3.85,4.27,6.1,9,6.91,14.72Z"/>
  <path class="st14" d="M313.9,516.67c-.1,1.34-.41,2.73-.69,4.05,3.39-.25,6.05-3.39,5.86-6.76-2.06.08-3.94,1.1-5.17,2.72Z"/>
  <path class="st14" d="M306.56,494.97c.91,1.03,1.84,2.3,2.61,3.44,1.82-2.34,1.67-5.81-.2-8.09-.59-.73-.72-.9-1.29-.08-.95,1.35-1.27,3.09-1.12,4.73Z"/>
  <path class="st14" d="M312.2,504.23c0,.81.82,2.93,1.04,3.94,2.95-1.7,3.88-5.33,2.69-8.44-1.58.27-3.73,2.97-3.73,4.5Z"/>
  <path class="st14" d="M311.4,510.82l-.92-.88c-1.06-.72-2.29-1.56-3.62-1.51-.38,3.08,1.65,6.3,4.7,7.05.08-1.87.11-2.77-.15-4.66Z"/>
  <path class="st14" d="M310.51,528.17c-.63,1.3-1.48,2.58-2.27,3.79,3.49,1.07,7.39-1.03,8.52-4.49-2.09-.73-4.38-.44-6.25.71Z"/>
  <path class="st14" d="M306.91,529.71l-.11-1.27c-.32-1.24-.69-2.69-1.73-3.53-2.32,2.06-2.91,5.82-1.12,8.4,1.3-1.35,1.92-2.01,2.96-3.6Z"/>
  <path class="st41" d="M97.46,372.81c-1.6,1.15-4.7,3.71-6.75,8.12-2.72,5.82-1.89,11.18-1.51,13.05,1.17-.61,5.84-3.21,8.11-9.03,2.27-5.83.6-10.9.15-12.14Z"/>
  <path class="st27" d="M115.26,551.72c-2.62-.14-4.85,1.93-4.97,4.63-.13,2.7,1.89,4.99,4.51,5.13,2.62.14,4.85-1.93,4.97-4.63.13-2.7-1.89-4.99-4.51-5.13Z"/>
  <path class="st27" d="M106.11,553.08c-1.66-.09-3.08,1.23-3.16,2.94-.08,1.71,1.2,3.17,2.86,3.26,1.66.09,3.08-1.23,3.16-2.94.08-1.71-1.2-3.17-2.86-3.26Z"/>
  <path class="st27" d="M97.42,521.91c-2.42-1.07-5.21.07-6.24,2.54s.09,5.35,2.5,6.42c2.42,1.07,5.21-.07,6.24-2.54,1.03-2.47-.09-5.35-2.5-6.42Z"/>
  <path class="st27" d="M100.26,514.97c-1.53-.68-3.31.04-3.97,1.61-.66,1.57.06,3.39,1.59,4.08,1.53.68,3.31-.04,3.97-1.61.66-1.57-.06-3.39-1.59-4.08Z"/>
  <path class="st27" d="M73.26,451.27c-1.53-.68-3.31.04-3.97,1.61-.66,1.57.06,3.39,1.59,4.08,1.53.68,3.31-.04,3.97-1.61.66-1.57-.06-3.39-1.59-4.08Z"/>
  <path class="st27" d="M86.27,486.25c-2.47-.22-4.64,1.66-4.85,4.2s1.62,4.78,4.09,5.01c2.47.22,4.64-1.66,4.85-4.2.21-2.54-1.62-4.78-4.09-5.01Z"/>
  <path class="st27" d="M77.58,487.22c-1.57-.14-2.95,1.05-3.08,2.67s1.03,3.04,2.6,3.18,2.95-1.05,3.08-2.67-1.03-3.04-2.6-3.18Z"/>
  <path class="st27" d="M75.95,430.78c2.23,1.08,4.93.08,6.02-2.22,1.09-2.31.16-5.05-2.07-6.13-2.23-1.08-4.93-.08-6.02,2.22-1.09,2.31-.17,5.05,2.07,6.13Z"/>
  <path class="st27" d="M84.42,432.94c1.42.68,3.13.05,3.82-1.41.69-1.46.1-3.21-1.31-3.89-1.42-.68-3.13-.05-3.82,1.41-.69,1.46-.1,3.21,1.31,3.89Z"/>
  <path class="st27" d="M85.72,402.95c1.69.82,3.74.06,4.57-1.69.83-1.75.13-3.83-1.57-4.65-1.69-.82-3.74-.06-4.57,1.69-.83,1.75-.13,3.83,1.57,4.65Z"/>
  <path class="st27" d="M80.33,451.45c-2.47-.22-4.64,1.66-4.85,4.2-.21,2.54,1.62,4.78,4.09,5.01,2.47.22,4.64-1.66,4.85-4.2.21-2.54-1.62-4.78-4.09-5.01Z"/>
  <path class="st1" d="M146.15,360.93c-3.8-.03-6.9,3.03-6.93,6.83l-.94,127c-.38,51.77,45.1,94.22,101.38,94.64,56.28.42,102.38-41.36,102.76-93.13l.94-126.86c.03-3.87-3.09-7.04-6.96-7.07l-190.26-1.4ZM334.26,494c-.35,47.61-42.75,86.04-94.52,85.66-51.77-.38-93.6-39.43-93.25-87.05l.88-119.12c.02-2.22,1.83-4,4.04-3.99l179.74,1.33c2.22.02,4,1.83,3.99,4.04l-.88,119.12Z"/>
  <path class="st49" d="M221.28,387.93c2.89.58,5.66-.14,8.61.7,3.12.89,5.16,3.6,7.06,6.53,1.75.24,3.47.9,5.03,2.02,2.16,1.54,4.87,4.13,7.5,6.93,1.85-.97,2.21-3.62,3.74-5.33,2.86-3.17,7.99-8.01,12.11-10.99-.67-.42-1.47-1.01-2.29-1.81-1.02-1.01-1.62-1.91-1.79-2.17-1.15-1.7-6.47-8.15-11.7-9.17-4-.78-3.87,2.42-12.37,4.89-6.99,2.03-12.14.15-15.66,4.88-.66.88-1.51,1.84-2.47,2.79.9.34,1.68.6,2.22.71Z"/>
  <path class="st23" d="M147.41,430.02l176.74,1.3c-1.76-4.47-7.85-5.73-10-9.55-2.95-5.25-4.25-12.17-9.34-17.45-1.81-1.87-4.06-1.63-5.5-2.68-1.4-1.02-2.3-4.15-4.75-5.72-2.7-1.73-5.55-1.36-7.76-2.51-1.86-.96-2.84-3.95-4.27-5.33-3.98-3.82-10.14-4.73-14.9-1.94-4.31,2.53-10.96,8.71-14.38,12.5-1.92,2.13-2,5.75-5.44,5.7-9.08-.13-10.11-13.63-17.9-15.86-2.95-.85-5.72-.12-8.61-.7-1.97-.4-6.97-2.75-10.01-3.7-5.14-1.61-9.99-4.15-15.63-2.12-.47.17-7.91,5.62-8.21,6.05-.75,1.09-1.09,4.37-2.12,6.35-5.35,10.38-12.1,7.49-18.11,13.44-3.37,3.34-4.32,11.82-10.09,14.93-3.12,1.68-6.61,1.44-9.73,1.87v5.41Z"/>
  <path class="st3" d="M334.8,413.36c-.88-.63-1.98-1.44-3.34-3.25-2.77-3.66-2.01-5.27-4.27-8.99-.68-1.12-3.91-5.77-9.11-8.07-5.92-2.62-11.09.46-16.54,2.37-3.23,1.13-8.55,3.97-10.63,4.43-3.07.68-5.97-.27-9.1.73-8.26,2.64-9.58,19.41-19.17,19.42-3.63,0-3.65-4.5-5.65-7.18-3.55-4.77-10.47-12.57-14.98-15.79-4.99-3.56-11.5-2.53-15.77,2.16-1.54,1.69-2.62,5.39-4.6,6.56-2.36,1.39-5.36.88-8.24,2.98-2.61,1.91-3.61,5.79-5.11,7.03-1.54,1.28-3.91.93-5.85,3.23-2.86,3.4-4.63,7.37-6.13,11.32l138.49,1.09v-18.04Z"/>
  <path class="st42" d="M328.62,301.12c-1.88-1.16-3.95-2.27-6.16-3.33l.35.12.86-2.57c.25-.74-.14-1.54-.87-1.79l-2.59-.9c-.72-.25-1.51.14-1.76.88l-.72,2.16c-.92-.38-1.86-.75-2.82-1.12l.68-2.04c.25-.74-.14-1.54-.87-1.79l-2.59-.9c-.72-.25-1.51.14-1.76.88l-.68,2.03c-.95-.31-1.91-.61-2.89-.9l.71-2.12c.25-.74-.14-1.54-.87-1.79l-2.59-.9c-.72-.25-1.51.14-1.76.88l-.81,2.44c-7.08-1.84-14.88-3.35-23.21-4.46l.18-2.78c.05-.78-.53-1.45-1.29-1.5l-2.9-.19c-.76-.05-1.42.54-1.47,1.32l-.16,2.48c-1.03-.11-2.06-.22-3.1-.32l.15-2.37c.05-.78-.53-1.45-1.29-1.5l-2.9-.19c-.76-.05-1.42.54-1.47,1.32l-.14,2.26c-1.03-.07-2.07-.15-3.11-.21l.14-2.26c.05-.78-.53-1.45-1.29-1.5l-2.9-.19c-.76-.05-1.42.54-1.47,1.32l-.15,2.35c-4.84-.19-9.79-.26-14.82-.19-4.08.06-8.1.2-12.06.43l-.29-2.52c-.09-.77-.78-1.33-1.54-1.24l-2.88.34c-.76.09-1.31.79-1.22,1.56l.26,2.24c-1.04.08-2.08.17-3.11.26l-.24-2.13c-.09-.77-.78-1.33-1.54-1.24l-2.88.34c-.76.09-1.31.79-1.22,1.56l.23,2.04c-1.04.12-2.07.24-3.09.37l-.23-2.04c-.09-.77-.78-1.33-1.54-1.24l-2.88.34c-.76.09-1.31.79-1.22,1.56l.25,2.15c-9.09,1.36-17.56,3.17-25.2,5.35l.06-.02-.93-2.55c-.27-.73-1.06-1.1-1.78-.83l-2.57.97c-.72.27-1.08,1.08-.82,1.81l.83,2.27-2.88.94-.78-2.14c-.27-.73-1.06-1.1-1.78-.83l-2.57.97c-.72.27-1.08,1.08-.82,1.81l.77,2.1c-.95.38-1.89.77-2.8,1.17l-.8-2.2c-.27-.73-1.06-1.1-1.78-.83l-2.57.97c-.72.27-1.08,1.08-.82,1.81l.93,2.55.5-.19c-2.16,1.09-4.18,2.21-6.02,3.38l11.17,26.9c18.51-8.02,45.8-13.31,76.3-13.73,31.37-.44,59.48,4.36,78.22,12.25,0-.06-.01-.11,0-.18l9.68-27.17Z"/>
  <path class="st24" d="M240.7,336.71c28.2,0,53.57,4.31,71.32,11.18l2.25-5.76c-17.81-7.39-44.16-12.07-73.56-12.07s-54.04,4.38-71.8,11.36c-.16.08-.31.17-.47.25l2.27,5.72c17.67-6.58,42.49-10.67,69.99-10.67Z"/>
  <g class="st47">
    <rect class="st17" x="138.99" y="257.96" width=".31" height="81.01"/>
    <rect class="st17" x="139.3" y="257.96" width="3.02" height="81.01"/>
    <rect class="st17" x="142.32" y="257.96" width="3.02" height="81.01"/>
    <rect class="st17" x="145.34" y="257.96" width="3.02" height="81.01"/>
    <rect class="st17" x="148.36" y="257.96" width="3.02" height="81.01"/>
    <rect class="st17" x="151.38" y="257.96" width="3.02" height="81.01"/>
    <rect class="st17" x="154.4" y="257.96" width="3.02" height="81.01"/>
    <rect class="st17" x="157.41" y="257.96" width="3.02" height="81.01"/>
    <rect class="st17" x="160.43" y="257.96" width="3.02" height="81.01"/>
    <rect class="st17" x="163.45" y="257.96" width="3.02" height="81.01"/>
    <rect class="st19" x="166.47" y="257.96" width="3.02" height="81.01"/>
    <rect class="st31" x="169.49" y="257.96" width="3.02" height="81.01"/>
    <rect class="st45" x="172.51" y="257.96" width="3.02" height="81.01"/>
    <rect class="st45" x="175.52" y="257.96" width="3.02" height="81.01"/>
    <rect class="st38" x="178.54" y="257.96" width="3.02" height="81.01"/>
    <rect class="st43" x="181.56" y="257.96" width="3.02" height="81.01"/>
    <rect class="st43" x="184.58" y="257.96" width="3.02" height="81.01"/>
    <rect class="st36" x="187.6" y="257.96" width="3.02" height="81.01"/>
    <rect class="st52" x="190.62" y="257.96" width="3.02" height="81.01"/>
    <rect class="st16" x="193.63" y="257.96" width="3.02" height="81.01"/>
    <rect class="st33" x="196.65" y="257.96" width="3.02" height="81.01"/>
    <rect class="st9" x="199.67" y="257.96" width="3.02" height="81.01"/>
    <rect class="st11" x="202.69" y="257.96" width="3.02" height="81.01"/>
    <rect class="st10" x="205.71" y="257.96" width="3.02" height="81.01"/>
    <rect class="st22" x="208.73" y="257.96" width="3.02" height="81.01"/>
    <rect class="st39" x="211.74" y="257.96" width="3.02" height="81.01"/>
    <rect class="st29" x="214.76" y="257.96" width="3.02" height="81.01"/>
    <rect class="st2" x="217.78" y="257.96" width="3.02" height="81.01"/>
    <rect class="st18" x="220.8" y="257.96" width="3.02" height="81.01"/>
    <rect class="st48" x="223.82" y="257.96" width="3.02" height="81.01"/>
    <rect class="st28" x="226.83" y="257.96" width="3.02" height="81.01"/>
    <rect class="st8" x="229.85" y="257.96" width="3.02" height="81.01"/>
    <rect class="st46" x="232.87" y="257.96" width="3.02" height="81.01"/>
    <rect class="st6" x="235.89" y="257.96" width="3.02" height="81.01"/>
    <rect class="st7" x="238.91" y="257.96" width="3.02" height="81.01"/>
    <rect class="st40" x="241.93" y="257.96" width="3.02" height="81.01"/>
    <rect class="st26" x="244.94" y="257.96" width="3.02" height="81.01"/>
    <rect class="st50" x="247.96" y="257.96" width="3.02" height="81.01"/>
    <rect class="st5" x="250.98" y="257.96" width="3.02" height="81.01"/>
    <rect class="st44" x="254" y="257.96" width="3.02" height="81.01"/>
    <rect class="st4" x="257.02" y="257.96" width="3.02" height="81.01"/>
    <rect class="st20" x="260.04" y="257.96" width="3.02" height="81.01"/>
    <rect class="st20" x="263.05" y="257.96" width="80.66" height="81.01"/>
  </g>
</svg>